<svg width="132" height="21" viewBox="0 0 132 21" fill="none" xmlns="http://www.w3.org/2000/svg">
<path d="M0.970588 20.0294H1.94118V21H0.970588V20.0294ZM1.94118 20.0294H2.91176V21H1.94118V20.0294ZM2.91176 20.0294H3.88235V21H2.91176V20.0294ZM3.88235 20.0294H4.85294V21H3.88235V20.0294ZM3.88235 19.0588H4.85294V20.0294H3.88235V19.0588ZM3.88235 18.0882H4.85294V19.0588H3.88235V18.0882ZM3.88235 17.1176H4.85294V18.0882H3.88235V17.1176ZM3.88235 16.1471H4.85294V17.1176H3.88235V16.1471ZM2.91176 16.1471H3.88235V17.1176H2.91176V16.1471ZM1.94118 16.1471H2.91176V17.1176H1.94118V16.1471ZM1.94118 17.1176H2.91176V18.0882H1.94118V17.1176ZM1.94118 18.0882H2.91176V19.0588H1.94118V18.0882ZM0.970588 18.0882H1.94118V19.0588H0.970588V18.0882ZM0.970588 19.0588H1.94118V20.0294H0.970588V19.0588ZM1.94118 19.0588H2.91176V20.0294H1.94118V19.0588ZM2.91176 19.0588H3.88235V20.0294H2.91176V19.0588ZM2.91176 18.0882H3.88235V19.0588H2.91176V18.0882ZM2.91176 17.1176H3.88235V18.0882H2.91176V17.1176ZM0.970588 17.1176H1.94118V18.0882H0.970588V17.1176ZM0.970588 16.1471H1.94118V17.1176H0.970588V16.1471ZM0.970588 15.1765H1.94118V16.1471H0.970588V15.1765ZM0.970588 14.2059H1.94118V15.1765H0.970588V14.2059ZM0.970588 13.2353H1.94118V14.2059H0.970588V13.2353ZM0.970588 12.2647H1.94118V13.2353H0.970588V12.2647ZM0.970588 11.2941H1.94118V12.2647H0.970588V11.2941ZM0.970588 10.3235H1.94118V11.2941H0.970588V10.3235ZM0.970588 9.35294H1.94118V10.3235H0.970588V9.35294ZM0.970588 8.38235H1.94118V9.35294H0.970588V8.38235ZM0.970588 7.41177H1.94118V8.38235H0.970588V7.41177ZM1.94118 7.41177H2.91176V8.38235H1.94118V7.41177ZM2.91176 7.41177H3.88235V8.38235H2.91176V7.41177ZM2.91176 8.38235H3.88235V9.35294H2.91176V8.38235ZM3.88235 8.38235H4.85294V9.35294H3.88235V8.38235ZM3.88235 9.35294H4.85294V10.3235H3.88235V9.35294ZM3.88235 10.3235H4.85294V11.2941H3.88235V10.3235ZM3.88235 11.2941H4.85294V12.2647H3.88235V11.2941ZM3.88235 13.2353H4.85294V14.2059H3.88235V13.2353ZM3.88235 14.2059H4.85294V15.1765H3.88235V14.2059ZM3.88235 15.1765H4.85294V16.1471H3.88235V15.1765ZM2.91176 15.1765H3.88235V16.1471H2.91176V15.1765ZM2.91176 14.2059H3.88235V15.1765H2.91176V14.2059ZM2.91176 13.2353H3.88235V14.2059H2.91176V13.2353ZM2.91176 12.2647H3.88235V13.2353H2.91176V12.2647ZM2.91176 11.2941H3.88235V12.2647H2.91176V11.2941ZM2.91176 10.3235H3.88235V11.2941H2.91176V10.3235ZM2.91176 9.35294H3.88235V10.3235H2.91176V9.35294ZM1.94118 9.35294H2.91176V10.3235H1.94118V9.35294ZM1.94118 8.38235H2.91176V9.35294H1.94118V8.38235ZM1.94118 10.3235H2.91176V11.2941H1.94118V10.3235ZM1.94118 11.2941H2.91176V12.2647H1.94118V11.2941ZM1.94118 13.2353H2.91176V14.2059H1.94118V13.2353ZM1.94118 14.2059H2.91176V15.1765H1.94118V14.2059ZM1.94118 15.1765H2.91176V16.1471H1.94118V15.1765ZM1.94118 12.2647H2.91176V13.2353H1.94118V12.2647ZM3.88235 12.2647H4.85294V13.2353H3.88235V12.2647ZM4.85294 12.2647H5.82353V13.2353H4.85294V12.2647ZM6.79412 12.2647H7.76471V13.2353H6.79412V12.2647ZM7.76471 12.2647H8.73529V13.2353H7.76471V12.2647ZM8.73529 12.2647H9.70588V13.2353H8.73529V12.2647ZM9.70588 12.2647H10.6765V13.2353H9.70588V12.2647ZM10.6765 12.2647H11.6471V13.2353H10.6765V12.2647ZM11.6471 12.2647H12.6176V13.2353H11.6471V12.2647ZM11.6471 13.2353H12.6176V14.2059H11.6471V13.2353ZM11.6471 14.2059H12.6176V15.1765H11.6471V14.2059ZM11.6471 15.1765H12.6176V16.1471H11.6471V15.1765ZM10.6765 15.1765H11.6471V16.1471H10.6765V15.1765ZM9.70588 15.1765H10.6765V16.1471H9.70588V15.1765ZM8.73529 15.1765H9.70588V16.1471H8.73529V15.1765ZM7.76471 15.1765H8.73529V16.1471H7.76471V15.1765ZM6.79412 14.2059H7.76471V15.1765H6.79412V14.2059ZM5.82353 14.2059H6.79412V15.1765H5.82353V14.2059ZM4.85294 14.2059H5.82353V15.1765H4.85294V14.2059ZM4.85294 13.2353H5.82353V14.2059H4.85294V13.2353ZM5.82353 12.2647H6.79412V13.2353H5.82353V12.2647ZM5.82353 13.2353H6.79412V14.2059H5.82353V13.2353ZM4.85294 15.1765H5.82353V16.1471H4.85294V15.1765ZM5.82353 15.1765H6.79412V16.1471H5.82353V15.1765ZM6.79412 15.1765H7.76471V16.1471H6.79412V15.1765ZM8.73529 14.2059H9.70588V15.1765H8.73529V14.2059ZM8.73529 13.2353H9.70588V14.2059H8.73529V13.2353ZM7.76471 13.2353H8.73529V14.2059H7.76471V13.2353ZM6.79412 13.2353H7.76471V14.2059H6.79412V13.2353ZM7.76471 14.2059H8.73529V15.1765H7.76471V14.2059ZM9.70588 13.2353H10.6765V14.2059H9.70588V13.2353ZM10.6765 13.2353H11.6471V14.2059H10.6765V13.2353ZM10.6765 14.2059H11.6471V15.1765H10.6765V14.2059ZM9.70588 14.2059H10.6765V15.1765H9.70588V14.2059ZM10.6765 16.1471H11.6471V17.1176H10.6765V16.1471ZM10.6765 17.1176H11.6471V18.0882H10.6765V17.1176ZM10.6765 18.0882H11.6471V19.0588H10.6765V18.0882ZM10.6765 19.0588H11.6471V20.0294H10.6765V19.0588ZM11.6471 19.0588H12.6176V20.0294H11.6471V19.0588ZM11.6471 20.0294H12.6176V21H11.6471V20.0294ZM12.6176 20.0294H13.5882V21H12.6176V20.0294ZM10.6765 20.0294H11.6471V21H10.6765V20.0294ZM12.6176 14.2059H13.5882V15.1765H12.6176V14.2059ZM12.6176 13.2353H13.5882V14.2059H12.6176V13.2353ZM12.6176 12.2647H13.5882V13.2353H12.6176V12.2647ZM12.6176 11.2941H13.5882V12.2647H12.6176V11.2941ZM12.6176 7.41177H13.5882V8.38235H12.6176V7.41177ZM12.6176 8.38235H13.5882V9.35294H12.6176V8.38235ZM11.6471 8.38235H12.6176V9.35294H11.6471V8.38235ZM11.6471 9.35294H12.6176V10.3235H11.6471V9.35294ZM11.6471 10.3235H12.6176V11.2941H11.6471V10.3235ZM11.6471 11.2941H12.6176V12.2647H11.6471V11.2941ZM12.6176 10.3235H13.5882V11.2941H12.6176V10.3235ZM12.6176 9.35294H13.5882V10.3235H12.6176V9.35294ZM10.6765 8.38235H11.6471V9.35294H10.6765V8.38235ZM10.6765 9.35294H11.6471V10.3235H10.6765V9.35294ZM10.6765 10.3235H11.6471V11.2941H10.6765V10.3235ZM10.6765 11.2941H11.6471V12.2647H10.6765V11.2941ZM11.6471 16.1471H12.6176V17.1176H11.6471V16.1471ZM11.6471 17.1176H12.6176V18.0882H11.6471V17.1176ZM11.6471 18.0882H12.6176V19.0588H11.6471V18.0882ZM12.6176 18.0882H13.5882V19.0588H12.6176V18.0882ZM12.6176 17.1176H13.5882V18.0882H12.6176V17.1176ZM12.6176 16.1471H13.5882V17.1176H12.6176V16.1471ZM12.6176 15.1765H13.5882V16.1471H12.6176V15.1765ZM12.6176 19.0588H13.5882V20.0294H12.6176V19.0588ZM1.94118 6.44118H2.91176V7.41177H1.94118V6.44118ZM2.91176 6.44118H3.88235V7.41177H2.91176V6.44118ZM3.88235 6.44118H4.85294V7.41177H3.88235V6.44118ZM4.85294 6.44118H5.82353V7.41177H4.85294V6.44118ZM5.82353 6.44118H6.79412V7.41177H5.82353V6.44118ZM7.76471 6.44118H8.73529V7.41177H7.76471V6.44118ZM8.73529 6.44118H9.70588V7.41177H8.73529V6.44118ZM9.70588 6.44118H10.6765V7.41177H9.70588V6.44118ZM10.6765 6.44118H11.6471V7.41177H10.6765V6.44118ZM11.6471 6.44118H12.6176V7.41177H11.6471V6.44118ZM11.6471 7.41177H12.6176V8.38235H11.6471V7.41177ZM10.6765 7.41177H11.6471V8.38235H10.6765V7.41177ZM9.70588 7.41177H10.6765V8.38235H9.70588V7.41177ZM8.73529 7.41177H9.70588V8.38235H8.73529V7.41177ZM3.88235 7.41177H4.85294V8.38235H3.88235V7.41177ZM4.85294 7.41177H5.82353V8.38235H4.85294V7.41177ZM2.91176 5.47059H3.88235V6.44118H2.91176V5.47059ZM3.88235 5.47059H4.85294V6.44118H3.88235V5.47059ZM5.82353 5.47059H6.79412V6.44118H5.82353V5.47059ZM6.79412 5.47059H7.76471V6.44118H6.79412V5.47059ZM7.76471 5.47059H8.73529V6.44118H7.76471V5.47059ZM8.73529 5.47059H9.70588V6.44118H8.73529V5.47059ZM9.70588 5.47059H10.6765V6.44118H9.70588V5.47059ZM10.6765 5.47059H11.6471V6.44118H10.6765V5.47059ZM11.6471 5.47059H12.6176V6.44118H11.6471V5.47059ZM10.6765 4.5H11.6471V5.47059H10.6765V4.5ZM9.70588 4.5H10.6765V5.47059H9.70588V4.5ZM8.73529 4.5H9.70588V5.47059H8.73529V4.5ZM7.76471 4.5H8.73529V5.47059H7.76471V4.5ZM6.79412 4.5H7.76471V5.47059H6.79412V4.5ZM4.85294 5.47059H5.82353V6.44118H4.85294V5.47059ZM3.88235 4.5H4.85294V5.47059H3.88235V4.5ZM4.85294 4.5H5.82353V5.47059H4.85294V4.5ZM5.82353 4.5H6.79412V5.47059H5.82353V4.5ZM5.82353 3.52941H6.79412V4.5H5.82353V3.52941ZM4.85294 3.52941H5.82353V4.5H4.85294V3.52941ZM6.79412 3.52941H7.76471V4.5H6.79412V3.52941ZM7.76471 3.52941H8.73529V4.5H7.76471V3.52941ZM8.73529 3.52941H9.70588V4.5H8.73529V3.52941ZM9.70588 3.52941H10.6765V4.5H9.70588V3.52941ZM5.82353 2.55882H6.79412V3.52941H5.82353V2.55882ZM6.79412 2.55882H7.76471V3.52941H6.79412V2.55882ZM7.76471 2.55882H8.73529V3.52941H7.76471V2.55882ZM8.73529 2.55882H9.70588V3.52941H8.73529V2.55882ZM6.79412 1.58824H7.76471V2.55882H6.79412V1.58824ZM7.76471 1.58824H8.73529V2.55882H7.76471V1.58824ZM12.6176 6.44118H13.5882V7.41177H12.6176V6.44118ZM0.970588 6.44118H1.94118V7.41177H0.970588V6.44118ZM1.94118 5.47059H2.91176V6.44118H1.94118V5.47059ZM2.91176 4.5H3.88235V5.47059H2.91176V4.5ZM3.88235 3.52941H4.85294V4.5H3.88235V3.52941ZM4.85294 2.55882H5.82353V3.52941H4.85294V2.55882ZM5.82353 1.58824H6.79412V2.55882H5.82353V1.58824ZM9.70588 8.38235H10.6765V9.35294H9.70588V8.38235ZM9.70588 9.35294H10.6765V10.3235H9.70588V9.35294ZM9.70588 10.3235H10.6765V11.2941H9.70588V10.3235ZM9.70588 11.2941H10.6765V12.2647H9.70588V11.2941ZM9.70588 16.1471H10.6765V17.1176H9.70588V16.1471ZM9.70588 17.1176H10.6765V18.0882H9.70588V17.1176ZM9.70588 18.0882H10.6765V19.0588H9.70588V18.0882ZM9.70588 19.0588H10.6765V20.0294H9.70588V19.0588ZM9.70588 20.0294H10.6765V21H9.70588V20.0294ZM17.4744 7.41177H18.445V8.38235H17.4744V7.41177ZM17.4744 8.38235H18.445V9.35294H17.4744V8.38235ZM17.4744 9.35294H18.445V10.3235H17.4744V9.35294ZM17.4744 10.3235H18.445V11.2941H17.4744V10.3235ZM17.4744 11.2941H18.445V12.2647H17.4744V11.2941ZM16.5038 11.2941H17.4744V12.2647H16.5038V11.2941ZM16.5038 10.3235H17.4744V11.2941H16.5038V10.3235ZM16.5038 9.35294H17.4744V10.3235H16.5038V9.35294ZM16.5038 8.38235H17.4744V9.35294H16.5038V8.38235ZM16.5038 7.41177H17.4744V8.38235H16.5038V7.41177ZM16.5038 17.1176H17.4744V18.0882H16.5038V17.1176ZM16.5038 16.1471H17.4744V17.1176H16.5038V16.1471ZM16.5038 15.1765H17.4744V16.1471H16.5038V15.1765ZM16.5038 14.2059H17.4744V15.1765H16.5038V14.2059ZM17.4744 13.2353H18.445V14.2059H17.4744V13.2353ZM17.4744 12.2647H18.445V13.2353H17.4744V12.2647ZM16.5038 12.2647H17.4744V13.2353H16.5038V12.2647ZM16.5038 13.2353H17.4744V14.2059H16.5038V13.2353ZM16.5038 18.0882H17.4744V19.0588H16.5038V18.0882ZM16.5038 19.0588H17.4744V20.0294H16.5038V19.0588ZM16.5038 20.0294H17.4744V21H16.5038V20.0294ZM19.4156 7.41177H20.3861V8.38235H19.4156V7.41177ZM19.4156 8.38235H20.3861V9.35294H19.4156V8.38235ZM19.4156 9.35294H20.3861V10.3235H19.4156V9.35294ZM19.4156 10.3235H20.3861V11.2941H19.4156V10.3235ZM19.4156 11.2941H20.3861V12.2647H19.4156V11.2941ZM19.4156 12.2647H20.3861V13.2353H19.4156V12.2647ZM19.4156 13.2353H20.3861V14.2059H19.4156V13.2353ZM19.4156 14.2059H20.3861V15.1765H19.4156V14.2059ZM19.4156 15.1765H20.3861V16.1471H19.4156V15.1765ZM19.4156 16.1471H20.3861V17.1176H19.4156V16.1471ZM19.4156 17.1176H20.3861V18.0882H19.4156V17.1176ZM19.4156 18.0882H20.3861V19.0588H19.4156V18.0882ZM19.4156 19.0588H20.3861V20.0294H19.4156V19.0588ZM19.4156 20.0294H20.3861V21H19.4156V20.0294ZM18.445 20.0294H19.4156V21H18.445V20.0294ZM17.4744 20.0294H18.445V21H17.4744V20.0294ZM17.4744 19.0588H18.445V20.0294H17.4744V19.0588ZM18.445 19.0588H19.4156V20.0294H18.445V19.0588ZM18.445 18.0882H19.4156V19.0588H18.445V18.0882ZM17.4744 17.1176H18.445V18.0882H17.4744V17.1176ZM17.4744 16.1471H18.445V17.1176H17.4744V16.1471ZM17.4744 15.1765H18.445V16.1471H17.4744V15.1765ZM18.445 15.1765H19.4156V16.1471H18.445V15.1765ZM18.445 16.1471H19.4156V17.1176H18.445V16.1471ZM18.445 17.1176H19.4156V18.0882H18.445V17.1176ZM17.4744 18.0882H18.445V19.0588H17.4744V18.0882ZM18.445 14.2059H19.4156V15.1765H18.445V14.2059ZM18.445 13.2353H19.4156V14.2059H18.445V13.2353ZM18.445 12.2647H19.4156V13.2353H18.445V12.2647ZM17.4744 14.2059H18.445V15.1765H17.4744V14.2059ZM18.445 11.2941H19.4156V12.2647H18.445V11.2941ZM18.445 10.3235H19.4156V11.2941H18.445V10.3235ZM18.445 9.35294H19.4156V10.3235H18.445V9.35294ZM18.445 8.38235H19.4156V9.35294H18.445V8.38235ZM18.445 7.41177H19.4156V8.38235H18.445V7.41177ZM19.4156 1.58824H20.3861V2.55882H19.4156V1.58824ZM18.445 2.55882H19.4156V3.52941H18.445V2.55882ZM18.445 0.617647H19.4156V1.58824H18.445V0.617647ZM17.4744 1.58824H18.445V2.55882H17.4744V1.58824ZM18.445 1.58824H19.4156V2.55882H18.445V1.58824ZM17.4744 0.617647H18.445V1.58824H17.4744V0.617647ZM17.4744 2.55882H18.445V3.52941H17.4744V2.55882ZM19.4156 2.55882H20.3861V3.52941H19.4156V2.55882ZM16.5038 1.58824H17.4744V2.55882H16.5038V1.58824ZM16.5038 2.55882H17.4744V3.52941H16.5038V2.55882ZM17.4744 3.52941H18.445V4.5H17.4744V3.52941ZM18.445 3.52941H19.4156V4.5H18.445V3.52941ZM16.5038 0.617647H17.4744V1.58824H16.5038V0.617647ZM19.4156 0.617647H20.3861V1.58824H19.4156V0.617647ZM19.4156 3.52941H20.3861V4.5H19.4156V3.52941ZM16.5038 3.52941H17.4744V4.5H16.5038V3.52941ZM35.9212 6.44118H36.8918V7.41177H35.9212V6.44118ZM34.9507 6.44118H35.9212V7.41177H34.9507V6.44118ZM33.9801 6.44118H34.9507V7.41177H33.9801V6.44118ZM33.0095 6.44118H33.9801V7.41177H33.0095V6.44118ZM33.0095 5.47059H33.9801V6.44118H33.0095V5.47059ZM32.0389 5.47059H33.0095V6.44118H32.0389V5.47059ZM33.9801 5.47059H34.9507V6.44118H33.9801V5.47059ZM34.9507 5.47059H35.9212V6.44118H34.9507V5.47059ZM35.9212 5.47059H36.8918V6.44118H35.9212V5.47059ZM35.9212 4.5H36.8918V5.47059H35.9212V4.5ZM34.9507 4.5H35.9212V5.47059H34.9507V4.5ZM33.9801 4.5H34.9507V5.47059H33.9801V4.5ZM33.9801 3.52941H34.9507V4.5H33.9801V3.52941ZM34.9507 3.52941H35.9212V4.5H34.9507V3.52941ZM33.9801 2.55882H34.9507V3.52941H33.9801V2.55882ZM33.0095 2.55882H33.9801V3.52941H33.0095V2.55882ZM33.0095 3.52941H33.9801V4.5H33.0095V3.52941ZM34.9507 2.55882H35.9212V3.52941H34.9507V2.55882ZM32.0389 3.52941H33.0095V4.5H32.0389V3.52941ZM31.0683 4.5H32.0389V5.47059H31.0683V4.5ZM30.0977 4.5H31.0683V5.47059H30.0977V4.5ZM32.0389 4.5H33.0095V5.47059H32.0389V4.5ZM33.0095 4.5H33.9801V5.47059H33.0095V4.5ZM33.0095 1.58824H33.9801V2.55882H33.0095V1.58824ZM32.0389 1.58824H33.0095V2.55882H32.0389V1.58824ZM31.0683 1.58824H32.0389V2.55882H31.0683V1.58824ZM30.0977 1.58824H31.0683V2.55882H30.0977V1.58824ZM29.1271 1.58824H30.0977V2.55882H29.1271V1.58824ZM28.1565 1.58824H29.1271V2.55882H28.1565V1.58824ZM27.1859 1.58824H28.1565V2.55882H27.1859V1.58824ZM26.2154 1.58824H27.1859V2.55882H26.2154V1.58824ZM26.2154 2.55882H27.1859V3.52941H26.2154V2.55882ZM25.2448 2.55882H26.2154V3.52941H25.2448V2.55882ZM24.2742 2.55882H25.2448V3.52941H24.2742V2.55882ZM24.2742 3.52941H25.2448V4.5H24.2742V3.52941ZM25.2448 3.52941H26.2154V4.5H25.2448V3.52941ZM26.2154 3.52941H27.1859V4.5H26.2154V3.52941ZM27.1859 3.52941H28.1565V4.5H27.1859V3.52941ZM28.1565 3.52941H29.1271V4.5H28.1565V3.52941ZM29.1271 3.52941H30.0977V4.5H29.1271V3.52941ZM30.0977 3.52941H31.0683V4.5H30.0977V3.52941ZM31.0683 3.52941H32.0389V4.5H31.0683V3.52941ZM32.0389 2.55882H33.0095V3.52941H32.0389V2.55882ZM31.0683 2.55882H32.0389V3.52941H31.0683V2.55882ZM30.0977 2.55882H31.0683V3.52941H30.0977V2.55882ZM29.1271 2.55882H30.0977V3.52941H29.1271V2.55882ZM28.1565 2.55882H29.1271V3.52941H28.1565V2.55882ZM27.1859 2.55882H28.1565V3.52941H27.1859V2.55882ZM24.2742 4.5H25.2448V5.47059H24.2742V4.5ZM23.3036 4.5H24.2742V5.47059H23.3036V4.5ZM25.2448 4.5H26.2154V5.47059H25.2448V4.5ZM26.2154 4.5H27.1859V5.47059H26.2154V4.5ZM27.1859 4.5H28.1565V5.47059H27.1859V4.5ZM28.1565 4.5H29.1271V5.47059H28.1565V4.5ZM29.1271 4.5H30.0977V5.47059H29.1271V4.5ZM26.2154 5.47059H27.1859V6.44118H26.2154V5.47059ZM27.1859 5.47059H28.1565V6.44118H27.1859V5.47059ZM25.2448 5.47059H26.2154V6.44118H25.2448V5.47059ZM24.2742 5.47059H25.2448V6.44118H24.2742V5.47059ZM23.3036 5.47059H24.2742V6.44118H23.3036V5.47059ZM23.3036 6.44118H24.2742V7.41177H23.3036V6.44118ZM23.3036 7.41177H24.2742V8.38235H23.3036V7.41177ZM23.3036 8.38235H24.2742V9.35294H23.3036V8.38235ZM23.3036 9.35294H24.2742V10.3235H23.3036V9.35294ZM24.2742 8.38235H25.2448V9.35294H24.2742V8.38235ZM24.2742 7.41177H25.2448V8.38235H24.2742V7.41177ZM24.2742 6.44118H25.2448V7.41177H24.2742V6.44118ZM25.2448 6.44118H26.2154V7.41177H25.2448V6.44118ZM25.2448 7.41177H26.2154V8.38235H25.2448V7.41177ZM25.2448 8.38235H26.2154V9.35294H25.2448V8.38235ZM26.2154 8.38235H27.1859V9.35294H26.2154V8.38235ZM26.2154 7.41177H27.1859V8.38235H26.2154V7.41177ZM26.2154 6.44118H27.1859V7.41177H26.2154V6.44118ZM24.2742 9.35294H25.2448V10.3235H24.2742V9.35294ZM24.2742 10.3235H25.2448V11.2941H24.2742V10.3235ZM24.2742 11.2941H25.2448V12.2647H24.2742V11.2941ZM25.2448 11.2941H26.2154V12.2647H25.2448V11.2941ZM26.2154 11.2941H27.1859V12.2647H26.2154V11.2941ZM26.2154 10.3235H27.1859V11.2941H26.2154V10.3235ZM25.2448 10.3235H26.2154V11.2941H25.2448V10.3235ZM25.2448 9.35294H26.2154V10.3235H25.2448V9.35294ZM26.2154 9.35294H27.1859V10.3235H26.2154V9.35294ZM27.1859 8.38235H28.1565V9.35294H27.1859V8.38235ZM27.1859 9.35294H28.1565V10.3235H27.1859V9.35294ZM27.1859 10.3235H28.1565V11.2941H27.1859V10.3235ZM27.1859 11.2941H28.1565V12.2647H27.1859V11.2941ZM26.2154 12.2647H27.1859V13.2353H26.2154V12.2647ZM27.1859 12.2647H28.1565V13.2353H27.1859V12.2647ZM28.1565 12.2647H29.1271V13.2353H28.1565V12.2647ZM29.1271 12.2647H30.0977V13.2353H29.1271V12.2647ZM30.0977 12.2647H31.0683V13.2353H30.0977V12.2647ZM31.0683 12.2647H32.0389V13.2353H31.0683V12.2647ZM31.0683 11.2941H32.0389V12.2647H31.0683V11.2941ZM31.0683 10.3235H32.0389V11.2941H31.0683V10.3235ZM30.0977 9.35294H31.0683V10.3235H30.0977V9.35294ZM29.1271 9.35294H30.0977V10.3235H29.1271V9.35294ZM28.1565 9.35294H29.1271V10.3235H28.1565V9.35294ZM28.1565 10.3235H29.1271V11.2941H28.1565V10.3235ZM29.1271 10.3235H30.0977V11.2941H29.1271V10.3235ZM29.1271 11.2941H30.0977V12.2647H29.1271V11.2941ZM30.0977 11.2941H31.0683V12.2647H30.0977V11.2941ZM30.0977 10.3235H31.0683V11.2941H30.0977V10.3235ZM28.1565 11.2941H29.1271V12.2647H28.1565V11.2941ZM31.0683 9.35294H32.0389V10.3235H31.0683V9.35294ZM32.0389 9.35294H33.0095V10.3235H32.0389V9.35294ZM33.0095 9.35294H33.9801V10.3235H33.0095V9.35294ZM33.0095 10.3235H33.9801V11.2941H33.0095V10.3235ZM33.0095 11.2941H33.9801V12.2647H33.0095V11.2941ZM32.0389 11.2941H33.0095V12.2647H32.0389V11.2941ZM32.0389 10.3235H33.0095V11.2941H32.0389V10.3235ZM33.9801 11.2941H34.9507V12.2647H33.9801V11.2941ZM34.9507 11.2941H35.9212V12.2647H34.9507V11.2941ZM34.9507 10.3235H35.9212V11.2941H34.9507V10.3235ZM33.9801 10.3235H34.9507V11.2941H33.9801V10.3235ZM33.0095 12.2647H33.9801V13.2353H33.0095V12.2647ZM33.0095 13.2353H33.9801V14.2059H33.0095V13.2353ZM32.0389 13.2353H33.0095V14.2059H32.0389V13.2353ZM32.0389 12.2647H33.0095V13.2353H32.0389V12.2647ZM33.9801 13.2353H34.9507V14.2059H33.9801V13.2353ZM34.9507 13.2353H35.9212V14.2059H34.9507V13.2353ZM34.9507 12.2647H35.9212V13.2353H34.9507V12.2647ZM33.9801 12.2647H34.9507V13.2353H33.9801V12.2647ZM35.9212 12.2647H36.8918V13.2353H35.9212V12.2647ZM35.9212 13.2353H36.8918V14.2059H35.9212V13.2353ZM35.9212 14.2059H36.8918V15.1765H35.9212V14.2059ZM35.9212 15.1765H36.8918V16.1471H35.9212V15.1765ZM34.9507 15.1765H35.9212V16.1471H34.9507V15.1765ZM33.9801 15.1765H34.9507V16.1471H33.9801V15.1765ZM33.9801 14.2059H34.9507V15.1765H33.9801V14.2059ZM33.0095 14.2059H33.9801V15.1765H33.0095V14.2059ZM33.0095 15.1765H33.9801V16.1471H33.0095V15.1765ZM34.9507 14.2059H35.9212V15.1765H34.9507V14.2059ZM35.9212 16.1471H36.8918V17.1176H35.9212V16.1471ZM35.9212 17.1176H36.8918V18.0882H35.9212V17.1176ZM34.9507 17.1176H35.9212V18.0882H34.9507V17.1176ZM34.9507 18.0882H35.9212V19.0588H34.9507V18.0882ZM34.9507 19.0588H35.9212V20.0294H34.9507V19.0588ZM33.9801 19.0588H34.9507V20.0294H33.9801V19.0588ZM33.0095 19.0588H33.9801V20.0294H33.0095V19.0588ZM33.9801 18.0882H34.9507V19.0588H33.9801V18.0882ZM33.9801 17.1176H34.9507V18.0882H33.9801V17.1176ZM34.9507 16.1471H35.9212V17.1176H34.9507V16.1471ZM33.9801 16.1471H34.9507V17.1176H33.9801V16.1471ZM33.0095 16.1471H33.9801V17.1176H33.0095V16.1471ZM32.0389 16.1471H33.0095V17.1176H32.0389V16.1471ZM32.0389 17.1176H33.0095V18.0882H32.0389V17.1176ZM33.0095 18.0882H33.9801V19.0588H33.0095V18.0882ZM33.0095 17.1176H33.9801V18.0882H33.0095V17.1176ZM32.0389 18.0882H33.0095V19.0588H32.0389V18.0882ZM32.0389 19.0588H33.0095V20.0294H32.0389V19.0588ZM33.0095 20.0294H33.9801V21H33.0095V20.0294ZM32.0389 20.0294H33.0095V21H32.0389V20.0294ZM31.0683 20.0294H32.0389V21H31.0683V20.0294ZM30.0977 20.0294H31.0683V21H30.0977V20.0294ZM29.1271 20.0294H30.0977V21H29.1271V20.0294ZM28.1565 20.0294H29.1271V21H28.1565V20.0294ZM27.1859 20.0294H28.1565V21H27.1859V20.0294ZM27.1859 19.0588H28.1565V20.0294H27.1859V19.0588ZM26.2154 19.0588H27.1859V20.0294H26.2154V19.0588ZM26.2154 20.0294H27.1859V21H26.2154V20.0294ZM25.2448 19.0588H26.2154V20.0294H25.2448V19.0588ZM24.2742 19.0588H25.2448V20.0294H24.2742V19.0588ZM24.2742 18.0882H25.2448V19.0588H24.2742V18.0882ZM25.2448 18.0882H26.2154V19.0588H25.2448V18.0882ZM24.2742 17.1176H25.2448V18.0882H24.2742V17.1176ZM23.3036 17.1176H24.2742V18.0882H23.3036V17.1176ZM23.3036 16.1471H24.2742V17.1176H23.3036V16.1471ZM23.3036 15.1765H24.2742V16.1471H23.3036V15.1765ZM24.2742 15.1765H25.2448V16.1471H24.2742V15.1765ZM25.2448 15.1765H26.2154V16.1471H25.2448V15.1765ZM26.2154 15.1765H27.1859V16.1471H26.2154V15.1765ZM26.2154 16.1471H27.1859V17.1176H26.2154V16.1471ZM27.1859 16.1471H28.1565V17.1176H27.1859V16.1471ZM27.1859 17.1176H28.1565V18.0882H27.1859V17.1176ZM28.1565 17.1176H29.1271V18.0882H28.1565V17.1176ZM29.1271 17.1176H30.0977V18.0882H29.1271V17.1176ZM30.0977 17.1176H31.0683V18.0882H30.0977V17.1176ZM31.0683 18.0882H32.0389V19.0588H31.0683V18.0882ZM31.0683 17.1176H32.0389V18.0882H31.0683V17.1176ZM31.0683 19.0588H32.0389V20.0294H31.0683V19.0588ZM30.0977 19.0588H31.0683V20.0294H30.0977V19.0588ZM29.1271 19.0588H30.0977V20.0294H29.1271V19.0588ZM28.1565 19.0588H29.1271V20.0294H28.1565V19.0588ZM26.2154 18.0882H27.1859V19.0588H26.2154V18.0882ZM27.1859 18.0882H28.1565V19.0588H27.1859V18.0882ZM28.1565 18.0882H29.1271V19.0588H28.1565V18.0882ZM29.1271 18.0882H30.0977V19.0588H29.1271V18.0882ZM30.0977 18.0882H31.0683V19.0588H30.0977V18.0882ZM26.2154 17.1176H27.1859V18.0882H26.2154V17.1176ZM25.2448 17.1176H26.2154V18.0882H25.2448V17.1176ZM25.2448 16.1471H26.2154V17.1176H25.2448V16.1471ZM24.2742 16.1471H25.2448V17.1176H24.2742V16.1471ZM52.4212 21H51.4507V20.0294H52.4212V21ZM51.4507 21H50.4801V20.0294H51.4507V21ZM50.4801 21H49.5095V20.0294H50.4801V21ZM52.4212 19.0588H51.4507V18.0882H52.4212V19.0588ZM52.4212 20.0294H51.4507V19.0588H52.4212V20.0294ZM50.4801 7.41177H49.5095V6.44118H50.4801V7.41177ZM51.4507 7.41177H50.4801V6.44118H51.4507V7.41177ZM52.4212 8.38235H51.4507V7.41177H52.4212V8.38235ZM52.4212 9.35294H51.4507V8.38235H52.4212V9.35294ZM52.4212 7.41177H51.4507V6.44118H52.4212V7.41177ZM47.5683 21H46.5977V20.0294H47.5683V21ZM49.5095 21H48.5389V20.0294H49.5095V21ZM46.5977 21H45.6271V20.0294H46.5977V21ZM45.6271 21H44.6565V20.0294H45.6271V21ZM44.6565 21H43.6859V20.0294H44.6565V21ZM43.6859 21H42.7154V20.0294H43.6859V21ZM42.7154 20.0294H41.7448V19.0588H42.7154V20.0294ZM43.6859 20.0294H42.7154V19.0588H43.6859V20.0294ZM43.6859 19.0588H42.7154V18.0882H43.6859V19.0588ZM41.7448 20.0294H40.7742V19.0588H41.7448V20.0294ZM41.7448 19.0588H40.7742V18.0882H41.7448V19.0588ZM42.7154 19.0588H41.7448V18.0882H42.7154V19.0588ZM43.6859 18.0882H42.7154V17.1176H43.6859V18.0882ZM44.6565 18.0882H43.6859V17.1176H44.6565V18.0882ZM42.7154 18.0882H41.7448V17.1176H42.7154V18.0882ZM41.7448 18.0882H40.7742V17.1176H41.7448V18.0882ZM40.7742 18.0882H39.8036V17.1176H40.7742V18.0882ZM40.7742 17.1176H39.8036V16.1471H40.7742V17.1176ZM40.7742 16.1471H39.8036V15.1765H40.7742V16.1471ZM40.7742 15.1765H39.8036V14.2059H40.7742V15.1765ZM40.7742 14.2059H39.8036V13.2353H40.7742V14.2059ZM40.7742 13.2353H39.8036V12.2647H40.7742V13.2353ZM40.7742 12.2647H39.8036V11.2941H40.7742V12.2647ZM40.7742 11.2941H39.8036V10.3235H40.7742V11.2941ZM40.7742 10.3235H39.8036V9.35294H40.7742V10.3235ZM41.7448 10.3235H40.7742V9.35294H41.7448V10.3235ZM41.7448 9.35294H40.7742V8.38235H41.7448V9.35294ZM41.7448 8.38235H40.7742V7.41177H41.7448V8.38235ZM42.7154 8.38235H41.7448V7.41177H42.7154V8.38235ZM43.6859 8.38235H42.7154V7.41177H43.6859V8.38235ZM43.6859 10.3235H42.7154V9.35294H43.6859V10.3235ZM43.6859 9.35294H42.7154V8.38235H43.6859V9.35294ZM42.7154 9.35294H41.7448V8.38235H42.7154V9.35294ZM42.7154 10.3235H41.7448V9.35294H42.7154V10.3235ZM42.7154 11.2941H41.7448V10.3235H42.7154V11.2941ZM43.6859 11.2941H42.7154V10.3235H43.6859V11.2941ZM43.6859 12.2647H42.7154V11.2941H43.6859V12.2647ZM43.6859 13.2353H42.7154V12.2647H43.6859V13.2353ZM43.6859 14.2059H42.7154V13.2353H43.6859V14.2059ZM43.6859 15.1765H42.7154V14.2059H43.6859V15.1765ZM43.6859 16.1471H42.7154V15.1765H43.6859V16.1471ZM43.6859 17.1176H42.7154V16.1471H43.6859V17.1176ZM42.7154 17.1176H41.7448V16.1471H42.7154V17.1176ZM42.7154 16.1471H41.7448V15.1765H42.7154V16.1471ZM42.7154 15.1765H41.7448V14.2059H42.7154V15.1765ZM42.7154 14.2059H41.7448V13.2353H42.7154V14.2059ZM42.7154 13.2353H41.7448V12.2647H42.7154V13.2353ZM42.7154 12.2647H41.7448V11.2941H42.7154V12.2647ZM41.7448 11.2941H40.7742V10.3235H41.7448V11.2941ZM41.7448 12.2647H40.7742V11.2941H41.7448V12.2647ZM41.7448 13.2353H40.7742V12.2647H41.7448V13.2353ZM41.7448 14.2059H40.7742V13.2353H41.7448V14.2059ZM41.7448 15.1765H40.7742V14.2059H41.7448V15.1765ZM41.7448 16.1471H40.7742V15.1765H41.7448V16.1471ZM41.7448 17.1176H40.7742V16.1471H41.7448V17.1176ZM43.6859 7.41177H42.7154V6.44118H43.6859V7.41177ZM49.5095 7.41177H48.5389V6.44118H49.5095V7.41177ZM49.5095 8.38235H48.5389V7.41177H49.5095V8.38235ZM50.4801 8.38235H49.5095V7.41177H50.4801V8.38235ZM51.4507 8.38235H50.4801V7.41177H51.4507V8.38235ZM51.4507 16.1471H50.4801V15.1765H51.4507V16.1471ZM51.4507 17.1176H50.4801V16.1471H51.4507V17.1176ZM52.4212 18.0882H51.4507V17.1176H52.4212V18.0882ZM51.4507 19.0588H50.4801V18.0882H51.4507V19.0588ZM50.4801 20.0294H49.5095V19.0588H50.4801V20.0294ZM49.5095 20.0294H48.5389V19.0588H49.5095V20.0294ZM48.5389 20.0294H47.5683V19.0588H48.5389V20.0294ZM48.5389 19.0588H47.5683V18.0882H48.5389V19.0588ZM48.5389 18.0882H47.5683V17.1176H48.5389V18.0882ZM49.5095 18.0882H48.5389V17.1176H49.5095V18.0882ZM50.4801 18.0882H49.5095V17.1176H50.4801V18.0882ZM49.5095 17.1176H48.5389V16.1471H49.5095V17.1176ZM49.5095 16.1471H48.5389V15.1765H49.5095V16.1471ZM49.5095 15.1765H48.5389V14.2059H49.5095V15.1765ZM49.5095 9.35294H48.5389V8.38235H49.5095V9.35294ZM50.4801 9.35294H49.5095V8.38235H50.4801V9.35294ZM50.4801 16.1471H49.5095V15.1765H50.4801V16.1471ZM50.4801 17.1176H49.5095V16.1471H50.4801V17.1176ZM50.4801 19.0588H49.5095V18.0882H50.4801V19.0588ZM49.5095 19.0588H48.5389V18.0882H49.5095V19.0588ZM47.5683 20.0294H46.5977V19.0588H47.5683V20.0294ZM46.5977 20.0294H45.6271V19.0588H46.5977V20.0294ZM45.6271 20.0294H44.6565V19.0588H45.6271V20.0294ZM44.6565 20.0294H43.6859V19.0588H44.6565V20.0294ZM44.6565 19.0588H43.6859V18.0882H44.6565V19.0588ZM45.6271 19.0588H44.6565V18.0882H45.6271V19.0588ZM46.5977 19.0588H45.6271V18.0882H46.5977V19.0588ZM47.5683 19.0588H46.5977V18.0882H47.5683V19.0588ZM51.4507 20.0294H50.4801V19.0588H51.4507V20.0294ZM51.4507 9.35294H50.4801V8.38235H51.4507V9.35294ZM51.4507 18.0882H50.4801V17.1176H51.4507V18.0882ZM52.4212 17.1176H51.4507V16.1471H52.4212V17.1176ZM52.4212 16.1471H51.4507V15.1765H52.4212V16.1471ZM52.4212 10.3235H51.4507V9.35294H52.4212V10.3235ZM51.4507 10.3235H50.4801V9.35294H51.4507V10.3235ZM50.4801 10.3235H49.5095V9.35294H50.4801V10.3235ZM49.5095 10.3235H48.5389V9.35294H49.5095V10.3235ZM50.4801 15.1765H49.5095V14.2059H50.4801V15.1765ZM51.4507 15.1765H50.4801V14.2059H51.4507V15.1765ZM52.4212 15.1765H51.4507V14.2059H52.4212V15.1765ZM52.4212 14.2059H51.4507V13.2353H52.4212V14.2059ZM52.4212 13.2353H51.4507V12.2647H52.4212V13.2353ZM52.4212 12.2647H51.4507V11.2941H52.4212V12.2647ZM51.4507 12.2647H50.4801V11.2941H51.4507V12.2647ZM51.4507 11.2941H50.4801V10.3235H51.4507V11.2941ZM50.4801 11.2941H49.5095V10.3235H50.4801V11.2941ZM52.4212 11.2941H51.4507V10.3235H52.4212V11.2941ZM49.5095 11.2941H48.5389V10.3235H49.5095V11.2941ZM49.5095 12.2647H48.5389V11.2941H49.5095V12.2647ZM49.5095 13.2353H48.5389V12.2647H49.5095V13.2353ZM49.5095 14.2059H48.5389V13.2353H49.5095V14.2059ZM50.4801 14.2059H49.5095V13.2353H50.4801V14.2059ZM51.4507 14.2059H50.4801V13.2353H51.4507V14.2059ZM51.4507 13.2353H50.4801V12.2647H51.4507V13.2353ZM50.4801 12.2647H49.5095V11.2941H50.4801V12.2647ZM50.4801 13.2353H49.5095V12.2647H50.4801V13.2353ZM42.7154 7.41177H41.7448V6.44118H42.7154V7.41177ZM41.7448 7.41177H40.7742V6.44118H41.7448V7.41177ZM40.7742 7.41177H39.8036V6.44118H40.7742V7.41177ZM40.7742 8.38235H39.8036V7.41177H40.7742V8.38235ZM40.7742 9.35294H39.8036V8.38235H40.7742V9.35294ZM55.3368 6.44118H56.3074V7.41177H55.3368V6.44118ZM56.3074 6.44118H57.278V7.41177H56.3074V6.44118ZM57.278 6.44118H58.2486V7.41177H57.278V6.44118ZM55.3368 8.38235H56.3074V9.35294H55.3368V8.38235ZM55.3368 7.41177H56.3074V8.38235H55.3368V7.41177ZM57.278 20.0294H58.2486V21H57.278V20.0294ZM56.3074 20.0294H57.278V21H56.3074V20.0294ZM55.3368 19.0588H56.3074V20.0294H55.3368V19.0588ZM55.3368 18.0882H56.3074V19.0588H55.3368V18.0882ZM55.3368 20.0294H56.3074V21H55.3368V20.0294ZM60.1897 6.44118H61.1603V7.41177H60.1897V6.44118ZM58.2486 6.44118H59.2192V7.41177H58.2486V6.44118ZM62.1309 6.44118H63.1015V7.41177H62.1309V6.44118ZM63.1015 7.41177H64.0721V8.38235H63.1015V7.41177ZM62.1309 7.41177H63.1015V8.38235H62.1309V7.41177ZM62.1309 8.38235H63.1015V9.35294H62.1309V8.38235ZM64.0721 8.38235H65.0427V9.35294H64.0721V8.38235ZM63.1015 8.38235H64.0721V9.35294H63.1015V8.38235ZM62.1309 9.35294H63.1015V10.3235H62.1309V9.35294ZM61.1603 9.35294H62.1309V10.3235H61.1603V9.35294ZM63.1015 9.35294H64.0721V10.3235H63.1015V9.35294ZM64.0721 9.35294H65.0427V10.3235H64.0721V9.35294ZM65.0427 10.3235H66.0133V11.2941H65.0427V10.3235ZM65.0427 11.2941H66.0133V12.2647H65.0427V11.2941ZM65.0427 12.2647H66.0133V13.2353H65.0427V12.2647ZM65.0427 13.2353H66.0133V14.2059H65.0427V13.2353ZM65.0427 14.2059H66.0133V15.1765H65.0427V14.2059ZM65.0427 15.1765H66.0133V16.1471H65.0427V15.1765ZM65.0427 16.1471H66.0133V17.1176H65.0427V16.1471ZM65.0427 17.1176H66.0133V18.0882H65.0427V17.1176ZM64.0721 17.1176H65.0427V18.0882H64.0721V17.1176ZM64.0721 18.0882H65.0427V19.0588H64.0721V18.0882ZM64.0721 19.0588H65.0427V20.0294H64.0721V19.0588ZM63.1015 19.0588H64.0721V20.0294H63.1015V19.0588ZM62.1309 19.0588H63.1015V20.0294H62.1309V19.0588ZM62.1309 17.1176H63.1015V18.0882H62.1309V17.1176ZM62.1309 18.0882H63.1015V19.0588H62.1309V18.0882ZM63.1015 18.0882H64.0721V19.0588H63.1015V18.0882ZM63.1015 17.1176H64.0721V18.0882H63.1015V17.1176ZM63.1015 16.1471H64.0721V17.1176H63.1015V16.1471ZM62.1309 16.1471H63.1015V17.1176H62.1309V16.1471ZM62.1309 15.1765H63.1015V16.1471H62.1309V15.1765ZM62.1309 14.2059H63.1015V15.1765H62.1309V14.2059ZM62.1309 13.2353H63.1015V14.2059H62.1309V13.2353ZM62.1309 12.2647H63.1015V13.2353H62.1309V12.2647ZM62.1309 11.2941H63.1015V12.2647H62.1309V11.2941ZM62.1309 10.3235H63.1015V11.2941H62.1309V10.3235ZM63.1015 10.3235H64.0721V11.2941H63.1015V10.3235ZM63.1015 11.2941H64.0721V12.2647H63.1015V11.2941ZM63.1015 12.2647H64.0721V13.2353H63.1015V12.2647ZM63.1015 13.2353H64.0721V14.2059H63.1015V13.2353ZM63.1015 14.2059H64.0721V15.1765H63.1015V14.2059ZM63.1015 15.1765H64.0721V16.1471H63.1015V15.1765ZM64.0721 16.1471H65.0427V17.1176H64.0721V16.1471ZM64.0721 15.1765H65.0427V16.1471H64.0721V15.1765ZM64.0721 14.2059H65.0427V15.1765H64.0721V14.2059ZM64.0721 13.2353H65.0427V14.2059H64.0721V13.2353ZM64.0721 12.2647H65.0427V13.2353H64.0721V12.2647ZM64.0721 11.2941H65.0427V12.2647H64.0721V11.2941ZM64.0721 10.3235H65.0427V11.2941H64.0721V10.3235ZM62.1309 20.0294H63.1015V21H62.1309V20.0294ZM58.2486 20.0294H59.2192V21H58.2486V20.0294ZM58.2486 19.0588H59.2192V20.0294H58.2486V19.0588ZM57.278 19.0588H58.2486V20.0294H57.278V19.0588ZM56.3074 19.0588H57.278V20.0294H56.3074V19.0588ZM56.3074 11.2941H57.278V12.2647H56.3074V11.2941ZM56.3074 10.3235H57.278V11.2941H56.3074V10.3235ZM55.3368 9.35294H56.3074V10.3235H55.3368V9.35294ZM56.3074 8.38235H57.278V9.35294H56.3074V8.38235ZM57.278 7.41177H58.2486V8.38235H57.278V7.41177ZM58.2486 7.41177H59.2192V8.38235H58.2486V7.41177ZM59.2192 7.41177H60.1897V8.38235H59.2192V7.41177ZM59.2192 8.38235H60.1897V9.35294H59.2192V8.38235ZM59.2192 9.35294H60.1897V10.3235H59.2192V9.35294ZM58.2486 9.35294H59.2192V10.3235H58.2486V9.35294ZM57.278 9.35294H58.2486V10.3235H57.278V9.35294ZM58.2486 10.3235H59.2192V11.2941H58.2486V10.3235ZM58.2486 11.2941H59.2192V12.2647H58.2486V11.2941ZM58.2486 12.2647H59.2192V13.2353H58.2486V12.2647ZM58.2486 18.0882H59.2192V19.0588H58.2486V18.0882ZM57.278 18.0882H58.2486V19.0588H57.278V18.0882ZM57.278 11.2941H58.2486V12.2647H57.278V11.2941ZM57.278 10.3235H58.2486V11.2941H57.278V10.3235ZM57.278 8.38235H58.2486V9.35294H57.278V8.38235ZM58.2486 8.38235H59.2192V9.35294H58.2486V8.38235ZM60.1897 7.41177H61.1603V8.38235H60.1897V7.41177ZM61.1603 7.41177H62.1309V8.38235H61.1603V7.41177ZM61.1603 8.38235H62.1309V9.35294H61.1603V8.38235ZM60.1897 8.38235H61.1603V9.35294H60.1897V8.38235ZM56.3074 7.41177H57.278V8.38235H56.3074V7.41177ZM56.3074 18.0882H57.278V19.0588H56.3074V18.0882ZM56.3074 9.35294H57.278V10.3235H56.3074V9.35294ZM55.3368 10.3235H56.3074V11.2941H55.3368V10.3235ZM55.3368 11.2941H56.3074V12.2647H55.3368V11.2941ZM55.3368 17.1176H56.3074V18.0882H55.3368V17.1176ZM56.3074 17.1176H57.278V18.0882H56.3074V17.1176ZM57.278 17.1176H58.2486V18.0882H57.278V17.1176ZM58.2486 17.1176H59.2192V18.0882H58.2486V17.1176ZM57.278 12.2647H58.2486V13.2353H57.278V12.2647ZM56.3074 12.2647H57.278V13.2353H56.3074V12.2647ZM55.3368 12.2647H56.3074V13.2353H55.3368V12.2647ZM55.3368 13.2353H56.3074V14.2059H55.3368V13.2353ZM55.3368 14.2059H56.3074V15.1765H55.3368V14.2059ZM55.3368 15.1765H56.3074V16.1471H55.3368V15.1765ZM56.3074 15.1765H57.278V16.1471H56.3074V15.1765ZM56.3074 16.1471H57.278V17.1176H56.3074V16.1471ZM57.278 16.1471H58.2486V17.1176H57.278V16.1471ZM55.3368 16.1471H56.3074V17.1176H55.3368V16.1471ZM58.2486 16.1471H59.2192V17.1176H58.2486V16.1471ZM58.2486 15.1765H59.2192V16.1471H58.2486V15.1765ZM58.2486 14.2059H59.2192V15.1765H58.2486V14.2059ZM58.2486 13.2353H59.2192V14.2059H58.2486V13.2353ZM57.278 13.2353H58.2486V14.2059H57.278V13.2353ZM56.3074 13.2353H57.278V14.2059H56.3074V13.2353ZM56.3074 14.2059H57.278V15.1765H56.3074V14.2059ZM57.278 15.1765H58.2486V16.1471H57.278V15.1765ZM57.278 14.2059H58.2486V15.1765H57.278V14.2059ZM63.1015 20.0294H64.0721V21H63.1015V20.0294ZM64.0721 20.0294H65.0427V21H64.0721V20.0294ZM65.0427 20.0294H66.0133V21H65.0427V20.0294ZM65.0427 19.0588H66.0133V20.0294H65.0427V19.0588ZM65.0427 18.0882H66.0133V19.0588H65.0427V18.0882ZM66.0133 6.44118H66.9839V7.41177H66.0133V6.44118ZM66.9839 6.44118H67.9544V7.41177H66.9839V6.44118ZM67.9544 6.44118H68.925V7.41177H67.9544V6.44118ZM68.925 6.44118H69.8956V7.41177H68.925V6.44118ZM69.8956 7.41177H70.8662V8.38235H69.8956V7.41177ZM68.925 7.41177H69.8956V8.38235H68.925V7.41177ZM68.925 8.38235H69.8956V9.35294H68.925V8.38235ZM70.8662 7.41177H71.8368V8.38235H70.8662V7.41177ZM70.8662 8.38235H71.8368V9.35294H70.8662V8.38235ZM69.8956 8.38235H70.8662V9.35294H69.8956V8.38235ZM68.925 9.35294H69.8956V10.3235H68.925V9.35294ZM67.9544 9.35294H68.925V10.3235H67.9544V9.35294ZM69.8956 9.35294H70.8662V10.3235H69.8956V9.35294ZM70.8662 9.35294H71.8368V10.3235H70.8662V9.35294ZM71.8368 9.35294H72.8074V10.3235H71.8368V9.35294ZM71.8368 10.3235H72.8074V11.2941H71.8368V10.3235ZM71.8368 11.2941H72.8074V12.2647H71.8368V11.2941ZM71.8368 12.2647H72.8074V13.2353H71.8368V12.2647ZM71.8368 13.2353H72.8074V14.2059H71.8368V13.2353ZM71.8368 14.2059H72.8074V15.1765H71.8368V14.2059ZM71.8368 15.1765H72.8074V16.1471H71.8368V15.1765ZM71.8368 16.1471H72.8074V17.1176H71.8368V16.1471ZM71.8368 17.1176H72.8074V18.0882H71.8368V17.1176ZM70.8662 17.1176H71.8368V18.0882H70.8662V17.1176ZM70.8662 18.0882H71.8368V19.0588H70.8662V18.0882ZM70.8662 19.0588H71.8368V20.0294H70.8662V19.0588ZM69.8956 19.0588H70.8662V20.0294H69.8956V19.0588ZM68.925 19.0588H69.8956V20.0294H68.925V19.0588ZM68.925 17.1176H69.8956V18.0882H68.925V17.1176ZM68.925 18.0882H69.8956V19.0588H68.925V18.0882ZM69.8956 18.0882H70.8662V19.0588H69.8956V18.0882ZM69.8956 17.1176H70.8662V18.0882H69.8956V17.1176ZM69.8956 16.1471H70.8662V17.1176H69.8956V16.1471ZM68.925 16.1471H69.8956V17.1176H68.925V16.1471ZM68.925 15.1765H69.8956V16.1471H68.925V15.1765ZM68.925 14.2059H69.8956V15.1765H68.925V14.2059ZM68.925 13.2353H69.8956V14.2059H68.925V13.2353ZM68.925 12.2647H69.8956V13.2353H68.925V12.2647ZM68.925 11.2941H69.8956V12.2647H68.925V11.2941ZM68.925 10.3235H69.8956V11.2941H68.925V10.3235ZM69.8956 10.3235H70.8662V11.2941H69.8956V10.3235ZM69.8956 11.2941H70.8662V12.2647H69.8956V11.2941ZM69.8956 12.2647H70.8662V13.2353H69.8956V12.2647ZM69.8956 13.2353H70.8662V14.2059H69.8956V13.2353ZM69.8956 14.2059H70.8662V15.1765H69.8956V14.2059ZM69.8956 15.1765H70.8662V16.1471H69.8956V15.1765ZM70.8662 16.1471H71.8368V17.1176H70.8662V16.1471ZM70.8662 15.1765H71.8368V16.1471H70.8662V15.1765ZM70.8662 14.2059H71.8368V15.1765H70.8662V14.2059ZM70.8662 13.2353H71.8368V14.2059H70.8662V13.2353ZM70.8662 12.2647H71.8368V13.2353H70.8662V12.2647ZM70.8662 11.2941H71.8368V12.2647H70.8662V11.2941ZM70.8662 10.3235H71.8368V11.2941H70.8662V10.3235ZM68.925 20.0294H69.8956V21H68.925V20.0294ZM65.0427 7.41177H66.0133V8.38235H65.0427V7.41177ZM65.0427 8.38235H66.0133V9.35294H65.0427V8.38235ZM65.0427 9.35294H66.0133V10.3235H65.0427V9.35294ZM66.0133 7.41177H66.9839V8.38235H66.0133V7.41177ZM66.9839 7.41177H67.9544V8.38235H66.9839V7.41177ZM67.9544 7.41177H68.925V8.38235H67.9544V7.41177ZM67.9544 8.38235H68.925V9.35294H67.9544V8.38235ZM66.9839 8.38235H67.9544V9.35294H66.9839V8.38235ZM66.0133 8.38235H66.9839V9.35294H66.0133V8.38235ZM69.8956 20.0294H70.8662V21H69.8956V20.0294ZM70.8662 20.0294H71.8368V21H70.8662V20.0294ZM71.8368 20.0294H72.8074V21H71.8368V20.0294ZM71.8368 19.0588H72.8074V20.0294H71.8368V19.0588ZM71.8368 18.0882H72.8074V19.0588H71.8368V18.0882ZM61.1603 6.44118H62.1309V7.41177H61.1603V6.44118ZM66.0133 9.35294H66.9839V10.3235H66.0133V9.35294ZM87.351 17.1176H88.3216V18.0882H87.351V17.1176ZM86.3805 17.1176H87.351V18.0882H86.3805V17.1176ZM85.4099 17.1176H86.3805V18.0882H85.4099V17.1176ZM85.4099 18.0882H86.3805V19.0588H85.4099V18.0882ZM86.3805 18.0882H87.351V19.0588H86.3805V18.0882ZM85.4099 19.0588H86.3805V20.0294H85.4099V19.0588ZM84.4393 19.0588H85.4099V20.0294H84.4393V19.0588ZM86.3805 19.0588H87.351V20.0294H86.3805V19.0588ZM84.4393 20.0294H85.4099V21H84.4393V20.0294ZM83.4687 20.0294H84.4393V21H83.4687V20.0294ZM82.4981 20.0294H83.4687V21H82.4981V20.0294ZM81.5275 20.0294H82.4981V21H81.5275V20.0294ZM80.5569 20.0294H81.5275V21H80.5569V20.0294ZM79.5863 20.0294H80.5569V21H79.5863V20.0294ZM78.6158 20.0294H79.5863V21H78.6158V20.0294ZM78.6158 19.0588H79.5863V20.0294H78.6158V19.0588ZM77.6452 19.0588H78.6158V20.0294H77.6452V19.0588ZM76.6746 19.0588H77.6452V20.0294H76.6746V19.0588ZM76.6746 18.0882H77.6452V19.0588H76.6746V18.0882ZM77.6452 18.0882H78.6158V19.0588H77.6452V18.0882ZM78.6158 18.0882H79.5863V19.0588H78.6158V18.0882ZM79.5863 18.0882H80.5569V19.0588H79.5863V18.0882ZM80.5569 18.0882H81.5275V19.0588H80.5569V18.0882ZM81.5275 18.0882H82.4981V19.0588H81.5275V18.0882ZM82.4981 18.0882H83.4687V19.0588H82.4981V18.0882ZM83.4687 18.0882H84.4393V19.0588H83.4687V18.0882ZM84.4393 18.0882H85.4099V19.0588H84.4393V18.0882ZM83.4687 19.0588H84.4393V20.0294H83.4687V19.0588ZM82.4981 19.0588H83.4687V20.0294H82.4981V19.0588ZM81.5275 19.0588H82.4981V20.0294H81.5275V19.0588ZM80.5569 19.0588H81.5275V20.0294H80.5569V19.0588ZM79.5863 19.0588H80.5569V20.0294H79.5863V19.0588ZM77.6452 17.1176H78.6158V18.0882H77.6452V17.1176ZM76.6746 17.1176H77.6452V18.0882H76.6746V17.1176ZM75.704 17.1176H76.6746V18.0882H75.704V17.1176ZM77.6452 16.1471H78.6158V17.1176H77.6452V16.1471ZM78.6158 16.1471H79.5863V17.1176H78.6158V16.1471ZM79.5863 17.1176H80.5569V18.0882H79.5863V17.1176ZM78.6158 17.1176H79.5863V18.0882H78.6158V17.1176ZM76.6746 16.1471H77.6452V17.1176H76.6746V16.1471ZM76.6746 15.1765H77.6452V16.1471H76.6746V15.1765ZM75.704 15.1765H76.6746V16.1471H75.704V15.1765ZM75.704 14.2059H76.6746V15.1765H75.704V14.2059ZM75.704 16.1471H76.6746V17.1176H75.704V16.1471ZM75.704 13.2353H76.6746V14.2059H75.704V13.2353ZM76.6746 13.2353H77.6452V14.2059H76.6746V13.2353ZM77.6452 13.2353H78.6158V14.2059H77.6452V13.2353ZM78.6158 13.2353H79.5863V14.2059H78.6158V13.2353ZM78.6158 14.2059H79.5863V15.1765H78.6158V14.2059ZM78.6158 15.1765H79.5863V16.1471H78.6158V15.1765ZM77.6452 14.2059H78.6158V15.1765H77.6452V14.2059ZM76.6746 14.2059H77.6452V15.1765H76.6746V14.2059ZM77.6452 15.1765H78.6158V16.1471H77.6452V15.1765ZM80.5569 17.1176H81.5275V18.0882H80.5569V17.1176ZM81.5275 17.1176H82.4981V18.0882H81.5275V17.1176ZM82.4981 17.1176H83.4687V18.0882H82.4981V17.1176ZM83.4687 17.1176H84.4393V18.0882H83.4687V17.1176ZM84.4393 17.1176H85.4099V18.0882H84.4393V17.1176ZM84.4393 16.1471H85.4099V17.1176H84.4393V16.1471ZM83.4687 16.1471H84.4393V17.1176H83.4687V16.1471ZM85.4099 16.1471H86.3805V17.1176H85.4099V16.1471ZM86.3805 16.1471H87.351V17.1176H86.3805V16.1471ZM86.3805 15.1765H87.351V16.1471H86.3805V15.1765ZM87.351 15.1765H88.3216V16.1471H87.351V15.1765ZM87.351 14.2059H88.3216V15.1765H87.351V14.2059ZM87.351 16.1471H88.3216V17.1176H87.351V16.1471ZM87.351 13.2353H88.3216V14.2059H87.351V13.2353ZM87.351 12.2647H88.3216V13.2353H87.351V12.2647ZM87.351 11.2941H88.3216V12.2647H87.351V11.2941ZM87.351 10.3235H88.3216V11.2941H87.351V10.3235ZM87.351 9.35294H88.3216V10.3235H87.351V9.35294ZM86.3805 9.35294H87.351V10.3235H86.3805V9.35294ZM86.3805 8.38235H87.351V9.35294H86.3805V8.38235ZM85.4099 9.35294H86.3805V10.3235H85.4099V9.35294ZM84.4393 9.35294H85.4099V10.3235H84.4393V9.35294ZM84.4393 10.3235H85.4099V11.2941H84.4393V10.3235ZM84.4393 11.2941H85.4099V12.2647H84.4393V11.2941ZM84.4393 12.2647H85.4099V13.2353H84.4393V12.2647ZM84.4393 13.2353H85.4099V14.2059H84.4393V13.2353ZM84.4393 14.2059H85.4099V15.1765H84.4393V14.2059ZM84.4393 15.1765H85.4099V16.1471H84.4393V15.1765ZM85.4099 15.1765H86.3805V16.1471H85.4099V15.1765ZM85.4099 14.2059H86.3805V15.1765H85.4099V14.2059ZM86.3805 14.2059H87.351V15.1765H86.3805V14.2059ZM86.3805 13.2353H87.351V14.2059H86.3805V13.2353ZM86.3805 12.2647H87.351V13.2353H86.3805V12.2647ZM86.3805 11.2941H87.351V12.2647H86.3805V11.2941ZM85.4099 10.3235H86.3805V11.2941H85.4099V10.3235ZM85.4099 11.2941H86.3805V12.2647H85.4099V11.2941ZM85.4099 12.2647H86.3805V13.2353H85.4099V12.2647ZM85.4099 13.2353H86.3805V14.2059H85.4099V13.2353ZM86.3805 10.3235H87.351V11.2941H86.3805V10.3235ZM87.351 8.38235H88.3216V9.35294H87.351V8.38235ZM87.351 7.41177H88.3216V8.38235H87.351V7.41177ZM87.351 6.44118H88.3216V7.41177H87.351V6.44118ZM87.351 5.47059H88.3216V6.44118H87.351V5.47059ZM87.351 4.5H88.3216V5.47059H87.351V4.5ZM86.3805 4.5H87.351V5.47059H86.3805V4.5ZM86.3805 3.52941H87.351V4.5H86.3805V3.52941ZM86.3805 2.55882H87.351V3.52941H86.3805V2.55882ZM85.4099 2.55882H86.3805V3.52941H85.4099V2.55882ZM84.4393 2.55882H85.4099V3.52941H84.4393V2.55882ZM85.4099 8.38235H86.3805V9.35294H85.4099V8.38235ZM85.4099 7.41177H86.3805V8.38235H85.4099V7.41177ZM85.4099 6.44118H86.3805V7.41177H85.4099V6.44118ZM86.3805 6.44118H87.351V7.41177H86.3805V6.44118ZM86.3805 5.47059H87.351V6.44118H86.3805V5.47059ZM86.3805 7.41177H87.351V8.38235H86.3805V7.41177ZM84.4393 8.38235H85.4099V9.35294H84.4393V8.38235ZM84.4393 7.41177H85.4099V8.38235H84.4393V7.41177ZM85.4099 5.47059H86.3805V6.44118H85.4099V5.47059ZM84.4393 5.47059H85.4099V6.44118H84.4393V5.47059ZM84.4393 6.44118H85.4099V7.41177H84.4393V6.44118ZM83.4687 5.47059H84.4393V6.44118H83.4687V5.47059ZM83.4687 4.5H84.4393V5.47059H83.4687V4.5ZM84.4393 3.52941H85.4099V4.5H84.4393V3.52941ZM85.4099 3.52941H86.3805V4.5H85.4099V3.52941ZM85.4099 4.5H86.3805V5.47059H85.4099V4.5ZM84.4393 4.5H85.4099V5.47059H84.4393V4.5ZM83.4687 3.52941H84.4393V4.5H83.4687V3.52941ZM83.4687 2.55882H84.4393V3.52941H83.4687V2.55882ZM83.4687 1.58824H84.4393V2.55882H83.4687V1.58824ZM84.4393 1.58824H85.4099V2.55882H84.4393V1.58824ZM82.4981 1.58824H83.4687V2.55882H82.4981V1.58824ZM81.5275 1.58824H82.4981V2.55882H81.5275V1.58824ZM80.5569 1.58824H81.5275V2.55882H80.5569V1.58824ZM79.5863 1.58824H80.5569V2.55882H79.5863V1.58824ZM79.5863 2.55882H80.5569V3.52941H79.5863V2.55882ZM78.6158 2.55882H79.5863V3.52941H78.6158V2.55882ZM78.6158 1.58824H79.5863V2.55882H78.6158V1.58824ZM77.6452 2.55882H78.6158V3.52941H77.6452V2.55882ZM76.6746 2.55882H77.6452V3.52941H76.6746V2.55882ZM76.6746 3.52941H77.6452V4.5H76.6746V3.52941ZM76.6746 4.5H77.6452V5.47059H76.6746V4.5ZM75.704 4.5H76.6746V5.47059H75.704V4.5ZM75.704 5.47059H76.6746V6.44118H75.704V5.47059ZM76.6746 5.47059H77.6452V6.44118H76.6746V5.47059ZM77.6452 5.47059H78.6158V6.44118H77.6452V5.47059ZM78.6158 5.47059H79.5863V6.44118H78.6158V5.47059ZM79.5863 4.5H80.5569V5.47059H79.5863V4.5ZM80.5569 4.5H81.5275V5.47059H80.5569V4.5ZM81.5275 4.5H82.4981V5.47059H81.5275V4.5ZM82.4981 4.5H83.4687V5.47059H82.4981V4.5ZM82.4981 2.55882H83.4687V3.52941H82.4981V2.55882ZM82.4981 3.52941H83.4687V4.5H82.4981V3.52941ZM81.5275 3.52941H82.4981V4.5H81.5275V3.52941ZM80.5569 3.52941H81.5275V4.5H80.5569V3.52941ZM81.5275 2.55882H82.4981V3.52941H81.5275V2.55882ZM80.5569 2.55882H81.5275V3.52941H80.5569V2.55882ZM79.5863 3.52941H80.5569V4.5H79.5863V3.52941ZM78.6158 3.52941H79.5863V4.5H78.6158V3.52941ZM78.6158 4.5H79.5863V5.47059H78.6158V4.5ZM77.6452 4.5H78.6158V5.47059H77.6452V4.5ZM77.6452 3.52941H78.6158V4.5H77.6452V3.52941ZM77.6452 6.44118H78.6158V7.41177H77.6452V6.44118ZM77.6452 7.41177H78.6158V8.38235H77.6452V7.41177ZM77.6452 8.38235H78.6158V9.35294H77.6452V8.38235ZM77.6452 9.35294H78.6158V10.3235H77.6452V9.35294ZM78.6158 9.35294H79.5863V10.3235H78.6158V9.35294ZM78.6158 10.3235H79.5863V11.2941H78.6158V10.3235ZM78.6158 8.38235H79.5863V9.35294H78.6158V8.38235ZM78.6158 7.41177H79.5863V8.38235H78.6158V7.41177ZM78.6158 6.44118H79.5863V7.41177H78.6158V6.44118ZM78.6158 11.2941H79.5863V12.2647H78.6158V11.2941ZM78.6158 12.2647H79.5863V13.2353H78.6158V12.2647ZM77.6452 12.2647H78.6158V13.2353H77.6452V12.2647ZM76.6746 12.2647H77.6452V13.2353H76.6746V12.2647ZM75.704 11.2941H76.6746V12.2647H75.704V11.2941ZM75.704 12.2647H76.6746V13.2353H75.704V12.2647ZM75.704 10.3235H76.6746V11.2941H75.704V10.3235ZM75.704 9.35294H76.6746V10.3235H75.704V9.35294ZM75.704 8.38235H76.6746V9.35294H75.704V8.38235ZM75.704 7.41177H76.6746V8.38235H75.704V7.41177ZM75.704 6.44118H76.6746V7.41177H75.704V6.44118ZM76.6746 7.41177H77.6452V8.38235H76.6746V7.41177ZM76.6746 8.38235H77.6452V9.35294H76.6746V8.38235ZM76.6746 9.35294H77.6452V10.3235H76.6746V9.35294ZM76.6746 10.3235H77.6452V11.2941H76.6746V10.3235ZM76.6746 11.2941H77.6452V12.2647H76.6746V11.2941ZM77.6452 11.2941H78.6158V12.2647H77.6452V11.2941ZM77.6452 10.3235H78.6158V11.2941H77.6452V10.3235ZM76.6746 6.44118H77.6452V7.41177H76.6746V6.44118ZM77.6452 1.58824H78.6158V2.55882H77.6452V1.58824ZM76.6746 1.58824H77.6452V2.55882H76.6746V1.58824ZM75.704 1.58824H76.6746V2.55882H75.704V1.58824ZM75.704 2.55882H76.6746V3.52941H75.704V2.55882ZM75.704 3.52941H76.6746V4.5H75.704V3.52941ZM75.704 18.0882H76.6746V19.0588H75.704V18.0882ZM75.704 19.0588H76.6746V20.0294H75.704V19.0588ZM75.704 20.0294H76.6746V21H75.704V20.0294ZM76.6746 20.0294H77.6452V21H76.6746V20.0294ZM77.6452 20.0294H78.6158V21H77.6452V20.0294ZM103.855 1.58824V2.55882H102.884V1.58824H103.855ZM102.884 1.58824V2.55882H101.914V1.58824H102.884ZM101.914 1.58824V2.55882H100.943V1.58824H101.914ZM100.943 1.58824V2.55882H99.9725V1.58824H100.943ZM100.943 2.55882V3.52941H99.9725V2.55882H100.943ZM100.943 3.52941V4.5H99.9725V3.52941H100.943ZM101.914 3.52941V4.5H100.943V3.52941H101.914ZM102.884 3.52941V4.5H101.914V3.52941H102.884ZM102.884 2.55882V3.52941H101.914V2.55882H102.884ZM103.855 2.55882V3.52941H102.884V2.55882H103.855ZM101.914 2.55882V3.52941H100.943V2.55882H101.914ZM103.855 3.52941V4.5H102.884V3.52941H103.855ZM103.855 4.5V5.47059H102.884V4.5H103.855ZM103.855 5.47059V6.44118H102.884V5.47059H103.855ZM102.884 5.47059V6.44118H101.914V5.47059H102.884ZM101.914 5.47059V6.44118H100.943V5.47059H101.914ZM100.943 5.47059V6.44118H99.9725V5.47059H100.943ZM100.943 4.5V5.47059H99.9725V4.5H100.943ZM101.914 4.5V5.47059H100.943V4.5H101.914ZM102.884 4.5V5.47059H101.914V4.5H102.884ZM103.855 6.44118V7.41177H102.884V6.44118H103.855ZM102.884 6.44118V7.41177H101.914V6.44118H102.884ZM101.914 6.44118V7.41177H100.943V6.44118H101.914ZM103.855 8.38235V9.35294H102.884V8.38235H103.855ZM103.855 7.41177V8.38235H102.884V7.41177H103.855ZM101.914 20.0294V21H100.943V20.0294H101.914ZM102.884 20.0294V21H101.914V20.0294H102.884ZM103.855 19.0588V20.0294H102.884V19.0588H103.855ZM103.855 18.0882V19.0588H102.884V18.0882H103.855ZM103.855 20.0294V21H102.884V20.0294H103.855ZM99.0019 6.44118V7.41177H98.0313V6.44118H99.0019ZM100.943 6.44118V7.41177H99.9725V6.44118H100.943ZM98.0313 6.44118V7.41177H97.0607V6.44118H98.0313ZM97.0607 6.44118V7.41177H96.0901V6.44118H97.0607ZM96.0901 6.44118V7.41177H95.1195V6.44118H96.0901ZM95.1195 6.44118V7.41177H94.149V6.44118H95.1195ZM94.149 7.41177V8.38235H93.1784V7.41177H94.149ZM95.1195 7.41177V8.38235H94.149V7.41177H95.1195ZM95.1195 8.38235V9.35294H94.149V8.38235H95.1195ZM93.1784 7.41177V8.38235H92.2078V7.41177H93.1784ZM93.1784 8.38235V9.35294H92.2078V8.38235H93.1784ZM94.149 8.38235V9.35294H93.1784V8.38235H94.149ZM95.1195 9.35294V10.3235H94.149V9.35294H95.1195ZM96.0901 9.35294V10.3235H95.1195V9.35294H96.0901ZM94.149 9.35294V10.3235H93.1784V9.35294H94.149ZM93.1784 9.35294V10.3235H92.2078V9.35294H93.1784ZM92.2078 9.35294V10.3235H91.2372V9.35294H92.2078ZM92.2078 10.3235V11.2941H91.2372V10.3235H92.2078ZM92.2078 11.2941V12.2647H91.2372V11.2941H92.2078ZM92.2078 12.2647V13.2353H91.2372V12.2647H92.2078ZM92.2078 13.2353V14.2059H91.2372V13.2353H92.2078ZM92.2078 14.2059V15.1765H91.2372V14.2059H92.2078ZM92.2078 15.1765V16.1471H91.2372V15.1765H92.2078ZM92.2078 16.1471V17.1176H91.2372V16.1471H92.2078ZM92.2078 17.1176V18.0882H91.2372V17.1176H92.2078ZM93.1784 17.1176V18.0882H92.2078V17.1176H93.1784ZM93.1784 18.0882V19.0588H92.2078V18.0882H93.1784ZM93.1784 19.0588V20.0294H92.2078V19.0588H93.1784ZM94.149 19.0588V20.0294H93.1784V19.0588H94.149ZM95.1195 19.0588V20.0294H94.149V19.0588H95.1195ZM96.0901 18.0882V19.0588H95.1195V18.0882H96.0901ZM96.0901 17.1176V18.0882H95.1195V17.1176H96.0901ZM95.1195 17.1176V18.0882H94.149V17.1176H95.1195ZM95.1195 18.0882V19.0588H94.149V18.0882H95.1195ZM94.149 18.0882V19.0588H93.1784V18.0882H94.149ZM94.149 17.1176V18.0882H93.1784V17.1176H94.149ZM94.149 16.1471V17.1176H93.1784V16.1471H94.149ZM95.1195 16.1471V17.1176H94.149V16.1471H95.1195ZM95.1195 15.1765V16.1471H94.149V15.1765H95.1195ZM95.1195 14.2059V15.1765H94.149V14.2059H95.1195ZM95.1195 13.2353V14.2059H94.149V13.2353H95.1195ZM95.1195 12.2647V13.2353H94.149V12.2647H95.1195ZM95.1195 11.2941V12.2647H94.149V11.2941H95.1195ZM95.1195 10.3235V11.2941H94.149V10.3235H95.1195ZM94.149 10.3235V11.2941H93.1784V10.3235H94.149ZM94.149 11.2941V12.2647H93.1784V11.2941H94.149ZM94.149 12.2647V13.2353H93.1784V12.2647H94.149ZM94.149 13.2353V14.2059H93.1784V13.2353H94.149ZM94.149 14.2059V15.1765H93.1784V14.2059H94.149ZM94.149 15.1765V16.1471H93.1784V15.1765H94.149ZM93.1784 16.1471V17.1176H92.2078V16.1471H93.1784ZM93.1784 15.1765V16.1471H92.2078V15.1765H93.1784ZM93.1784 14.2059V15.1765H92.2078V14.2059H93.1784ZM93.1784 13.2353V14.2059H92.2078V13.2353H93.1784ZM93.1784 12.2647V13.2353H92.2078V12.2647H93.1784ZM93.1784 11.2941V12.2647H92.2078V11.2941H93.1784ZM93.1784 10.3235V11.2941H92.2078V10.3235H93.1784ZM96.0901 19.0588V20.0294H95.1195V19.0588H96.0901ZM96.0901 20.0294V21H95.1195V20.0294H96.0901ZM95.1195 20.0294V21H94.149V20.0294H95.1195ZM97.0607 20.0294V21H96.0901V20.0294H97.0607ZM98.0313 20.0294V21H97.0607V20.0294H98.0313ZM99.0019 20.0294V21H98.0313V20.0294H99.0019ZM100.943 20.0294V21H99.9725V20.0294H100.943ZM100.943 19.0588V20.0294H99.9725V19.0588H100.943ZM101.914 19.0588V20.0294H100.943V19.0588H101.914ZM102.884 19.0588V20.0294H101.914V19.0588H102.884ZM102.884 11.2941V12.2647H101.914V11.2941H102.884ZM102.884 10.3235V11.2941H101.914V10.3235H102.884ZM103.855 9.35294V10.3235H102.884V9.35294H103.855ZM102.884 8.38235V9.35294H101.914V8.38235H102.884ZM101.914 7.41177V8.38235H100.943V7.41177H101.914ZM100.943 7.41177V8.38235H99.9725V7.41177H100.943ZM99.9725 7.41177V8.38235H99.0019V7.41177H99.9725ZM99.9725 8.38235V9.35294H99.0019V8.38235H99.9725ZM100.943 9.35294V10.3235H99.9725V9.35294H100.943ZM101.914 9.35294V10.3235H100.943V9.35294H101.914ZM100.943 10.3235V11.2941H99.9725V10.3235H100.943ZM100.943 11.2941V12.2647H99.9725V11.2941H100.943ZM100.943 12.2647V13.2353H99.9725V12.2647H100.943ZM99.0019 18.0882V19.0588H98.0313V18.0882H99.0019ZM98.0313 18.0882V19.0588H97.0607V18.0882H98.0313ZM97.0607 18.0882V19.0588H96.0901V18.0882H97.0607ZM97.0607 19.0588V20.0294H96.0901V19.0588H97.0607ZM98.0313 19.0588V20.0294H97.0607V19.0588H98.0313ZM99.0019 19.0588V20.0294H98.0313V19.0588H99.0019ZM99.9725 19.0588V20.0294H99.0019V19.0588H99.9725ZM100.943 18.0882V19.0588H99.9725V18.0882H100.943ZM101.914 18.0882V19.0588H100.943V18.0882H101.914ZM101.914 11.2941V12.2647H100.943V11.2941H101.914ZM101.914 10.3235V11.2941H100.943V10.3235H101.914ZM101.914 8.38235V9.35294H100.943V8.38235H101.914ZM100.943 8.38235V9.35294H99.9725V8.38235H100.943ZM99.0019 7.41177V8.38235H98.0313V7.41177H99.0019ZM98.0313 7.41177V8.38235H97.0607V7.41177H98.0313ZM97.0607 7.41177V8.38235H96.0901V7.41177H97.0607ZM96.0901 7.41177V8.38235H95.1195V7.41177H96.0901ZM96.0901 8.38235V9.35294H95.1195V8.38235H96.0901ZM97.0607 8.38235V9.35294H96.0901V8.38235H97.0607ZM98.0313 8.38235V9.35294H97.0607V8.38235H98.0313ZM99.0019 8.38235V9.35294H98.0313V8.38235H99.0019ZM102.884 7.41177V8.38235H101.914V7.41177H102.884ZM102.884 18.0882V19.0588H101.914V18.0882H102.884ZM102.884 9.35294V10.3235H101.914V9.35294H102.884ZM103.855 10.3235V11.2941H102.884V10.3235H103.855ZM103.855 11.2941V12.2647H102.884V11.2941H103.855ZM103.855 17.1176V18.0882H102.884V17.1176H103.855ZM102.884 17.1176V18.0882H101.914V17.1176H102.884ZM101.914 17.1176V18.0882H100.943V17.1176H101.914ZM100.943 17.1176V18.0882H99.9725V17.1176H100.943ZM101.914 12.2647V13.2353H100.943V12.2647H101.914ZM102.884 12.2647V13.2353H101.914V12.2647H102.884ZM103.855 12.2647V13.2353H102.884V12.2647H103.855ZM103.855 13.2353V14.2059H102.884V13.2353H103.855ZM103.855 14.2059V15.1765H102.884V14.2059H103.855ZM103.855 15.1765V16.1471H102.884V15.1765H103.855ZM102.884 15.1765V16.1471H101.914V15.1765H102.884ZM102.884 16.1471V17.1176H101.914V16.1471H102.884ZM101.914 16.1471V17.1176H100.943V16.1471H101.914ZM103.855 16.1471V17.1176H102.884V16.1471H103.855ZM100.943 16.1471V17.1176H99.9725V16.1471H100.943ZM100.943 15.1765V16.1471H99.9725V15.1765H100.943ZM100.943 14.2059V15.1765H99.9725V14.2059H100.943ZM100.943 13.2353V14.2059H99.9725V13.2353H100.943ZM101.914 13.2353V14.2059H100.943V13.2353H101.914ZM102.884 13.2353V14.2059H101.914V13.2353H102.884ZM102.884 14.2059V15.1765H101.914V14.2059H102.884ZM101.914 15.1765V16.1471H100.943V15.1765H101.914ZM101.914 14.2059V15.1765H100.943V14.2059H101.914ZM99.0019 6.44118H99.9725V7.41177H99.0019V6.44118ZM99.0019 18.0882H99.9725V19.0588H99.0019V18.0882ZM99.0019 17.1176H99.9725V18.0882H99.0019V17.1176ZM114.535 21H113.565V20.0294H114.535V21ZM116.476 21H115.506V20.0294H116.476V21ZM113.565 21H112.594V20.0294H113.565V21ZM112.594 21H111.623V20.0294H112.594V21ZM111.623 21H110.653V20.0294H111.623V21ZM110.653 21H109.682V20.0294H110.653V21ZM109.682 20.0294H108.712V19.0588H109.682V20.0294ZM110.653 20.0294H109.682V19.0588H110.653V20.0294ZM110.653 19.0588H109.682V18.0882H110.653V19.0588ZM108.712 20.0294H107.741V19.0588H108.712V20.0294ZM108.712 19.0588H107.741V18.0882H108.712V19.0588ZM109.682 19.0588H108.712V18.0882H109.682V19.0588ZM110.653 18.0882H109.682V17.1176H110.653V18.0882ZM111.623 18.0882H110.653V17.1176H111.623V18.0882ZM109.682 18.0882H108.712V17.1176H109.682V18.0882ZM108.712 18.0882H107.741V17.1176H108.712V18.0882ZM107.741 18.0882H106.77V17.1176H107.741V18.0882ZM107.741 17.1176H106.77V16.1471H107.741V17.1176ZM107.741 11.2941H106.77V10.3235H107.741V11.2941ZM107.741 10.3235H106.77V9.35294H107.741V10.3235ZM108.712 10.3235H107.741V9.35294H108.712V10.3235ZM108.712 9.35294H107.741V8.38235H108.712V9.35294ZM108.712 8.38235H107.741V7.41177H108.712V8.38235ZM109.682 8.38235H108.712V7.41177H109.682V8.38235ZM110.653 8.38235H109.682V7.41177H110.653V8.38235ZM111.623 9.35294H110.653V8.38235H111.623V9.35294ZM111.623 10.3235H110.653V9.35294H111.623V10.3235ZM110.653 10.3235H109.682V9.35294H110.653V10.3235ZM110.653 9.35294H109.682V8.38235H110.653V9.35294ZM109.682 9.35294H108.712V8.38235H109.682V9.35294ZM109.682 10.3235H108.712V9.35294H109.682V10.3235ZM109.682 11.2941H108.712V10.3235H109.682V11.2941ZM110.653 11.2941H109.682V10.3235H110.653V11.2941ZM110.653 17.1176H109.682V16.1471H110.653V17.1176ZM109.682 17.1176H108.712V16.1471H109.682V17.1176ZM108.712 11.2941H107.741V10.3235H108.712V11.2941ZM108.712 17.1176H107.741V16.1471H108.712V17.1176ZM111.623 8.38235H110.653V7.41177H111.623V8.38235ZM111.623 7.41177H110.653V6.44118H111.623V7.41177ZM110.653 7.41177H109.682V6.44118H110.653V7.41177ZM112.594 7.41177H111.623V6.44118H112.594V7.41177ZM113.565 7.41177H112.594V6.44118H113.565V7.41177ZM114.535 7.41177H113.565V6.44118H114.535V7.41177ZM115.506 7.41177H114.535V6.44118H115.506V7.41177ZM116.476 7.41177H115.506V6.44118H116.476V7.41177ZM116.476 8.38235H115.506V7.41177H116.476V8.38235ZM117.447 8.38235H116.476V7.41177H117.447V8.38235ZM118.417 8.38235H117.447V7.41177H118.417V8.38235ZM118.417 9.35294H117.447V8.38235H118.417V9.35294ZM119.388 10.3235H118.417V9.35294H119.388V10.3235ZM118.417 10.3235H117.447V9.35294H118.417V10.3235ZM119.388 11.2941H118.417V10.3235H119.388V11.2941ZM119.388 12.2647H118.417V11.2941H119.388V12.2647ZM119.388 13.2353H118.417V12.2647H119.388V13.2353ZM119.388 14.2059H118.417V13.2353H119.388V14.2059ZM119.388 15.1765H118.417V14.2059H119.388V15.1765ZM119.388 16.1471H118.417V15.1765H119.388V16.1471ZM118.417 16.1471H117.447V15.1765H118.417V16.1471ZM118.417 17.1176H117.447V16.1471H118.417V17.1176ZM119.388 17.1176H118.417V16.1471H119.388V17.1176ZM119.388 18.0882H118.417V17.1176H119.388V18.0882ZM118.417 18.0882H117.447V17.1176H118.417V18.0882ZM118.417 19.0588H117.447V18.0882H118.417V19.0588ZM118.417 20.0294H117.447V19.0588H118.417V20.0294ZM117.447 20.0294H116.476V19.0588H117.447V20.0294ZM116.476 20.0294H115.506V19.0588H116.476V20.0294ZM115.506 20.0294H114.535V19.0588H115.506V20.0294ZM115.506 19.0588H114.535V18.0882H115.506V19.0588ZM116.476 18.0882H115.506V17.1176H116.476V18.0882ZM117.447 18.0882H116.476V17.1176H117.447V18.0882ZM116.476 17.1176H115.506V16.1471H116.476V17.1176ZM116.476 16.1471H115.506V15.1765H116.476V16.1471ZM116.476 15.1765H115.506V14.2059H116.476V15.1765ZM116.476 14.2059H115.506V13.2353H116.476V14.2059ZM116.476 13.2353H115.506V12.2647H116.476V13.2353ZM116.476 12.2647H115.506V11.2941H116.476V12.2647ZM116.476 11.2941H115.506V10.3235H116.476V11.2941ZM116.476 10.3235H115.506V9.35294H116.476V10.3235ZM115.506 10.3235H114.535V9.35294H115.506V10.3235ZM115.506 9.35294H114.535V8.38235H115.506V9.35294ZM114.535 9.35294H113.565V8.38235H114.535V9.35294ZM113.565 9.35294H112.594V8.38235H113.565V9.35294ZM112.594 9.35294H111.623V8.38235H112.594V9.35294ZM112.594 8.38235H111.623V7.41177H112.594V8.38235ZM113.565 8.38235H112.594V7.41177H113.565V8.38235ZM114.535 8.38235H113.565V7.41177H114.535V8.38235ZM115.506 8.38235H114.535V7.41177H115.506V8.38235ZM116.476 9.35294H115.506V8.38235H116.476V9.35294ZM117.447 9.35294H116.476V8.38235H117.447V9.35294ZM117.447 10.3235H116.476V9.35294H117.447V10.3235ZM117.447 11.2941H116.476V10.3235H117.447V11.2941ZM117.447 12.2647H116.476V11.2941H117.447V12.2647ZM118.417 12.2647H117.447V11.2941H118.417V12.2647ZM118.417 11.2941H117.447V10.3235H118.417V11.2941ZM118.417 13.2353H117.447V12.2647H118.417V13.2353ZM118.417 14.2059H117.447V13.2353H118.417V14.2059ZM118.417 15.1765H117.447V14.2059H118.417V15.1765ZM117.447 15.1765H116.476V14.2059H117.447V15.1765ZM117.447 14.2059H116.476V13.2353H117.447V14.2059ZM117.447 13.2353H116.476V12.2647H117.447V13.2353ZM117.447 16.1471H116.476V15.1765H117.447V16.1471ZM117.447 17.1176H116.476V16.1471H117.447V17.1176ZM117.447 19.0588H116.476V18.0882H117.447V19.0588ZM116.476 19.0588H115.506V18.0882H116.476V19.0588ZM114.535 20.0294H113.565V19.0588H114.535V20.0294ZM113.565 20.0294H112.594V19.0588H113.565V20.0294ZM112.594 20.0294H111.623V19.0588H112.594V20.0294ZM111.623 20.0294H110.653V19.0588H111.623V20.0294ZM111.623 19.0588H110.653V18.0882H111.623V19.0588ZM112.594 19.0588H111.623V18.0882H112.594V19.0588ZM113.565 19.0588H112.594V18.0882H113.565V19.0588ZM114.535 19.0588H113.565V18.0882H114.535V19.0588ZM108.712 16.1471H107.741V15.1765H108.712V16.1471ZM109.682 16.1471H108.712V15.1765H109.682V16.1471ZM110.653 16.1471H109.682V15.1765H110.653V16.1471ZM108.712 15.1765H107.741V14.2059H108.712V15.1765ZM109.682 15.1765H108.712V14.2059H109.682V15.1765ZM110.653 15.1765H109.682V14.2059H110.653V15.1765ZM111.623 15.1765H110.653V14.2059H111.623V15.1765ZM112.594 15.1765H111.623V14.2059H112.594V15.1765ZM113.565 15.1765H112.594V14.2059H113.565V15.1765ZM114.535 15.1765H113.565V14.2059H114.535V15.1765ZM115.506 15.1765H114.535V14.2059H115.506V15.1765ZM115.506 14.2059H114.535V13.2353H115.506V14.2059ZM114.535 14.2059H113.565V13.2353H114.535V14.2059ZM113.565 14.2059H112.594V13.2353H113.565V14.2059ZM112.594 14.2059H111.623V13.2353H112.594V14.2059ZM111.623 14.2059H110.653V13.2353H111.623V14.2059ZM110.653 14.2059H109.682V13.2353H110.653V14.2059ZM118.417 18.0882H119.388V19.0588H118.417V18.0882ZM118.417 19.0588H119.388V20.0294H118.417V19.0588ZM118.417 20.0294H119.388V21H118.417V20.0294ZM117.447 20.0294H118.417V21H117.447V20.0294ZM116.476 20.0294H117.447V21H116.476V20.0294ZM110.653 15.1765H111.623V16.1471H110.653V15.1765ZM122.304 7.41177H123.274V8.38235H122.304V7.41177ZM123.274 7.41177H124.245V8.38235H123.274V7.41177ZM124.245 7.41177H125.215V8.38235H124.245V7.41177ZM125.215 7.41177H126.186V8.38235H125.215V7.41177ZM126.186 7.41177H127.157V8.38235H126.186V7.41177ZM127.157 7.41177H128.127V8.38235H127.157V7.41177ZM128.127 7.41177H129.098V8.38235H128.127V7.41177ZM129.098 7.41177H130.068V8.38235H129.098V7.41177ZM130.068 7.41177H131.039V8.38235H130.068V7.41177ZM130.068 8.38235H131.039V9.35294H130.068V8.38235ZM130.068 9.35294H131.039V10.3235H130.068V9.35294ZM129.098 9.35294H130.068V10.3235H129.098V9.35294ZM128.127 9.35294H129.098V10.3235H128.127V9.35294ZM127.157 9.35294H128.127V10.3235H127.157V9.35294ZM126.186 9.35294H127.157V10.3235H126.186V9.35294ZM125.215 9.35294H126.186V10.3235H125.215V9.35294ZM124.245 9.35294H125.215V10.3235H124.245V9.35294ZM123.274 9.35294H124.245V10.3235H123.274V9.35294ZM123.274 8.38235H124.245V9.35294H123.274V8.38235ZM122.304 8.38235H123.274V9.35294H122.304V8.38235ZM122.304 9.35294H123.274V10.3235H122.304V9.35294ZM124.245 8.38235H125.215V9.35294H124.245V8.38235ZM125.215 8.38235H126.186V9.35294H125.215V8.38235ZM126.186 8.38235H127.157V9.35294H126.186V8.38235ZM127.157 8.38235H128.127V9.35294H127.157V8.38235ZM128.127 8.38235H129.098V9.35294H128.127V8.38235ZM129.098 8.38235H130.068V9.35294H129.098V8.38235ZM124.245 6.44118H125.215V7.41177H124.245V6.44118ZM125.215 6.44118H126.186V7.41177H125.215V6.44118ZM126.186 6.44118H127.157V7.41177H126.186V6.44118ZM127.157 6.44118H128.127V7.41177H127.157V6.44118ZM126.186 5.47059H127.157V6.44118H126.186V5.47059ZM125.215 5.47059H126.186V6.44118H125.215V5.47059ZM127.157 5.47059H128.127V6.44118H127.157V5.47059ZM127.157 3.52941H128.127V4.5H127.157V3.52941ZM127.157 4.5H128.127V5.47059H127.157V4.5ZM126.186 4.5H127.157V5.47059H126.186V4.5ZM127.157 2.55882H128.127V3.52941H127.157V2.55882ZM126.186 3.52941H127.157V4.5H126.186V3.52941ZM125.215 4.5H126.186V5.47059H125.215V4.5ZM124.245 5.47059H125.215V6.44118H124.245V5.47059ZM124.245 10.3235H125.215V11.2941H124.245V10.3235ZM124.245 11.2941H125.215V12.2647H124.245V11.2941ZM124.245 12.2647H125.215V13.2353H124.245V12.2647ZM124.245 13.2353H125.215V14.2059H124.245V13.2353ZM125.215 13.2353H126.186V14.2059H125.215V13.2353ZM125.215 14.2059H126.186V15.1765H125.215V14.2059ZM126.186 13.2353H127.157V14.2059H126.186V13.2353ZM126.186 12.2647H127.157V13.2353H126.186V12.2647ZM127.157 12.2647H128.127V13.2353H127.157V12.2647ZM127.157 11.2941H128.127V12.2647H127.157V11.2941ZM126.186 10.3235H127.157V11.2941H126.186V10.3235ZM125.215 10.3235H126.186V11.2941H125.215V10.3235ZM125.215 11.2941H126.186V12.2647H125.215V11.2941ZM125.215 12.2647H126.186V13.2353H125.215V12.2647ZM126.186 11.2941H127.157V12.2647H126.186V11.2941ZM127.157 10.3235H128.127V11.2941H127.157V10.3235ZM127.157 13.2353H128.127V14.2059H127.157V13.2353ZM127.157 14.2059H128.127V15.1765H127.157V14.2059ZM126.186 14.2059H127.157V15.1765H126.186V14.2059ZM126.186 15.1765H127.157V16.1471H126.186V15.1765ZM125.215 15.1765H126.186V16.1471H125.215V15.1765ZM124.245 14.2059H125.215V15.1765H124.245V14.2059ZM124.245 15.1765H125.215V16.1471H124.245V15.1765ZM127.157 15.1765H128.127V16.1471H127.157V15.1765ZM124.245 16.1471H125.215V17.1176H124.245V16.1471ZM125.215 16.1471H126.186V17.1176H125.215V16.1471ZM125.215 17.1176H126.186V18.0882H125.215V17.1176ZM126.186 17.1176H127.157V18.0882H126.186V17.1176ZM127.157 17.1176H128.127V18.0882H127.157V17.1176ZM127.157 16.1471H128.127V17.1176H127.157V16.1471ZM126.186 16.1471H127.157V17.1176H126.186V16.1471ZM124.245 17.1176H125.215V18.0882H124.245V17.1176ZM127.157 18.0882H128.127V19.0588H127.157V18.0882ZM128.127 18.0882H129.098V19.0588H128.127V18.0882ZM128.127 17.1176H129.098V18.0882H128.127V17.1176ZM126.186 18.0882H127.157V19.0588H126.186V18.0882ZM125.215 18.0882H126.186V19.0588H125.215V18.0882ZM125.215 19.0588H126.186V20.0294H125.215V19.0588ZM126.186 19.0588H127.157V20.0294H126.186V19.0588ZM127.157 19.0588H128.127V20.0294H127.157V19.0588ZM128.127 19.0588H129.098V20.0294H128.127V19.0588ZM129.098 19.0588H130.068V20.0294H129.098V19.0588ZM129.098 18.0882H130.068V19.0588H129.098V18.0882ZM130.068 18.0882H131.039V19.0588H130.068V18.0882ZM130.068 19.0588H131.039V20.0294H130.068V19.0588ZM129.098 20.0294H130.068V21H129.098V20.0294ZM128.127 20.0294H129.098V21H128.127V20.0294ZM127.157 20.0294H128.127V21H127.157V20.0294ZM130.068 20.0294H131.039V21H130.068V20.0294Z" fill="#637EFF"/>
</svg>
