<svg width="127" height="20" viewBox="0 0 127 20" fill="none" xmlns="http://www.w3.org/2000/svg">
<path d="M0.970588 19.0294H1.94118V20H0.970588V19.0294ZM1.94118 19.0294H2.91176V20H1.94118V19.0294ZM2.91176 19.0294H3.88235V20H2.91176V19.0294ZM3.88235 19.0294H4.85294V20H3.88235V19.0294ZM3.88235 18.0588H4.85294V19.0294H3.88235V18.0588ZM3.88235 17.0882H4.85294V18.0588H3.88235V17.0882ZM3.88235 16.1176H4.85294V17.0882H3.88235V16.1176ZM3.88235 15.1471H4.85294V16.1176H3.88235V15.1471ZM2.91176 15.1471H3.88235V16.1176H2.91176V15.1471ZM1.94118 15.1471H2.91176V16.1176H1.94118V15.1471ZM1.94118 16.1176H2.91176V17.0882H1.94118V16.1176ZM1.94118 17.0882H2.91176V18.0588H1.94118V17.0882ZM0.970588 17.0882H1.94118V18.0588H0.970588V17.0882ZM0.970588 18.0588H1.94118V19.0294H0.970588V18.0588ZM1.94118 18.0588H2.91176V19.0294H1.94118V18.0588ZM2.91176 18.0588H3.88235V19.0294H2.91176V18.0588ZM2.91176 17.0882H3.88235V18.0588H2.91176V17.0882ZM2.91176 16.1176H3.88235V17.0882H2.91176V16.1176ZM0.970588 16.1176H1.94118V17.0882H0.970588V16.1176ZM0.970588 15.1471H1.94118V16.1176H0.970588V15.1471ZM0.970588 14.1765H1.94118V15.1471H0.970588V14.1765ZM0.970588 13.2059H1.94118V14.1765H0.970588V13.2059ZM0.970588 12.2353H1.94118V13.2059H0.970588V12.2353ZM0.970588 11.2647H1.94118V12.2353H0.970588V11.2647ZM0.970588 10.2941H1.94118V11.2647H0.970588V10.2941ZM0.970588 9.32353H1.94118V10.2941H0.970588V9.32353ZM0.970588 8.35294H1.94118V9.32353H0.970588V8.35294ZM0.970588 7.38235H1.94118V8.35294H0.970588V7.38235ZM0.970588 6.41177H1.94118V7.38235H0.970588V6.41177ZM1.94118 6.41177H2.91176V7.38235H1.94118V6.41177ZM2.91176 6.41177H3.88235V7.38235H2.91176V6.41177ZM2.91176 7.38235H3.88235V8.35294H2.91176V7.38235ZM3.88235 7.38235H4.85294V8.35294H3.88235V7.38235ZM3.88235 8.35294H4.85294V9.32353H3.88235V8.35294ZM3.88235 9.32353H4.85294V10.2941H3.88235V9.32353ZM3.88235 10.2941H4.85294V11.2647H3.88235V10.2941ZM3.88235 12.2353H4.85294V13.2059H3.88235V12.2353ZM3.88235 13.2059H4.85294V14.1765H3.88235V13.2059ZM3.88235 14.1765H4.85294V15.1471H3.88235V14.1765ZM2.91176 14.1765H3.88235V15.1471H2.91176V14.1765ZM2.91176 13.2059H3.88235V14.1765H2.91176V13.2059ZM2.91176 12.2353H3.88235V13.2059H2.91176V12.2353ZM2.91176 11.2647H3.88235V12.2353H2.91176V11.2647ZM2.91176 10.2941H3.88235V11.2647H2.91176V10.2941ZM2.91176 9.32353H3.88235V10.2941H2.91176V9.32353ZM2.91176 8.35294H3.88235V9.32353H2.91176V8.35294ZM1.94118 8.35294H2.91176V9.32353H1.94118V8.35294ZM1.94118 7.38235H2.91176V8.35294H1.94118V7.38235ZM1.94118 9.32353H2.91176V10.2941H1.94118V9.32353ZM1.94118 10.2941H2.91176V11.2647H1.94118V10.2941ZM1.94118 12.2353H2.91176V13.2059H1.94118V12.2353ZM1.94118 13.2059H2.91176V14.1765H1.94118V13.2059ZM1.94118 14.1765H2.91176V15.1471H1.94118V14.1765ZM1.94118 11.2647H2.91176V12.2353H1.94118V11.2647ZM3.88235 11.2647H4.85294V12.2353H3.88235V11.2647ZM4.85294 11.2647H5.82353V12.2353H4.85294V11.2647ZM6.79412 11.2647H7.76471V12.2353H6.79412V11.2647ZM7.76471 11.2647H8.73529V12.2353H7.76471V11.2647ZM8.73529 11.2647H9.70588V12.2353H8.73529V11.2647ZM9.70588 11.2647H10.6765V12.2353H9.70588V11.2647ZM10.6765 11.2647H11.6471V12.2353H10.6765V11.2647ZM11.6471 11.2647H12.6176V12.2353H11.6471V11.2647ZM11.6471 12.2353H12.6176V13.2059H11.6471V12.2353ZM11.6471 13.2059H12.6176V14.1765H11.6471V13.2059ZM11.6471 14.1765H12.6176V15.1471H11.6471V14.1765ZM10.6765 14.1765H11.6471V15.1471H10.6765V14.1765ZM9.70588 14.1765H10.6765V15.1471H9.70588V14.1765ZM8.73529 14.1765H9.70588V15.1471H8.73529V14.1765ZM7.76471 14.1765H8.73529V15.1471H7.76471V14.1765ZM6.79412 13.2059H7.76471V14.1765H6.79412V13.2059ZM5.82353 13.2059H6.79412V14.1765H5.82353V13.2059ZM4.85294 13.2059H5.82353V14.1765H4.85294V13.2059ZM4.85294 12.2353H5.82353V13.2059H4.85294V12.2353ZM5.82353 11.2647H6.79412V12.2353H5.82353V11.2647ZM5.82353 12.2353H6.79412V13.2059H5.82353V12.2353ZM4.85294 14.1765H5.82353V15.1471H4.85294V14.1765ZM5.82353 14.1765H6.79412V15.1471H5.82353V14.1765ZM6.79412 14.1765H7.76471V15.1471H6.79412V14.1765ZM8.73529 13.2059H9.70588V14.1765H8.73529V13.2059ZM8.73529 12.2353H9.70588V13.2059H8.73529V12.2353ZM7.76471 12.2353H8.73529V13.2059H7.76471V12.2353ZM6.79412 12.2353H7.76471V13.2059H6.79412V12.2353ZM7.76471 13.2059H8.73529V14.1765H7.76471V13.2059ZM9.70588 12.2353H10.6765V13.2059H9.70588V12.2353ZM10.6765 12.2353H11.6471V13.2059H10.6765V12.2353ZM10.6765 13.2059H11.6471V14.1765H10.6765V13.2059ZM9.70588 13.2059H10.6765V14.1765H9.70588V13.2059ZM10.6765 15.1471H11.6471V16.1176H10.6765V15.1471ZM10.6765 16.1176H11.6471V17.0882H10.6765V16.1176ZM10.6765 17.0882H11.6471V18.0588H10.6765V17.0882ZM10.6765 18.0588H11.6471V19.0294H10.6765V18.0588ZM11.6471 18.0588H12.6176V19.0294H11.6471V18.0588ZM11.6471 19.0294H12.6176V20H11.6471V19.0294ZM12.6176 19.0294H13.5882V20H12.6176V19.0294ZM10.6765 19.0294H11.6471V20H10.6765V19.0294ZM12.6176 13.2059H13.5882V14.1765H12.6176V13.2059ZM12.6176 12.2353H13.5882V13.2059H12.6176V12.2353ZM12.6176 11.2647H13.5882V12.2353H12.6176V11.2647ZM12.6176 10.2941H13.5882V11.2647H12.6176V10.2941ZM12.6176 6.41177H13.5882V7.38235H12.6176V6.41177ZM12.6176 7.38235H13.5882V8.35294H12.6176V7.38235ZM11.6471 7.38235H12.6176V8.35294H11.6471V7.38235ZM11.6471 8.35294H12.6176V9.32353H11.6471V8.35294ZM11.6471 9.32353H12.6176V10.2941H11.6471V9.32353ZM11.6471 10.2941H12.6176V11.2647H11.6471V10.2941ZM12.6176 9.32353H13.5882V10.2941H12.6176V9.32353ZM12.6176 8.35294H13.5882V9.32353H12.6176V8.35294ZM10.6765 7.38235H11.6471V8.35294H10.6765V7.38235ZM10.6765 8.35294H11.6471V9.32353H10.6765V8.35294ZM10.6765 9.32353H11.6471V10.2941H10.6765V9.32353ZM10.6765 10.2941H11.6471V11.2647H10.6765V10.2941ZM11.6471 15.1471H12.6176V16.1176H11.6471V15.1471ZM11.6471 16.1176H12.6176V17.0882H11.6471V16.1176ZM11.6471 17.0882H12.6176V18.0588H11.6471V17.0882ZM12.6176 17.0882H13.5882V18.0588H12.6176V17.0882ZM12.6176 16.1176H13.5882V17.0882H12.6176V16.1176ZM12.6176 15.1471H13.5882V16.1176H12.6176V15.1471ZM12.6176 14.1765H13.5882V15.1471H12.6176V14.1765ZM12.6176 18.0588H13.5882V19.0294H12.6176V18.0588ZM1.94118 5.44118H2.91176V6.41177H1.94118V5.44118ZM2.91176 5.44118H3.88235V6.41177H2.91176V5.44118ZM3.88235 5.44118H4.85294V6.41177H3.88235V5.44118ZM4.85294 5.44118H5.82353V6.41177H4.85294V5.44118ZM5.82353 5.44118H6.79412V6.41177H5.82353V5.44118ZM7.76471 5.44118H8.73529V6.41177H7.76471V5.44118ZM8.73529 5.44118H9.70588V6.41177H8.73529V5.44118ZM9.70588 5.44118H10.6765V6.41177H9.70588V5.44118ZM10.6765 5.44118H11.6471V6.41177H10.6765V5.44118ZM11.6471 5.44118H12.6176V6.41177H11.6471V5.44118ZM11.6471 6.41177H12.6176V7.38235H11.6471V6.41177ZM10.6765 6.41177H11.6471V7.38235H10.6765V6.41177ZM9.70588 6.41177H10.6765V7.38235H9.70588V6.41177ZM8.73529 6.41177H9.70588V7.38235H8.73529V6.41177ZM3.88235 6.41177H4.85294V7.38235H3.88235V6.41177ZM4.85294 6.41177H5.82353V7.38235H4.85294V6.41177ZM2.91176 4.47059H3.88235V5.44118H2.91176V4.47059ZM3.88235 4.47059H4.85294V5.44118H3.88235V4.47059ZM5.82353 4.47059H6.79412V5.44118H5.82353V4.47059ZM6.79412 4.47059H7.76471V5.44118H6.79412V4.47059ZM7.76471 4.47059H8.73529V5.44118H7.76471V4.47059ZM8.73529 4.47059H9.70588V5.44118H8.73529V4.47059ZM9.70588 4.47059H10.6765V5.44118H9.70588V4.47059ZM10.6765 4.47059H11.6471V5.44118H10.6765V4.47059ZM11.6471 4.47059H12.6176V5.44118H11.6471V4.47059ZM10.6765 3.5H11.6471V4.47059H10.6765V3.5ZM9.70588 3.5H10.6765V4.47059H9.70588V3.5ZM8.73529 3.5H9.70588V4.47059H8.73529V3.5ZM7.76471 3.5H8.73529V4.47059H7.76471V3.5ZM6.79412 3.5H7.76471V4.47059H6.79412V3.5ZM4.85294 4.47059H5.82353V5.44118H4.85294V4.47059ZM3.88235 3.5H4.85294V4.47059H3.88235V3.5ZM4.85294 3.5H5.82353V4.47059H4.85294V3.5ZM5.82353 3.5H6.79412V4.47059H5.82353V3.5ZM5.82353 2.52941H6.79412V3.5H5.82353V2.52941ZM4.85294 2.52941H5.82353V3.5H4.85294V2.52941ZM6.79412 2.52941H7.76471V3.5H6.79412V2.52941ZM7.76471 2.52941H8.73529V3.5H7.76471V2.52941ZM8.73529 2.52941H9.70588V3.5H8.73529V2.52941ZM9.70588 2.52941H10.6765V3.5H9.70588V2.52941ZM5.82353 1.55882H6.79412V2.52941H5.82353V1.55882ZM6.79412 1.55882H7.76471V2.52941H6.79412V1.55882ZM7.76471 1.55882H8.73529V2.52941H7.76471V1.55882ZM8.73529 1.55882H9.70588V2.52941H8.73529V1.55882ZM6.79412 0.588236H7.76471V1.55882H6.79412V0.588236ZM7.76471 0.588236H8.73529V1.55882H7.76471V0.588236ZM12.6176 5.44118H13.5882V6.41177H12.6176V5.44118ZM0.970588 5.44118H1.94118V6.41177H0.970588V5.44118ZM1.94118 4.47059H2.91176V5.44118H1.94118V4.47059ZM2.91176 3.5H3.88235V4.47059H2.91176V3.5ZM3.88235 2.52941H4.85294V3.5H3.88235V2.52941ZM4.85294 1.55882H5.82353V2.52941H4.85294V1.55882ZM5.82353 0.588236H6.79412V1.55882H5.82353V0.588236ZM9.70588 7.38235H10.6765V8.35294H9.70588V7.38235ZM9.70588 8.35294H10.6765V9.32353H9.70588V8.35294ZM9.70588 9.32353H10.6765V10.2941H9.70588V9.32353ZM9.70588 10.2941H10.6765V11.2647H9.70588V10.2941ZM9.70588 15.1471H10.6765V16.1176H9.70588V15.1471ZM9.70588 16.1176H10.6765V17.0882H9.70588V16.1176ZM9.70588 17.0882H10.6765V18.0588H9.70588V17.0882ZM9.70588 18.0588H10.6765V19.0294H9.70588V18.0588ZM9.70588 19.0294H10.6765V20H9.70588V19.0294ZM16.5038 19.0294H17.4744V20H16.5038V19.0294ZM17.4744 19.0294H18.445V20H17.4744V19.0294ZM18.445 19.0294H19.4156V20H18.445V19.0294ZM19.4156 19.0294H20.3861V20H19.4156V19.0294ZM19.4156 18.0588H20.3861V19.0294H19.4156V18.0588ZM18.445 18.0588H19.4156V19.0294H18.445V18.0588ZM17.4744 18.0588H18.445V19.0294H17.4744V18.0588ZM16.5038 18.0588H17.4744V19.0294H16.5038V18.0588ZM16.5038 17.0882H17.4744V18.0588H16.5038V17.0882ZM16.5038 16.1176H17.4744V17.0882H16.5038V16.1176ZM16.5038 15.1471H17.4744V16.1176H16.5038V15.1471ZM16.5038 14.1765H17.4744V15.1471H16.5038V14.1765ZM16.5038 13.2059H17.4744V14.1765H16.5038V13.2059ZM16.5038 12.2353H17.4744V13.2059H16.5038V12.2353ZM16.5038 11.2647H17.4744V12.2353H16.5038V11.2647ZM17.4744 11.2647H18.445V12.2353H17.4744V11.2647ZM17.4744 10.2941H18.445V11.2647H17.4744V10.2941ZM17.4744 9.32353H18.445V10.2941H17.4744V9.32353ZM18.445 9.32353H19.4156V10.2941H18.445V9.32353ZM18.445 10.2941H19.4156V11.2647H18.445V10.2941ZM19.4156 10.2941H20.3861V11.2647H19.4156V10.2941ZM19.4156 11.2647H20.3861V12.2353H19.4156V11.2647ZM19.4156 12.2353H20.3861V13.2059H19.4156V12.2353ZM19.4156 13.2059H20.3861V14.1765H19.4156V13.2059ZM19.4156 14.1765H20.3861V15.1471H19.4156V14.1765ZM19.4156 15.1471H20.3861V16.1176H19.4156V15.1471ZM19.4156 16.1176H20.3861V17.0882H19.4156V16.1176ZM19.4156 17.0882H20.3861V18.0588H19.4156V17.0882ZM18.445 17.0882H19.4156V18.0588H18.445V17.0882ZM18.445 16.1176H19.4156V17.0882H18.445V16.1176ZM18.445 15.1471H19.4156V16.1176H18.445V15.1471ZM18.445 14.1765H19.4156V15.1471H18.445V14.1765ZM18.445 13.2059H19.4156V14.1765H18.445V13.2059ZM18.445 12.2353H19.4156V13.2059H18.445V12.2353ZM18.445 11.2647H19.4156V12.2353H18.445V11.2647ZM17.4744 12.2353H18.445V13.2059H17.4744V12.2353ZM17.4744 13.2059H18.445V14.1765H17.4744V13.2059ZM17.4744 14.1765H18.445V15.1471H17.4744V14.1765ZM17.4744 15.1471H18.445V16.1176H17.4744V15.1471ZM17.4744 16.1176H18.445V17.0882H17.4744V16.1176ZM17.4744 17.0882H18.445V18.0588H17.4744V17.0882ZM16.5038 0.588236H17.4744V1.55882H16.5038V0.588236ZM16.5038 1.55882H17.4744V2.52941H16.5038V1.55882ZM16.5038 3.5H17.4744V4.47059H16.5038V3.5ZM16.5038 4.47059H17.4744V5.44118H16.5038V4.47059ZM16.5038 5.44118H17.4744V6.41177H16.5038V5.44118ZM16.5038 6.41177H17.4744V7.38235H16.5038V6.41177ZM16.5038 7.38235H17.4744V8.35294H16.5038V7.38235ZM16.5038 8.35294H17.4744V9.32353H16.5038V8.35294ZM16.5038 9.32353H17.4744V10.2941H16.5038V9.32353ZM16.5038 10.2941H17.4744V11.2647H16.5038V10.2941ZM17.4744 6.41177H18.445V7.38235H17.4744V6.41177ZM17.4744 5.44118H18.445V6.41177H17.4744V5.44118ZM17.4744 4.47059H18.445V5.44118H17.4744V4.47059ZM17.4744 3.5H18.445V4.47059H17.4744V3.5ZM17.4744 2.52941H18.445V3.5H17.4744V2.52941ZM16.5038 2.52941H17.4744V3.5H16.5038V2.52941ZM17.4744 0.588236H18.445V1.55882H17.4744V0.588236ZM18.445 0.588236H19.4156V1.55882H18.445V0.588236ZM18.445 1.55882H19.4156V2.52941H18.445V1.55882ZM19.4156 2.52941H20.3861V3.5H19.4156V2.52941ZM19.4156 1.55882H20.3861V2.52941H19.4156V1.55882ZM19.4156 0.588236H20.3861V1.55882H19.4156V0.588236ZM19.4156 3.5H20.3861V4.47059H19.4156V3.5ZM19.4156 4.47059H20.3861V5.44118H19.4156V4.47059ZM19.4156 5.44118H20.3861V6.41177H19.4156V5.44118ZM19.4156 6.41177H20.3861V7.38235H19.4156V6.41177ZM19.4156 7.38235H20.3861V8.35294H19.4156V7.38235ZM19.4156 8.35294H20.3861V9.32353H19.4156V8.35294ZM19.4156 9.32353H20.3861V10.2941H19.4156V9.32353ZM18.445 8.35294H19.4156V9.32353H18.445V8.35294ZM18.445 7.38235H19.4156V8.35294H18.445V7.38235ZM18.445 6.41177H19.4156V7.38235H18.445V6.41177ZM17.4744 7.38235H18.445V8.35294H17.4744V7.38235ZM17.4744 8.35294H18.445V9.32353H17.4744V8.35294ZM18.445 5.44118H19.4156V6.41177H18.445V5.44118ZM18.445 2.52941H19.4156V3.5H18.445V2.52941ZM18.445 3.5H19.4156V4.47059H18.445V3.5ZM18.445 4.47059H19.4156V5.44118H18.445V4.47059ZM17.4744 1.55882H18.445V2.52941H17.4744V1.55882ZM27.1859 19.0294H28.1565V20H27.1859V19.0294ZM28.1565 19.0294H29.1271V20H28.1565V19.0294ZM29.1271 19.0294H30.0977V20H29.1271V19.0294ZM30.0977 19.0294H31.0683V20H30.0977V19.0294ZM30.0977 18.0588H31.0683V19.0294H30.0977V18.0588ZM29.1271 18.0588H30.0977V19.0294H29.1271V18.0588ZM28.1565 18.0588H29.1271V19.0294H28.1565V18.0588ZM27.1859 18.0588H28.1565V19.0294H27.1859V18.0588ZM27.1859 17.0882H28.1565V18.0588H27.1859V17.0882ZM27.1859 16.1176H28.1565V17.0882H27.1859V16.1176ZM27.1859 15.1471H28.1565V16.1176H27.1859V15.1471ZM27.1859 14.1765H28.1565V15.1471H27.1859V14.1765ZM27.1859 13.2059H28.1565V14.1765H27.1859V13.2059ZM27.1859 12.2353H28.1565V13.2059H27.1859V12.2353ZM27.1859 11.2647H28.1565V12.2353H27.1859V11.2647ZM28.1565 11.2647H29.1271V12.2353H28.1565V11.2647ZM28.1565 10.2941H29.1271V11.2647H28.1565V10.2941ZM28.1565 9.32353H29.1271V10.2941H28.1565V9.32353ZM29.1271 9.32353H30.0977V10.2941H29.1271V9.32353ZM29.1271 10.2941H30.0977V11.2647H29.1271V10.2941ZM30.0977 10.2941H31.0683V11.2647H30.0977V10.2941ZM30.0977 11.2647H31.0683V12.2353H30.0977V11.2647ZM30.0977 12.2353H31.0683V13.2059H30.0977V12.2353ZM30.0977 13.2059H31.0683V14.1765H30.0977V13.2059ZM30.0977 14.1765H31.0683V15.1471H30.0977V14.1765ZM30.0977 15.1471H31.0683V16.1176H30.0977V15.1471ZM30.0977 16.1176H31.0683V17.0882H30.0977V16.1176ZM30.0977 17.0882H31.0683V18.0588H30.0977V17.0882ZM29.1271 17.0882H30.0977V18.0588H29.1271V17.0882ZM29.1271 16.1176H30.0977V17.0882H29.1271V16.1176ZM29.1271 15.1471H30.0977V16.1176H29.1271V15.1471ZM29.1271 14.1765H30.0977V15.1471H29.1271V14.1765ZM29.1271 13.2059H30.0977V14.1765H29.1271V13.2059ZM29.1271 12.2353H30.0977V13.2059H29.1271V12.2353ZM29.1271 11.2647H30.0977V12.2353H29.1271V11.2647ZM28.1565 12.2353H29.1271V13.2059H28.1565V12.2353ZM28.1565 13.2059H29.1271V14.1765H28.1565V13.2059ZM28.1565 14.1765H29.1271V15.1471H28.1565V14.1765ZM28.1565 15.1471H29.1271V16.1176H28.1565V15.1471ZM28.1565 16.1176H29.1271V17.0882H28.1565V16.1176ZM28.1565 17.0882H29.1271V18.0588H28.1565V17.0882ZM27.1859 0.588236H28.1565V1.55882H27.1859V0.588236ZM27.1859 1.55882H28.1565V2.52941H27.1859V1.55882ZM27.1859 3.5H28.1565V4.47059H27.1859V3.5ZM27.1859 4.47059H28.1565V5.44118H27.1859V4.47059ZM27.1859 5.44118H28.1565V6.41177H27.1859V5.44118ZM27.1859 6.41177H28.1565V7.38235H27.1859V6.41177ZM27.1859 7.38235H28.1565V8.35294H27.1859V7.38235ZM27.1859 8.35294H28.1565V9.32353H27.1859V8.35294ZM27.1859 9.32353H28.1565V10.2941H27.1859V9.32353ZM27.1859 10.2941H28.1565V11.2647H27.1859V10.2941ZM28.1565 6.41177H29.1271V7.38235H28.1565V6.41177ZM28.1565 5.44118H29.1271V6.41177H28.1565V5.44118ZM28.1565 4.47059H29.1271V5.44118H28.1565V4.47059ZM28.1565 3.5H29.1271V4.47059H28.1565V3.5ZM28.1565 2.52941H29.1271V3.5H28.1565V2.52941ZM27.1859 2.52941H28.1565V3.5H27.1859V2.52941ZM28.1565 0.588236H29.1271V1.55882H28.1565V0.588236ZM29.1271 0.588236H30.0977V1.55882H29.1271V0.588236ZM29.1271 1.55882H30.0977V2.52941H29.1271V1.55882ZM30.0977 2.52941H31.0683V3.5H30.0977V2.52941ZM30.0977 1.55882H31.0683V2.52941H30.0977V1.55882ZM30.0977 0.588236H31.0683V1.55882H30.0977V0.588236ZM30.0977 3.5H31.0683V4.47059H30.0977V3.5ZM30.0977 4.47059H31.0683V5.44118H30.0977V4.47059ZM30.0977 5.44118H31.0683V6.41177H30.0977V5.44118ZM30.0977 6.41177H31.0683V7.38235H30.0977V6.41177ZM30.0977 7.38235H31.0683V8.35294H30.0977V7.38235ZM30.0977 8.35294H31.0683V9.32353H30.0977V8.35294ZM30.0977 9.32353H31.0683V10.2941H30.0977V9.32353ZM29.1271 8.35294H30.0977V9.32353H29.1271V8.35294ZM29.1271 7.38235H30.0977V8.35294H29.1271V7.38235ZM29.1271 6.41177H30.0977V7.38235H29.1271V6.41177ZM28.1565 7.38235H29.1271V8.35294H28.1565V7.38235ZM28.1565 8.35294H29.1271V9.32353H28.1565V8.35294ZM29.1271 5.44118H30.0977V6.41177H29.1271V5.44118ZM29.1271 2.52941H30.0977V3.5H29.1271V2.52941ZM29.1271 3.5H30.0977V4.47059H29.1271V3.5ZM29.1271 4.47059H30.0977V5.44118H29.1271V4.47059ZM28.1565 1.55882H29.1271V2.52941H28.1565V1.55882ZM31.0683 0.588236H32.0389V1.55882H31.0683V0.588236ZM31.0683 1.55882H32.0389V2.52941H31.0683V1.55882ZM31.0683 2.52941H32.0389V3.5H31.0683V2.52941ZM31.0683 3.5H32.0389V4.47059H31.0683V3.5ZM32.0389 3.5H33.0095V4.47059H32.0389V3.5ZM33.0095 3.5H33.9801V4.47059H33.0095V3.5ZM33.9801 3.5H34.9507V4.47059H33.9801V3.5ZM33.9801 2.52941H34.9507V3.5H33.9801V2.52941ZM33.9801 1.55882H34.9507V2.52941H33.9801V1.55882ZM33.9801 0.588236H34.9507V1.55882H33.9801V0.588236ZM33.0095 0.588236H33.9801V1.55882H33.0095V0.588236ZM32.0389 0.588236H33.0095V1.55882H32.0389V0.588236ZM32.0389 1.55882H33.0095V2.52941H32.0389V1.55882ZM33.0095 1.55882H33.9801V2.52941H33.0095V1.55882ZM33.0095 2.52941H33.9801V3.5H33.0095V2.52941ZM32.0389 2.52941H33.0095V3.5H32.0389V2.52941ZM26.2154 0.588236H27.1859V1.55882H26.2154V0.588236ZM25.2448 0.588236H26.2154V1.55882H25.2448V0.588236ZM24.2742 0.588236H25.2448V1.55882H24.2742V0.588236ZM23.3036 0.588236H24.2742V1.55882H23.3036V0.588236ZM23.3036 1.55882H24.2742V2.52941H23.3036V1.55882ZM23.3036 2.52941H24.2742V3.5H23.3036V2.52941ZM24.2742 2.52941H25.2448V3.5H24.2742V2.52941ZM25.2448 3.5H26.2154V4.47059H25.2448V3.5ZM24.2742 3.5H25.2448V4.47059H24.2742V3.5ZM23.3036 3.5H24.2742V4.47059H23.3036V3.5ZM26.2154 3.5H27.1859V4.47059H26.2154V3.5ZM26.2154 2.52941H27.1859V3.5H26.2154V2.52941ZM26.2154 1.55882H27.1859V2.52941H26.2154V1.55882ZM25.2448 1.55882H26.2154V2.52941H25.2448V1.55882ZM25.2448 2.52941H26.2154V3.5H25.2448V2.52941ZM24.2742 1.55882H25.2448V2.52941H24.2742V1.55882ZM37.87 19.0294H38.8406V20H37.87V19.0294ZM38.8406 19.0294H39.8112V20H38.8406V19.0294ZM39.8112 19.0294H40.7818V20H39.8112V19.0294ZM40.7818 19.0294H41.7524V20H40.7818V19.0294ZM40.7818 18.0588H41.7524V19.0294H40.7818V18.0588ZM39.8112 18.0588H40.7818V19.0294H39.8112V18.0588ZM38.8406 18.0588H39.8112V19.0294H38.8406V18.0588ZM37.87 18.0588H38.8406V19.0294H37.87V18.0588ZM37.87 17.0882H38.8406V18.0588H37.87V17.0882ZM37.87 16.1176H38.8406V17.0882H37.87V16.1176ZM37.87 15.1471H38.8406V16.1176H37.87V15.1471ZM37.87 14.1765H38.8406V15.1471H37.87V14.1765ZM37.87 13.2059H38.8406V14.1765H37.87V13.2059ZM37.87 12.2353H38.8406V13.2059H37.87V12.2353ZM37.87 11.2647H38.8406V12.2353H37.87V11.2647ZM38.8406 11.2647H39.8112V12.2353H38.8406V11.2647ZM38.8406 10.2941H39.8112V11.2647H38.8406V10.2941ZM38.8406 9.32353H39.8112V10.2941H38.8406V9.32353ZM39.8112 9.32353H40.7818V10.2941H39.8112V9.32353ZM39.8112 10.2941H40.7818V11.2647H39.8112V10.2941ZM40.7818 10.2941H41.7524V11.2647H40.7818V10.2941ZM40.7818 11.2647H41.7524V12.2353H40.7818V11.2647ZM40.7818 12.2353H41.7524V13.2059H40.7818V12.2353ZM40.7818 13.2059H41.7524V14.1765H40.7818V13.2059ZM40.7818 14.1765H41.7524V15.1471H40.7818V14.1765ZM40.7818 15.1471H41.7524V16.1176H40.7818V15.1471ZM40.7818 16.1176H41.7524V17.0882H40.7818V16.1176ZM40.7818 17.0882H41.7524V18.0588H40.7818V17.0882ZM39.8112 17.0882H40.7818V18.0588H39.8112V17.0882ZM39.8112 16.1176H40.7818V17.0882H39.8112V16.1176ZM39.8112 15.1471H40.7818V16.1176H39.8112V15.1471ZM39.8112 14.1765H40.7818V15.1471H39.8112V14.1765ZM39.8112 13.2059H40.7818V14.1765H39.8112V13.2059ZM39.8112 12.2353H40.7818V13.2059H39.8112V12.2353ZM39.8112 11.2647H40.7818V12.2353H39.8112V11.2647ZM38.8406 12.2353H39.8112V13.2059H38.8406V12.2353ZM38.8406 13.2059H39.8112V14.1765H38.8406V13.2059ZM38.8406 14.1765H39.8112V15.1471H38.8406V14.1765ZM38.8406 15.1471H39.8112V16.1176H38.8406V15.1471ZM38.8406 16.1176H39.8112V17.0882H38.8406V16.1176ZM38.8406 17.0882H39.8112V18.0588H38.8406V17.0882ZM37.87 0.588236H38.8406V1.55882H37.87V0.588236ZM37.87 1.55882H38.8406V2.52941H37.87V1.55882ZM37.87 3.5H38.8406V4.47059H37.87V3.5ZM37.87 4.47059H38.8406V5.44118H37.87V4.47059ZM37.87 5.44118H38.8406V6.41177H37.87V5.44118ZM37.87 6.41177H38.8406V7.38235H37.87V6.41177ZM37.87 7.38235H38.8406V8.35294H37.87V7.38235ZM37.87 8.35294H38.8406V9.32353H37.87V8.35294ZM37.87 9.32353H38.8406V10.2941H37.87V9.32353ZM37.87 10.2941H38.8406V11.2647H37.87V10.2941ZM38.8406 6.41177H39.8112V7.38235H38.8406V6.41177ZM38.8406 5.44118H39.8112V6.41177H38.8406V5.44118ZM38.8406 4.47059H39.8112V5.44118H38.8406V4.47059ZM38.8406 3.5H39.8112V4.47059H38.8406V3.5ZM38.8406 2.52941H39.8112V3.5H38.8406V2.52941ZM37.87 2.52941H38.8406V3.5H37.87V2.52941ZM38.8406 0.588236H39.8112V1.55882H38.8406V0.588236ZM39.8112 0.588236H40.7818V1.55882H39.8112V0.588236ZM39.8112 1.55882H40.7818V2.52941H39.8112V1.55882ZM40.7818 2.52941H41.7524V3.5H40.7818V2.52941ZM40.7818 1.55882H41.7524V2.52941H40.7818V1.55882ZM40.7818 0.588236H41.7524V1.55882H40.7818V0.588236ZM40.7818 3.5H41.7524V4.47059H40.7818V3.5ZM40.7818 4.47059H41.7524V5.44118H40.7818V4.47059ZM40.7818 5.44118H41.7524V6.41177H40.7818V5.44118ZM40.7818 6.41177H41.7524V7.38235H40.7818V6.41177ZM40.7818 7.38235H41.7524V8.35294H40.7818V7.38235ZM40.7818 8.35294H41.7524V9.32353H40.7818V8.35294ZM40.7818 9.32353H41.7524V10.2941H40.7818V9.32353ZM39.8112 8.35294H40.7818V9.32353H39.8112V8.35294ZM39.8112 7.38235H40.7818V8.35294H39.8112V7.38235ZM39.8112 6.41177H40.7818V7.38235H39.8112V6.41177ZM38.8406 7.38235H39.8112V8.35294H38.8406V7.38235ZM38.8406 8.35294H39.8112V9.32353H38.8406V8.35294ZM39.8112 5.44118H40.7818V6.41177H39.8112V5.44118ZM39.8112 2.52941H40.7818V3.5H39.8112V2.52941ZM39.8112 3.5H40.7818V4.47059H39.8112V3.5ZM39.8112 4.47059H40.7818V5.44118H39.8112V4.47059ZM38.8406 1.55882H39.8112V2.52941H38.8406V1.55882ZM41.7524 19.0294H42.7229V20H41.7524V19.0294ZM41.7524 18.0588H42.7229V19.0294H41.7524V18.0588ZM41.7524 17.0882H42.7229V18.0588H41.7524V17.0882ZM41.7524 16.1176H42.7229V17.0882H41.7524V16.1176ZM42.7229 16.1176H43.6935V17.0882H42.7229V16.1176ZM43.6935 16.1176H44.6641V17.0882H43.6935V16.1176ZM44.6641 16.1176H45.6347V17.0882H44.6641V16.1176ZM45.6347 16.1176H46.6053V17.0882H45.6347V16.1176ZM45.6347 18.0588H46.6053V19.0294H45.6347V18.0588ZM44.6641 18.0588H45.6347V19.0294H44.6641V18.0588ZM43.6935 18.0588H44.6641V19.0294H43.6935V18.0588ZM42.7229 18.0588H43.6935V19.0294H42.7229V18.0588ZM42.7229 17.0882H43.6935V18.0588H42.7229V17.0882ZM43.6935 17.0882H44.6641V18.0588H43.6935V17.0882ZM44.6641 17.0882H45.6347V18.0588H44.6641V17.0882ZM45.6347 17.0882H46.6053V18.0588H45.6347V17.0882ZM45.6347 19.0294H46.6053V20H45.6347V19.0294ZM44.6641 19.0294H45.6347V20H44.6641V19.0294ZM43.6935 19.0294H44.6641V20H43.6935V19.0294ZM42.7229 19.0294H43.6935V20H42.7229V19.0294ZM41.7524 0.588236H42.7229V1.55882H41.7524V0.588236ZM42.7229 0.588236H43.6935V1.55882H42.7229V0.588236ZM43.6935 0.588236H44.6641V1.55882H43.6935V0.588236ZM44.6641 0.588236H45.6347V1.55882H44.6641V0.588236ZM45.6347 0.588236H46.6053V1.55882H45.6347V0.588236ZM45.6347 1.55882H46.6053V2.52941H45.6347V1.55882ZM45.6347 2.52941H46.6053V3.5H45.6347V2.52941ZM45.6347 3.5H46.6053V4.47059H45.6347V3.5ZM44.6641 3.5H45.6347V4.47059H44.6641V3.5ZM43.6935 3.5H44.6641V4.47059H43.6935V3.5ZM42.7229 3.5H43.6935V4.47059H42.7229V3.5ZM41.7524 3.5H42.7229V4.47059H41.7524V3.5ZM41.7524 2.52941H42.7229V3.5H41.7524V2.52941ZM41.7524 1.55882H42.7229V2.52941H41.7524V1.55882ZM42.7229 1.55882H43.6935V2.52941H42.7229V1.55882ZM43.6935 1.55882H44.6641V2.52941H43.6935V1.55882ZM44.6641 1.55882H45.6347V2.52941H44.6641V1.55882ZM44.6641 2.52941H45.6347V3.5H44.6641V2.52941ZM43.6935 2.52941H44.6641V3.5H43.6935V2.52941ZM42.7229 2.52941H43.6935V3.5H42.7229V2.52941ZM46.6053 0.588236H47.5759V1.55882H46.6053V0.588236ZM47.5759 0.588236H48.5465V1.55882H47.5759V0.588236ZM48.5465 0.588236H49.5171V1.55882H48.5465V0.588236ZM48.5465 1.55882H49.5171V2.52941H48.5465V1.55882ZM48.5465 2.52941H49.5171V3.5H48.5465V2.52941ZM48.5465 3.5H49.5171V4.47059H48.5465V3.5ZM47.5759 3.5H48.5465V4.47059H47.5759V3.5ZM46.6053 3.5H47.5759V4.47059H46.6053V3.5ZM46.6053 2.52941H47.5759V3.5H46.6053V2.52941ZM46.6053 1.55882H47.5759V2.52941H46.6053V1.55882ZM47.5759 1.55882H48.5465V2.52941H47.5759V1.55882ZM47.5759 2.52941H48.5465V3.5H47.5759V2.52941ZM46.6053 16.1176H47.5759V17.0882H46.6053V16.1176ZM47.5759 16.1176H48.5465V17.0882H47.5759V16.1176ZM48.5465 16.1176H49.5171V17.0882H48.5465V16.1176ZM48.5465 17.0882H49.5171V18.0588H48.5465V17.0882ZM48.5465 18.0588H49.5171V19.0294H48.5465V18.0588ZM48.5465 19.0294H49.5171V20H48.5465V19.0294ZM47.5759 19.0294H48.5465V20H47.5759V19.0294ZM46.6053 19.0294H47.5759V20H46.6053V19.0294ZM46.6053 18.0588H47.5759V19.0294H46.6053V18.0588ZM46.6053 17.0882H47.5759V18.0588H46.6053V17.0882ZM47.5759 17.0882H48.5465V18.0588H47.5759V17.0882ZM47.5759 18.0588H48.5465V19.0294H47.5759V18.0588ZM41.7524 9.32353H42.7229V10.2941H41.7524V9.32353ZM41.7524 8.35294H42.7229V9.32353H41.7524V8.35294ZM41.7524 10.2941H42.7229V11.2647H41.7524V10.2941ZM41.7524 11.2647H42.7229V12.2353H41.7524V11.2647ZM42.7229 11.2647H43.6935V12.2353H42.7229V11.2647ZM43.6935 11.2647H44.6641V12.2353H43.6935V11.2647ZM44.6641 11.2647H45.6347V12.2353H44.6641V11.2647ZM45.6347 11.2647H46.6053V12.2353H45.6347V11.2647ZM45.6347 10.2941H46.6053V11.2647H45.6347V10.2941ZM45.6347 9.32353H46.6053V10.2941H45.6347V9.32353ZM45.6347 8.35294H46.6053V9.32353H45.6347V8.35294ZM44.6641 8.35294H45.6347V9.32353H44.6641V8.35294ZM43.6935 8.35294H44.6641V9.32353H43.6935V8.35294ZM42.7229 8.35294H43.6935V9.32353H42.7229V8.35294ZM42.7229 9.32353H43.6935V10.2941H42.7229V9.32353ZM42.7229 10.2941H43.6935V11.2647H42.7229V10.2941ZM43.6935 10.2941H44.6641V11.2647H43.6935V10.2941ZM44.6641 10.2941H45.6347V11.2647H44.6641V10.2941ZM44.6641 9.32353H45.6347V10.2941H44.6641V9.32353ZM43.6935 9.32353H44.6641V10.2941H43.6935V9.32353ZM46.6053 8.35294H47.5759V9.32353H46.6053V8.35294ZM46.6053 9.32353H47.5759V10.2941H46.6053V9.32353ZM46.6053 10.2941H47.5759V11.2647H46.6053V10.2941ZM46.6053 11.2647H47.5759V12.2353H46.6053V11.2647ZM52.4364 19.0294H53.407V20H52.4364V19.0294ZM53.407 19.0294H54.3776V20H53.407V19.0294ZM54.3776 19.0294H55.3482V20H54.3776V19.0294ZM55.3482 19.0294H56.3188V20H55.3482V19.0294ZM55.3482 18.0588H56.3188V19.0294H55.3482V18.0588ZM55.3482 17.0882H56.3188V18.0588H55.3482V17.0882ZM55.3482 16.1176H56.3188V17.0882H55.3482V16.1176ZM55.3482 15.1471H56.3188V16.1176H55.3482V15.1471ZM54.3776 15.1471H55.3482V16.1176H54.3776V15.1471ZM53.407 15.1471H54.3776V16.1176H53.407V15.1471ZM53.407 16.1176H54.3776V17.0882H53.407V16.1176ZM53.407 17.0882H54.3776V18.0588H53.407V17.0882ZM52.4364 17.0882H53.407V18.0588H52.4364V17.0882ZM52.4364 18.0588H53.407V19.0294H52.4364V18.0588ZM53.407 18.0588H54.3776V19.0294H53.407V18.0588ZM54.3776 18.0588H55.3482V19.0294H54.3776V18.0588ZM54.3776 17.0882H55.3482V18.0588H54.3776V17.0882ZM54.3776 16.1176H55.3482V17.0882H54.3776V16.1176ZM52.4364 16.1176H53.407V17.0882H52.4364V16.1176ZM52.4364 15.1471H53.407V16.1176H52.4364V15.1471ZM52.4364 14.1765H53.407V15.1471H52.4364V14.1765ZM52.4364 13.2059H53.407V14.1765H52.4364V13.2059ZM52.4364 12.2353H53.407V13.2059H52.4364V12.2353ZM52.4364 11.2647H53.407V12.2353H52.4364V11.2647ZM52.4364 10.2941H53.407V11.2647H52.4364V10.2941ZM52.4364 9.32353H53.407V10.2941H52.4364V9.32353ZM52.4364 8.35294H53.407V9.32353H52.4364V8.35294ZM52.4364 7.38235H53.407V8.35294H52.4364V7.38235ZM52.4364 6.41177H53.407V7.38235H52.4364V6.41177ZM53.407 6.41177H54.3776V7.38235H53.407V6.41177ZM54.3776 6.41177H55.3482V7.38235H54.3776V6.41177ZM54.3776 7.38235H55.3482V8.35294H54.3776V7.38235ZM55.3482 7.38235H56.3188V8.35294H55.3482V7.38235ZM55.3482 8.35294H56.3188V9.32353H55.3482V8.35294ZM55.3482 9.32353H56.3188V10.2941H55.3482V9.32353ZM55.3482 10.2941H56.3188V11.2647H55.3482V10.2941ZM55.3482 12.2353H56.3188V13.2059H55.3482V12.2353ZM55.3482 13.2059H56.3188V14.1765H55.3482V13.2059ZM55.3482 14.1765H56.3188V15.1471H55.3482V14.1765ZM54.3776 14.1765H55.3482V15.1471H54.3776V14.1765ZM54.3776 13.2059H55.3482V14.1765H54.3776V13.2059ZM54.3776 12.2353H55.3482V13.2059H54.3776V12.2353ZM54.3776 11.2647H55.3482V12.2353H54.3776V11.2647ZM54.3776 10.2941H55.3482V11.2647H54.3776V10.2941ZM54.3776 9.32353H55.3482V10.2941H54.3776V9.32353ZM54.3776 8.35294H55.3482V9.32353H54.3776V8.35294ZM53.407 8.35294H54.3776V9.32353H53.407V8.35294ZM53.407 7.38235H54.3776V8.35294H53.407V7.38235ZM53.407 9.32353H54.3776V10.2941H53.407V9.32353ZM53.407 10.2941H54.3776V11.2647H53.407V10.2941ZM53.407 12.2353H54.3776V13.2059H53.407V12.2353ZM53.407 13.2059H54.3776V14.1765H53.407V13.2059ZM53.407 14.1765H54.3776V15.1471H53.407V14.1765ZM53.407 11.2647H54.3776V12.2353H53.407V11.2647ZM55.3482 11.2647H56.3188V12.2353H55.3482V11.2647ZM56.3188 11.2647H57.2893V12.2353H56.3188V11.2647ZM58.2599 11.2647H59.2305V12.2353H58.2599V11.2647ZM59.2305 11.2647H60.2011V12.2353H59.2305V11.2647ZM60.2011 11.2647H61.1717V12.2353H60.2011V11.2647ZM61.1717 11.2647H62.1423V12.2353H61.1717V11.2647ZM62.1423 11.2647H63.1129V12.2353H62.1423V11.2647ZM63.1129 11.2647H64.0835V12.2353H63.1129V11.2647ZM63.1129 12.2353H64.0835V13.2059H63.1129V12.2353ZM63.1129 13.2059H64.0835V14.1765H63.1129V13.2059ZM63.1129 14.1765H64.0835V15.1471H63.1129V14.1765ZM62.1423 14.1765H63.1129V15.1471H62.1423V14.1765ZM61.1717 14.1765H62.1423V15.1471H61.1717V14.1765ZM60.2011 14.1765H61.1717V15.1471H60.2011V14.1765ZM59.2305 14.1765H60.2011V15.1471H59.2305V14.1765ZM58.2599 13.2059H59.2305V14.1765H58.2599V13.2059ZM57.2893 13.2059H58.2599V14.1765H57.2893V13.2059ZM56.3188 13.2059H57.2893V14.1765H56.3188V13.2059ZM56.3188 12.2353H57.2893V13.2059H56.3188V12.2353ZM57.2893 11.2647H58.2599V12.2353H57.2893V11.2647ZM57.2893 12.2353H58.2599V13.2059H57.2893V12.2353ZM56.3188 14.1765H57.2893V15.1471H56.3188V14.1765ZM57.2893 14.1765H58.2599V15.1471H57.2893V14.1765ZM58.2599 14.1765H59.2305V15.1471H58.2599V14.1765ZM60.2011 13.2059H61.1717V14.1765H60.2011V13.2059ZM60.2011 12.2353H61.1717V13.2059H60.2011V12.2353ZM59.2305 12.2353H60.2011V13.2059H59.2305V12.2353ZM58.2599 12.2353H59.2305V13.2059H58.2599V12.2353ZM59.2305 13.2059H60.2011V14.1765H59.2305V13.2059ZM61.1717 12.2353H62.1423V13.2059H61.1717V12.2353ZM62.1423 12.2353H63.1129V13.2059H62.1423V12.2353ZM62.1423 13.2059H63.1129V14.1765H62.1423V13.2059ZM61.1717 13.2059H62.1423V14.1765H61.1717V13.2059ZM62.1423 15.1471H63.1129V16.1176H62.1423V15.1471ZM62.1423 16.1176H63.1129V17.0882H62.1423V16.1176ZM62.1423 17.0882H63.1129V18.0588H62.1423V17.0882ZM62.1423 18.0588H63.1129V19.0294H62.1423V18.0588ZM63.1129 18.0588H64.0835V19.0294H63.1129V18.0588ZM63.1129 19.0294H64.0835V20H63.1129V19.0294ZM64.0835 19.0294H65.0541V20H64.0835V19.0294ZM62.1423 19.0294H63.1129V20H62.1423V19.0294ZM64.0835 13.2059H65.0541V14.1765H64.0835V13.2059ZM64.0835 12.2353H65.0541V13.2059H64.0835V12.2353ZM64.0835 11.2647H65.0541V12.2353H64.0835V11.2647ZM64.0835 10.2941H65.0541V11.2647H64.0835V10.2941ZM64.0835 6.41177H65.0541V7.38235H64.0835V6.41177ZM64.0835 7.38235H65.0541V8.35294H64.0835V7.38235ZM63.1129 7.38235H64.0835V8.35294H63.1129V7.38235ZM63.1129 8.35294H64.0835V9.32353H63.1129V8.35294ZM63.1129 9.32353H64.0835V10.2941H63.1129V9.32353ZM63.1129 10.2941H64.0835V11.2647H63.1129V10.2941ZM64.0835 9.32353H65.0541V10.2941H64.0835V9.32353ZM64.0835 8.35294H65.0541V9.32353H64.0835V8.35294ZM62.1423 7.38235H63.1129V8.35294H62.1423V7.38235ZM62.1423 8.35294H63.1129V9.32353H62.1423V8.35294ZM62.1423 9.32353H63.1129V10.2941H62.1423V9.32353ZM62.1423 10.2941H63.1129V11.2647H62.1423V10.2941ZM63.1129 15.1471H64.0835V16.1176H63.1129V15.1471ZM63.1129 16.1176H64.0835V17.0882H63.1129V16.1176ZM63.1129 17.0882H64.0835V18.0588H63.1129V17.0882ZM64.0835 17.0882H65.0541V18.0588H64.0835V17.0882ZM64.0835 16.1176H65.0541V17.0882H64.0835V16.1176ZM64.0835 15.1471H65.0541V16.1176H64.0835V15.1471ZM64.0835 14.1765H65.0541V15.1471H64.0835V14.1765ZM64.0835 18.0588H65.0541V19.0294H64.0835V18.0588ZM53.407 5.44118H54.3776V6.41177H53.407V5.44118ZM54.3776 5.44118H55.3482V6.41177H54.3776V5.44118ZM55.3482 5.44118H56.3188V6.41177H55.3482V5.44118ZM56.3188 5.44118H57.2893V6.41177H56.3188V5.44118ZM57.2893 5.44118H58.2599V6.41177H57.2893V5.44118ZM59.2305 5.44118H60.2011V6.41177H59.2305V5.44118ZM60.2011 5.44118H61.1717V6.41177H60.2011V5.44118ZM61.1717 5.44118H62.1423V6.41177H61.1717V5.44118ZM62.1423 5.44118H63.1129V6.41177H62.1423V5.44118ZM63.1129 5.44118H64.0835V6.41177H63.1129V5.44118ZM63.1129 6.41177H64.0835V7.38235H63.1129V6.41177ZM62.1423 6.41177H63.1129V7.38235H62.1423V6.41177ZM61.1717 6.41177H62.1423V7.38235H61.1717V6.41177ZM60.2011 6.41177H61.1717V7.38235H60.2011V6.41177ZM55.3482 6.41177H56.3188V7.38235H55.3482V6.41177ZM56.3188 6.41177H57.2893V7.38235H56.3188V6.41177ZM54.3776 4.47059H55.3482V5.44118H54.3776V4.47059ZM55.3482 4.47059H56.3188V5.44118H55.3482V4.47059ZM57.2893 4.47059H58.2599V5.44118H57.2893V4.47059ZM58.2599 4.47059H59.2305V5.44118H58.2599V4.47059ZM59.2305 4.47059H60.2011V5.44118H59.2305V4.47059ZM60.2011 4.47059H61.1717V5.44118H60.2011V4.47059ZM61.1717 4.47059H62.1423V5.44118H61.1717V4.47059ZM62.1423 4.47059H63.1129V5.44118H62.1423V4.47059ZM63.1129 4.47059H64.0835V5.44118H63.1129V4.47059ZM62.1423 3.5H63.1129V4.47059H62.1423V3.5ZM61.1717 3.5H62.1423V4.47059H61.1717V3.5ZM60.2011 3.5H61.1717V4.47059H60.2011V3.5ZM59.2305 3.5H60.2011V4.47059H59.2305V3.5ZM58.2599 3.5H59.2305V4.47059H58.2599V3.5ZM56.3188 4.47059H57.2893V5.44118H56.3188V4.47059ZM55.3482 3.5H56.3188V4.47059H55.3482V3.5ZM56.3188 3.5H57.2893V4.47059H56.3188V3.5ZM57.2893 3.5H58.2599V4.47059H57.2893V3.5ZM57.2893 2.52941H58.2599V3.5H57.2893V2.52941ZM56.3188 2.52941H57.2893V3.5H56.3188V2.52941ZM58.2599 2.52941H59.2305V3.5H58.2599V2.52941ZM59.2305 2.52941H60.2011V3.5H59.2305V2.52941ZM60.2011 2.52941H61.1717V3.5H60.2011V2.52941ZM61.1717 2.52941H62.1423V3.5H61.1717V2.52941ZM57.2893 1.55882H58.2599V2.52941H57.2893V1.55882ZM58.2599 1.55882H59.2305V2.52941H58.2599V1.55882ZM59.2305 1.55882H60.2011V2.52941H59.2305V1.55882ZM60.2011 1.55882H61.1717V2.52941H60.2011V1.55882ZM58.2599 0.588236H59.2305V1.55882H58.2599V0.588236ZM59.2305 0.588236H60.2011V1.55882H59.2305V0.588236ZM64.0835 5.44118H65.0541V6.41177H64.0835V5.44118ZM52.4364 5.44118H53.407V6.41177H52.4364V5.44118ZM53.407 4.47059H54.3776V5.44118H53.407V4.47059ZM54.3776 3.5H55.3482V4.47059H54.3776V3.5ZM55.3482 2.52941H56.3188V3.5H55.3482V2.52941ZM56.3188 1.55882H57.2893V2.52941H56.3188V1.55882ZM57.2893 0.588236H58.2599V1.55882H57.2893V0.588236ZM61.1717 7.38235H62.1423V8.35294H61.1717V7.38235ZM61.1717 8.35294H62.1423V9.32353H61.1717V8.35294ZM61.1717 9.32353H62.1423V10.2941H61.1717V9.32353ZM61.1717 10.2941H62.1423V11.2647H61.1717V10.2941ZM61.1717 15.1471H62.1423V16.1176H61.1717V15.1471ZM61.1717 16.1176H62.1423V17.0882H61.1717V16.1176ZM61.1717 17.0882H62.1423V18.0588H61.1717V17.0882ZM61.1717 18.0588H62.1423V19.0294H61.1717V18.0588ZM61.1717 19.0294H62.1423V20H61.1717V19.0294ZM79.6167 16.1176H80.5873V17.0882H79.6167V16.1176ZM78.6461 16.1176H79.6167V17.0882H78.6461V16.1176ZM77.6755 16.1176H78.6461V17.0882H77.6755V16.1176ZM77.6755 17.0882H78.6461V18.0588H77.6755V17.0882ZM78.6461 17.0882H79.6167V18.0588H78.6461V17.0882ZM77.6755 18.0588H78.6461V19.0294H77.6755V18.0588ZM76.7049 18.0588H77.6755V19.0294H76.7049V18.0588ZM78.6461 18.0588H79.6167V19.0294H78.6461V18.0588ZM76.7049 19.0294H77.6755V20H76.7049V19.0294ZM75.7343 19.0294H76.7049V20H75.7343V19.0294ZM74.7637 19.0294H75.7343V20H74.7637V19.0294ZM73.7931 19.0294H74.7637V20H73.7931V19.0294ZM72.8226 19.0294H73.7931V20H72.8226V19.0294ZM71.852 19.0294H72.8226V20H71.852V19.0294ZM70.8814 19.0294H71.852V20H70.8814V19.0294ZM70.8814 18.0588H71.852V19.0294H70.8814V18.0588ZM69.9108 18.0588H70.8814V19.0294H69.9108V18.0588ZM68.9402 18.0588H69.9108V19.0294H68.9402V18.0588ZM68.9402 17.0882H69.9108V18.0588H68.9402V17.0882ZM69.9108 17.0882H70.8814V18.0588H69.9108V17.0882ZM70.8814 17.0882H71.852V18.0588H70.8814V17.0882ZM71.852 17.0882H72.8226V18.0588H71.852V17.0882ZM72.8226 17.0882H73.7931V18.0588H72.8226V17.0882ZM73.7931 17.0882H74.7637V18.0588H73.7931V17.0882ZM74.7637 17.0882H75.7343V18.0588H74.7637V17.0882ZM75.7343 17.0882H76.7049V18.0588H75.7343V17.0882ZM76.7049 17.0882H77.6755V18.0588H76.7049V17.0882ZM75.7343 18.0588H76.7049V19.0294H75.7343V18.0588ZM74.7637 18.0588H75.7343V19.0294H74.7637V18.0588ZM73.7931 18.0588H74.7637V19.0294H73.7931V18.0588ZM72.8226 18.0588H73.7931V19.0294H72.8226V18.0588ZM71.852 18.0588H72.8226V19.0294H71.852V18.0588ZM69.9108 16.1176H70.8814V17.0882H69.9108V16.1176ZM68.9402 16.1176H69.9108V17.0882H68.9402V16.1176ZM67.9696 16.1176H68.9402V17.0882H67.9696V16.1176ZM69.9108 15.1471H70.8814V16.1176H69.9108V15.1471ZM70.8814 15.1471H71.852V16.1176H70.8814V15.1471ZM71.852 15.1471H72.8226V16.1176H71.852V15.1471ZM71.852 16.1176H72.8226V17.0882H71.852V16.1176ZM70.8814 16.1176H71.852V17.0882H70.8814V16.1176ZM68.9402 15.1471H69.9108V16.1176H68.9402V15.1471ZM68.9402 14.1765H69.9108V15.1471H68.9402V14.1765ZM67.9696 14.1765H68.9402V15.1471H67.9696V14.1765ZM67.9696 13.2059H68.9402V14.1765H67.9696V13.2059ZM67.9696 15.1471H68.9402V16.1176H67.9696V15.1471ZM67.9696 12.2353H68.9402V13.2059H67.9696V12.2353ZM68.9402 12.2353H69.9108V13.2059H68.9402V12.2353ZM69.9108 12.2353H70.8814V13.2059H69.9108V12.2353ZM70.8814 12.2353H71.852V13.2059H70.8814V12.2353ZM70.8814 13.2059H71.852V14.1765H70.8814V13.2059ZM70.8814 14.1765H71.852V15.1471H70.8814V14.1765ZM69.9108 13.2059H70.8814V14.1765H69.9108V13.2059ZM68.9402 13.2059H69.9108V14.1765H68.9402V13.2059ZM69.9108 14.1765H70.8814V15.1471H69.9108V14.1765ZM72.8226 16.1176H73.7931V17.0882H72.8226V16.1176ZM73.7931 16.1176H74.7637V17.0882H73.7931V16.1176ZM74.7637 16.1176H75.7343V17.0882H74.7637V16.1176ZM75.7343 16.1176H76.7049V17.0882H75.7343V16.1176ZM76.7049 16.1176H77.6755V17.0882H76.7049V16.1176ZM76.7049 15.1471H77.6755V16.1176H76.7049V15.1471ZM75.7343 15.1471H76.7049V16.1176H75.7343V15.1471ZM77.6755 15.1471H78.6461V16.1176H77.6755V15.1471ZM78.6461 15.1471H79.6167V16.1176H78.6461V15.1471ZM78.6461 14.1765H79.6167V15.1471H78.6461V14.1765ZM79.6167 14.1765H80.5873V15.1471H79.6167V14.1765ZM79.6167 13.2059H80.5873V14.1765H79.6167V13.2059ZM79.6167 15.1471H80.5873V16.1176H79.6167V15.1471ZM76.7049 13.2059H77.6755V14.1765H76.7049V13.2059ZM76.7049 14.1765H77.6755V15.1471H76.7049V14.1765ZM77.6755 14.1765H78.6461V15.1471H77.6755V14.1765ZM77.6755 13.2059H78.6461V14.1765H77.6755V13.2059ZM78.6461 13.2059H79.6167V14.1765H78.6461V13.2059ZM79.6167 6.41177H80.5873V7.38235H79.6167V6.41177ZM79.6167 5.44118H80.5873V6.41177H79.6167V5.44118ZM79.6167 4.47059H80.5873V5.44118H79.6167V4.47059ZM79.6167 3.5H80.5873V4.47059H79.6167V3.5ZM78.6461 3.5H79.6167V4.47059H78.6461V3.5ZM78.6461 2.52941H79.6167V3.5H78.6461V2.52941ZM78.6461 1.55882H79.6167V2.52941H78.6461V1.55882ZM77.6755 1.55882H78.6461V2.52941H77.6755V1.55882ZM76.7049 1.55882H77.6755V2.52941H76.7049V1.55882ZM77.6755 6.41177H78.6461V7.38235H77.6755V6.41177ZM77.6755 5.44118H78.6461V6.41177H77.6755V5.44118ZM78.6461 5.44118H79.6167V6.41177H78.6461V5.44118ZM78.6461 4.47059H79.6167V5.44118H78.6461V4.47059ZM78.6461 6.41177H79.6167V7.38235H78.6461V6.41177ZM76.7049 6.41177H77.6755V7.38235H76.7049V6.41177ZM77.6755 4.47059H78.6461V5.44118H77.6755V4.47059ZM76.7049 4.47059H77.6755V5.44118H76.7049V4.47059ZM76.7049 5.44118H77.6755V6.41177H76.7049V5.44118ZM75.7343 4.47059H76.7049V5.44118H75.7343V4.47059ZM75.7343 3.5H76.7049V4.47059H75.7343V3.5ZM76.7049 2.52941H77.6755V3.5H76.7049V2.52941ZM77.6755 2.52941H78.6461V3.5H77.6755V2.52941ZM77.6755 3.5H78.6461V4.47059H77.6755V3.5ZM76.7049 3.5H77.6755V4.47059H76.7049V3.5ZM75.7343 2.52941H76.7049V3.5H75.7343V2.52941ZM75.7343 1.55882H76.7049V2.52941H75.7343V1.55882ZM75.7343 0.588236H76.7049V1.55882H75.7343V0.588236ZM76.7049 0.588236H77.6755V1.55882H76.7049V0.588236ZM74.7637 0.588236H75.7343V1.55882H74.7637V0.588236ZM73.7931 0.588236H74.7637V1.55882H73.7931V0.588236ZM72.8226 0.588236H73.7931V1.55882H72.8226V0.588236ZM71.852 0.588236H72.8226V1.55882H71.852V0.588236ZM71.852 1.55882H72.8226V2.52941H71.852V1.55882ZM70.8814 1.55882H71.852V2.52941H70.8814V1.55882ZM70.8814 0.588236H71.852V1.55882H70.8814V0.588236ZM69.9108 1.55882H70.8814V2.52941H69.9108V1.55882ZM68.9402 1.55882H69.9108V2.52941H68.9402V1.55882ZM68.9402 2.52941H69.9108V3.5H68.9402V2.52941ZM68.9402 3.5H69.9108V4.47059H68.9402V3.5ZM67.9696 3.5H68.9402V4.47059H67.9696V3.5ZM67.9696 4.47059H68.9402V5.44118H67.9696V4.47059ZM68.9402 4.47059H69.9108V5.44118H68.9402V4.47059ZM69.9108 4.47059H70.8814V5.44118H69.9108V4.47059ZM70.8814 4.47059H71.852V5.44118H70.8814V4.47059ZM71.852 4.47059H72.8226V5.44118H71.852V4.47059ZM71.852 3.5H72.8226V4.47059H71.852V3.5ZM72.8226 3.5H73.7931V4.47059H72.8226V3.5ZM73.7931 3.5H74.7637V4.47059H73.7931V3.5ZM74.7637 3.5H75.7343V4.47059H74.7637V3.5ZM74.7637 1.55882H75.7343V2.52941H74.7637V1.55882ZM74.7637 2.52941H75.7343V3.5H74.7637V2.52941ZM73.7931 2.52941H74.7637V3.5H73.7931V2.52941ZM72.8226 2.52941H73.7931V3.5H72.8226V2.52941ZM73.7931 1.55882H74.7637V2.52941H73.7931V1.55882ZM72.8226 1.55882H73.7931V2.52941H72.8226V1.55882ZM71.852 2.52941H72.8226V3.5H71.852V2.52941ZM70.8814 2.52941H71.852V3.5H70.8814V2.52941ZM70.8814 3.5H71.852V4.47059H70.8814V3.5ZM69.9108 3.5H70.8814V4.47059H69.9108V3.5ZM69.9108 2.52941H70.8814V3.5H69.9108V2.52941ZM69.9108 5.44118H70.8814V6.41177H69.9108V5.44118ZM69.9108 6.41177H70.8814V7.38235H69.9108V6.41177ZM69.9108 7.38235H70.8814V8.35294H69.9108V7.38235ZM69.9108 8.35294H70.8814V9.32353H69.9108V8.35294ZM70.8814 8.35294H71.852V9.32353H70.8814V8.35294ZM70.8814 9.32353H71.852V10.2941H70.8814V9.32353ZM70.8814 7.38235H71.852V8.35294H70.8814V7.38235ZM70.8814 6.41177H71.852V7.38235H70.8814V6.41177ZM70.8814 5.44118H71.852V6.41177H70.8814V5.44118ZM70.8814 10.2941H71.852V11.2647H70.8814V10.2941ZM70.8814 11.2647H71.852V12.2353H70.8814V11.2647ZM69.9108 11.2647H70.8814V12.2353H69.9108V11.2647ZM68.9402 11.2647H69.9108V12.2353H68.9402V11.2647ZM67.9696 10.2941H68.9402V11.2647H67.9696V10.2941ZM67.9696 11.2647H68.9402V12.2353H67.9696V11.2647ZM67.9696 9.32353H68.9402V10.2941H67.9696V9.32353ZM67.9696 8.35294H68.9402V9.32353H67.9696V8.35294ZM67.9696 7.38235H68.9402V8.35294H67.9696V7.38235ZM67.9696 6.41177H68.9402V7.38235H67.9696V6.41177ZM67.9696 5.44118H68.9402V6.41177H67.9696V5.44118ZM68.9402 6.41177H69.9108V7.38235H68.9402V6.41177ZM68.9402 7.38235H69.9108V8.35294H68.9402V7.38235ZM68.9402 8.35294H69.9108V9.32353H68.9402V8.35294ZM68.9402 9.32353H69.9108V10.2941H68.9402V9.32353ZM68.9402 10.2941H69.9108V11.2647H68.9402V10.2941ZM69.9108 10.2941H70.8814V11.2647H69.9108V10.2941ZM69.9108 9.32353H70.8814V10.2941H69.9108V9.32353ZM68.9402 5.44118H69.9108V6.41177H68.9402V5.44118ZM83.5028 19.0294H84.4734V20H83.5028V19.0294ZM84.4734 19.0294H85.444V20H84.4734V19.0294ZM85.444 19.0294H86.4146V20H85.444V19.0294ZM86.4146 19.0294H87.3852V20H86.4146V19.0294ZM86.4146 18.0588H87.3852V19.0294H86.4146V18.0588ZM85.444 18.0588H86.4146V19.0294H85.444V18.0588ZM84.4734 18.0588H85.444V19.0294H84.4734V18.0588ZM83.5028 18.0588H84.4734V19.0294H83.5028V18.0588ZM83.5028 17.0882H84.4734V18.0588H83.5028V17.0882ZM83.5028 16.1176H84.4734V17.0882H83.5028V16.1176ZM83.5028 15.1471H84.4734V16.1176H83.5028V15.1471ZM83.5028 14.1765H84.4734V15.1471H83.5028V14.1765ZM83.5028 13.2059H84.4734V14.1765H83.5028V13.2059ZM83.5028 12.2353H84.4734V13.2059H83.5028V12.2353ZM83.5028 11.2647H84.4734V12.2353H83.5028V11.2647ZM84.4734 11.2647H85.444V12.2353H84.4734V11.2647ZM84.4734 10.2941H85.444V11.2647H84.4734V10.2941ZM84.4734 9.32353H85.444V10.2941H84.4734V9.32353ZM85.444 9.32353H86.4146V10.2941H85.444V9.32353ZM85.444 10.2941H86.4146V11.2647H85.444V10.2941ZM86.4146 10.2941H87.3852V11.2647H86.4146V10.2941ZM86.4146 11.2647H87.3852V12.2353H86.4146V11.2647ZM86.4146 12.2353H87.3852V13.2059H86.4146V12.2353ZM86.4146 13.2059H87.3852V14.1765H86.4146V13.2059ZM86.4146 14.1765H87.3852V15.1471H86.4146V14.1765ZM86.4146 15.1471H87.3852V16.1176H86.4146V15.1471ZM86.4146 16.1176H87.3852V17.0882H86.4146V16.1176ZM86.4146 17.0882H87.3852V18.0588H86.4146V17.0882ZM85.444 17.0882H86.4146V18.0588H85.444V17.0882ZM85.444 16.1176H86.4146V17.0882H85.444V16.1176ZM85.444 15.1471H86.4146V16.1176H85.444V15.1471ZM85.444 14.1765H86.4146V15.1471H85.444V14.1765ZM85.444 13.2059H86.4146V14.1765H85.444V13.2059ZM85.444 12.2353H86.4146V13.2059H85.444V12.2353ZM85.444 11.2647H86.4146V12.2353H85.444V11.2647ZM84.4734 12.2353H85.444V13.2059H84.4734V12.2353ZM84.4734 13.2059H85.444V14.1765H84.4734V13.2059ZM84.4734 14.1765H85.444V15.1471H84.4734V14.1765ZM84.4734 15.1471H85.444V16.1176H84.4734V15.1471ZM84.4734 16.1176H85.444V17.0882H84.4734V16.1176ZM84.4734 17.0882H85.444V18.0588H84.4734V17.0882ZM83.5028 0.588236H84.4734V1.55882H83.5028V0.588236ZM83.5028 1.55882H84.4734V2.52941H83.5028V1.55882ZM83.5028 3.5H84.4734V4.47059H83.5028V3.5ZM83.5028 4.47059H84.4734V5.44118H83.5028V4.47059ZM83.5028 5.44118H84.4734V6.41177H83.5028V5.44118ZM83.5028 6.41177H84.4734V7.38235H83.5028V6.41177ZM83.5028 7.38235H84.4734V8.35294H83.5028V7.38235ZM83.5028 8.35294H84.4734V9.32353H83.5028V8.35294ZM83.5028 9.32353H84.4734V10.2941H83.5028V9.32353ZM83.5028 10.2941H84.4734V11.2647H83.5028V10.2941ZM84.4734 6.41177H85.444V7.38235H84.4734V6.41177ZM84.4734 5.44118H85.444V6.41177H84.4734V5.44118ZM84.4734 4.47059H85.444V5.44118H84.4734V4.47059ZM84.4734 3.5H85.444V4.47059H84.4734V3.5ZM84.4734 2.52941H85.444V3.5H84.4734V2.52941ZM83.5028 2.52941H84.4734V3.5H83.5028V2.52941ZM84.4734 0.588236H85.444V1.55882H84.4734V0.588236ZM85.444 0.588236H86.4146V1.55882H85.444V0.588236ZM85.444 1.55882H86.4146V2.52941H85.444V1.55882ZM86.4146 2.52941H87.3852V3.5H86.4146V2.52941ZM86.4146 1.55882H87.3852V2.52941H86.4146V1.55882ZM86.4146 0.588236H87.3852V1.55882H86.4146V0.588236ZM86.4146 3.5H87.3852V4.47059H86.4146V3.5ZM86.4146 4.47059H87.3852V5.44118H86.4146V4.47059ZM86.4146 5.44118H87.3852V6.41177H86.4146V5.44118ZM86.4146 6.41177H87.3852V7.38235H86.4146V6.41177ZM86.4146 7.38235H87.3852V8.35294H86.4146V7.38235ZM86.4146 8.35294H87.3852V9.32353H86.4146V8.35294ZM86.4146 9.32353H87.3852V10.2941H86.4146V9.32353ZM85.444 8.35294H86.4146V9.32353H85.444V8.35294ZM85.444 7.38235H86.4146V8.35294H85.444V7.38235ZM85.444 6.41177H86.4146V7.38235H85.444V6.41177ZM84.4734 7.38235H85.444V8.35294H84.4734V7.38235ZM84.4734 8.35294H85.444V9.32353H84.4734V8.35294ZM85.444 5.44118H86.4146V6.41177H85.444V5.44118ZM85.444 2.52941H86.4146V3.5H85.444V2.52941ZM85.444 3.5H86.4146V4.47059H85.444V3.5ZM85.444 4.47059H86.4146V5.44118H85.444V4.47059ZM84.4734 1.55882H85.444V2.52941H84.4734V1.55882ZM93.2087 19.0294H94.1793V20H93.2087V19.0294ZM94.1793 19.0294H95.1499V20H94.1793V19.0294ZM95.1499 19.0294H96.1205V20H95.1499V19.0294ZM95.1499 18.0588H96.1205V19.0294H95.1499V18.0588ZM94.1793 18.0588H95.1499V19.0294H94.1793V18.0588ZM93.2087 18.0588H94.1793V19.0294H93.2087V18.0588ZM93.2087 17.0882H94.1793V18.0588H93.2087V17.0882ZM93.2087 16.1176H94.1793V17.0882H93.2087V16.1176ZM93.2087 15.1471H94.1793V16.1176H93.2087V15.1471ZM93.2087 14.1765H94.1793V15.1471H93.2087V14.1765ZM93.2087 13.2059H94.1793V14.1765H93.2087V13.2059ZM93.2087 12.2353H94.1793V13.2059H93.2087V12.2353ZM93.2087 11.2647H94.1793V12.2353H93.2087V11.2647ZM94.1793 11.2647H95.1499V12.2353H94.1793V11.2647ZM94.1793 10.2941H95.1499V11.2647H94.1793V10.2941ZM94.1793 9.32353H95.1499V10.2941H94.1793V9.32353ZM95.1499 9.32353H96.1205V10.2941H95.1499V9.32353ZM95.1499 10.2941H96.1205V11.2647H95.1499V10.2941ZM95.1499 17.0882H96.1205V18.0588H95.1499V17.0882ZM95.1499 16.1176H96.1205V17.0882H95.1499V16.1176ZM95.1499 15.1471H96.1205V16.1176H95.1499V15.1471ZM95.1499 14.1765H96.1205V15.1471H95.1499V14.1765ZM95.1499 13.2059H96.1205V14.1765H95.1499V13.2059ZM95.1499 12.2353H96.1205V13.2059H95.1499V12.2353ZM95.1499 11.2647H96.1205V12.2353H95.1499V11.2647ZM94.1793 12.2353H95.1499V13.2059H94.1793V12.2353ZM94.1793 13.2059H95.1499V14.1765H94.1793V13.2059ZM94.1793 14.1765H95.1499V15.1471H94.1793V14.1765ZM94.1793 15.1471H95.1499V16.1176H94.1793V15.1471ZM94.1793 16.1176H95.1499V17.0882H94.1793V16.1176ZM94.1793 17.0882H95.1499V18.0588H94.1793V17.0882ZM93.2087 0.588236H94.1793V1.55882H93.2087V0.588236ZM93.2087 1.55882H94.1793V2.52941H93.2087V1.55882ZM93.2087 3.5H94.1793V4.47059H93.2087V3.5ZM93.2087 4.47059H94.1793V5.44118H93.2087V4.47059ZM93.2087 5.44118H94.1793V6.41177H93.2087V5.44118ZM93.2087 6.41177H94.1793V7.38235H93.2087V6.41177ZM93.2087 7.38235H94.1793V8.35294H93.2087V7.38235ZM93.2087 8.35294H94.1793V9.32353H93.2087V8.35294ZM93.2087 9.32353H94.1793V10.2941H93.2087V9.32353ZM93.2087 10.2941H94.1793V11.2647H93.2087V10.2941ZM94.1793 6.41177H95.1499V7.38235H94.1793V6.41177ZM94.1793 5.44118H95.1499V6.41177H94.1793V5.44118ZM94.1793 4.47059H95.1499V5.44118H94.1793V4.47059ZM94.1793 3.5H95.1499V4.47059H94.1793V3.5ZM94.1793 2.52941H95.1499V3.5H94.1793V2.52941ZM93.2087 2.52941H94.1793V3.5H93.2087V2.52941ZM94.1793 0.588236H95.1499V1.55882H94.1793V0.588236ZM95.1499 0.588236H96.1205V1.55882H95.1499V0.588236ZM95.1499 1.55882H96.1205V2.52941H95.1499V1.55882ZM95.1499 8.35294H96.1205V9.32353H95.1499V8.35294ZM95.1499 7.38235H96.1205V8.35294H95.1499V7.38235ZM95.1499 6.41177H96.1205V7.38235H95.1499V6.41177ZM94.1793 7.38235H95.1499V8.35294H94.1793V7.38235ZM94.1793 8.35294H95.1499V9.32353H94.1793V8.35294ZM95.1499 5.44118H96.1205V6.41177H95.1499V5.44118ZM95.1499 2.52941H96.1205V3.5H95.1499V2.52941ZM95.1499 3.5H96.1205V4.47059H95.1499V3.5ZM95.1499 4.47059H96.1205V5.44118H95.1499V4.47059ZM94.1793 1.55882H95.1499V2.52941H94.1793V1.55882ZM87.3852 8.35294H88.3558V9.32353H87.3852V8.35294ZM88.3558 8.35294H89.3263V9.32353H88.3558V8.35294ZM89.3263 8.35294H90.2969V9.32353H89.3263V8.35294ZM90.2969 8.35294H91.2675V9.32353H90.2969V8.35294ZM91.2675 8.35294H92.2381V9.32353H91.2675V8.35294ZM92.2381 8.35294H93.2087V9.32353H92.2381V8.35294ZM92.2381 11.2647H93.2087V12.2353H92.2381V11.2647ZM91.2675 11.2647H92.2381V12.2353H91.2675V11.2647ZM91.2675 10.2941H92.2381V11.2647H91.2675V10.2941ZM90.2969 10.2941H91.2675V11.2647H90.2969V10.2941ZM89.3263 10.2941H90.2969V11.2647H89.3263V10.2941ZM88.3558 10.2941H89.3263V11.2647H88.3558V10.2941ZM87.3852 10.2941H88.3558V11.2647H87.3852V10.2941ZM87.3852 11.2647H88.3558V12.2353H87.3852V11.2647ZM88.3558 11.2647H89.3263V12.2353H88.3558V11.2647ZM89.3263 11.2647H90.2969V12.2353H89.3263V11.2647ZM90.2969 11.2647H91.2675V12.2353H90.2969V11.2647ZM92.2381 10.2941H93.2087V11.2647H92.2381V10.2941ZM91.2675 9.32353H92.2381V10.2941H91.2675V9.32353ZM90.2969 9.32353H91.2675V10.2941H90.2969V9.32353ZM87.3852 9.32353H88.3558V10.2941H87.3852V9.32353ZM88.3558 9.32353H89.3263V10.2941H88.3558V9.32353ZM89.3263 9.32353H90.2969V10.2941H89.3263V9.32353ZM92.2381 9.32353H93.2087V10.2941H92.2381V9.32353ZM92.2381 0.588236H93.2087V1.55882H92.2381V0.588236ZM92.2381 1.55882H93.2087V2.52941H92.2381V1.55882ZM92.2381 2.52941H93.2087V3.5H92.2381V2.52941ZM92.2381 3.5H93.2087V4.47059H92.2381V3.5ZM92.2381 4.47059H93.2087V5.44118H92.2381V4.47059ZM92.2381 5.44118H93.2087V6.41177H92.2381V5.44118ZM92.2381 6.41177H93.2087V7.38235H92.2381V6.41177ZM92.2381 7.38235H93.2087V8.35294H92.2381V7.38235ZM92.2381 12.2353H93.2087V13.2059H92.2381V12.2353ZM92.2381 13.2059H93.2087V14.1765H92.2381V13.2059ZM92.2381 15.1471H93.2087V16.1176H92.2381V15.1471ZM92.2381 16.1176H93.2087V17.0882H92.2381V16.1176ZM92.2381 17.0882H93.2087V18.0588H92.2381V17.0882ZM92.2381 18.0588H93.2087V19.0294H92.2381V18.0588ZM92.2381 19.0294H93.2087V20H92.2381V19.0294ZM92.2381 14.1765H93.2087V15.1471H92.2381V14.1765ZM99.036 19.0294H100.007V20H99.036V19.0294ZM100.007 19.0294H100.977V20H100.007V19.0294ZM100.977 19.0294H101.948V20H100.977V19.0294ZM101.948 19.0294H102.918V20H101.948V19.0294ZM101.948 18.0588H102.918V19.0294H101.948V18.0588ZM100.977 18.0588H101.948V19.0294H100.977V18.0588ZM100.007 18.0588H100.977V19.0294H100.007V18.0588ZM99.036 18.0588H100.007V19.0294H99.036V18.0588ZM99.036 17.0882H100.007V18.0588H99.036V17.0882ZM99.036 16.1176H100.007V17.0882H99.036V16.1176ZM99.036 15.1471H100.007V16.1176H99.036V15.1471ZM99.036 14.1765H100.007V15.1471H99.036V14.1765ZM99.036 13.2059H100.007V14.1765H99.036V13.2059ZM99.036 12.2353H100.007V13.2059H99.036V12.2353ZM99.036 11.2647H100.007V12.2353H99.036V11.2647ZM100.007 11.2647H100.977V12.2353H100.007V11.2647ZM100.007 10.2941H100.977V11.2647H100.007V10.2941ZM100.007 9.32353H100.977V10.2941H100.007V9.32353ZM100.977 9.32353H101.948V10.2941H100.977V9.32353ZM100.977 10.2941H101.948V11.2647H100.977V10.2941ZM101.948 10.2941H102.918V11.2647H101.948V10.2941ZM101.948 11.2647H102.918V12.2353H101.948V11.2647ZM101.948 12.2353H102.918V13.2059H101.948V12.2353ZM101.948 13.2059H102.918V14.1765H101.948V13.2059ZM101.948 14.1765H102.918V15.1471H101.948V14.1765ZM101.948 15.1471H102.918V16.1176H101.948V15.1471ZM101.948 16.1176H102.918V17.0882H101.948V16.1176ZM101.948 17.0882H102.918V18.0588H101.948V17.0882ZM100.977 17.0882H101.948V18.0588H100.977V17.0882ZM100.977 16.1176H101.948V17.0882H100.977V16.1176ZM100.977 15.1471H101.948V16.1176H100.977V15.1471ZM100.977 14.1765H101.948V15.1471H100.977V14.1765ZM100.977 13.2059H101.948V14.1765H100.977V13.2059ZM100.977 12.2353H101.948V13.2059H100.977V12.2353ZM100.977 11.2647H101.948V12.2353H100.977V11.2647ZM100.007 12.2353H100.977V13.2059H100.007V12.2353ZM100.007 13.2059H100.977V14.1765H100.007V13.2059ZM100.007 14.1765H100.977V15.1471H100.007V14.1765ZM100.007 15.1471H100.977V16.1176H100.007V15.1471ZM100.007 16.1176H100.977V17.0882H100.007V16.1176ZM100.007 17.0882H100.977V18.0588H100.007V17.0882ZM99.036 0.588236H100.007V1.55882H99.036V0.588236ZM99.036 1.55882H100.007V2.52941H99.036V1.55882ZM99.036 3.5H100.007V4.47059H99.036V3.5ZM99.036 4.47059H100.007V5.44118H99.036V4.47059ZM99.036 5.44118H100.007V6.41177H99.036V5.44118ZM99.036 6.41177H100.007V7.38235H99.036V6.41177ZM99.036 7.38235H100.007V8.35294H99.036V7.38235ZM99.036 8.35294H100.007V9.32353H99.036V8.35294ZM99.036 9.32353H100.007V10.2941H99.036V9.32353ZM99.036 10.2941H100.007V11.2647H99.036V10.2941ZM100.007 6.41177H100.977V7.38235H100.007V6.41177ZM100.007 5.44118H100.977V6.41177H100.007V5.44118ZM100.007 4.47059H100.977V5.44118H100.007V4.47059ZM100.007 3.5H100.977V4.47059H100.007V3.5ZM100.007 2.52941H100.977V3.5H100.007V2.52941ZM99.036 2.52941H100.007V3.5H99.036V2.52941ZM100.007 0.588236H100.977V1.55882H100.007V0.588236ZM100.977 0.588236H101.948V1.55882H100.977V0.588236ZM100.977 1.55882H101.948V2.52941H100.977V1.55882ZM101.948 2.52941H102.918V3.5H101.948V2.52941ZM101.948 1.55882H102.918V2.52941H101.948V1.55882ZM101.948 0.588236H102.918V1.55882H101.948V0.588236ZM101.948 3.5H102.918V4.47059H101.948V3.5ZM101.948 4.47059H102.918V5.44118H101.948V4.47059ZM101.948 5.44118H102.918V6.41177H101.948V5.44118ZM101.948 6.41177H102.918V7.38235H101.948V6.41177ZM101.948 7.38235H102.918V8.35294H101.948V7.38235ZM101.948 8.35294H102.918V9.32353H101.948V8.35294ZM101.948 9.32353H102.918V10.2941H101.948V9.32353ZM100.977 8.35294H101.948V9.32353H100.977V8.35294ZM100.977 7.38235H101.948V8.35294H100.977V7.38235ZM100.977 6.41177H101.948V7.38235H100.977V6.41177ZM100.007 7.38235H100.977V8.35294H100.007V7.38235ZM100.007 8.35294H100.977V9.32353H100.007V8.35294ZM100.977 5.44118H101.948V6.41177H100.977V5.44118ZM100.977 2.52941H101.948V3.5H100.977V2.52941ZM100.977 3.5H101.948V4.47059H100.977V3.5ZM100.977 4.47059H101.948V5.44118H100.977V4.47059ZM100.007 1.55882H100.977V2.52941H100.007V1.55882ZM102.918 19.0294H103.889V20H102.918V19.0294ZM102.918 18.0588H103.889V19.0294H102.918V18.0588ZM102.918 17.0882H103.889V18.0588H102.918V17.0882ZM102.918 16.1176H103.889V17.0882H102.918V16.1176ZM103.889 16.1176H104.86V17.0882H103.889V16.1176ZM104.86 16.1176H105.83V17.0882H104.86V16.1176ZM105.83 16.1176H106.801V17.0882H105.83V16.1176ZM106.801 16.1176H107.771V17.0882H106.801V16.1176ZM106.801 18.0588H107.771V19.0294H106.801V18.0588ZM105.83 18.0588H106.801V19.0294H105.83V18.0588ZM104.86 18.0588H105.83V19.0294H104.86V18.0588ZM103.889 18.0588H104.86V19.0294H103.889V18.0588ZM103.889 17.0882H104.86V18.0588H103.889V17.0882ZM104.86 17.0882H105.83V18.0588H104.86V17.0882ZM105.83 17.0882H106.801V18.0588H105.83V17.0882ZM106.801 17.0882H107.771V18.0588H106.801V17.0882ZM106.801 19.0294H107.771V20H106.801V19.0294ZM105.83 19.0294H106.801V20H105.83V19.0294ZM104.86 19.0294H105.83V20H104.86V19.0294ZM103.889 19.0294H104.86V20H103.889V19.0294ZM102.918 0.588236H103.889V1.55882H102.918V0.588236ZM103.889 0.588236H104.86V1.55882H103.889V0.588236ZM104.86 0.588236H105.83V1.55882H104.86V0.588236ZM105.83 0.588236H106.801V1.55882H105.83V0.588236ZM106.801 0.588236H107.771V1.55882H106.801V0.588236ZM106.801 1.55882H107.771V2.52941H106.801V1.55882ZM106.801 2.52941H107.771V3.5H106.801V2.52941ZM106.801 3.5H107.771V4.47059H106.801V3.5ZM105.83 3.5H106.801V4.47059H105.83V3.5ZM104.86 3.5H105.83V4.47059H104.86V3.5ZM103.889 3.5H104.86V4.47059H103.889V3.5ZM102.918 3.5H103.889V4.47059H102.918V3.5ZM102.918 2.52941H103.889V3.5H102.918V2.52941ZM102.918 1.55882H103.889V2.52941H102.918V1.55882ZM103.889 1.55882H104.86V2.52941H103.889V1.55882ZM104.86 1.55882H105.83V2.52941H104.86V1.55882ZM105.83 1.55882H106.801V2.52941H105.83V1.55882ZM105.83 2.52941H106.801V3.5H105.83V2.52941ZM104.86 2.52941H105.83V3.5H104.86V2.52941ZM103.889 2.52941H104.86V3.5H103.889V2.52941ZM107.771 0.588236H108.742V1.55882H107.771V0.588236ZM108.742 0.588236H109.712V1.55882H108.742V0.588236ZM109.712 0.588236H110.683V1.55882H109.712V0.588236ZM109.712 1.55882H110.683V2.52941H109.712V1.55882ZM109.712 2.52941H110.683V3.5H109.712V2.52941ZM109.712 3.5H110.683V4.47059H109.712V3.5ZM108.742 3.5H109.712V4.47059H108.742V3.5ZM107.771 3.5H108.742V4.47059H107.771V3.5ZM107.771 2.52941H108.742V3.5H107.771V2.52941ZM107.771 1.55882H108.742V2.52941H107.771V1.55882ZM108.742 1.55882H109.712V2.52941H108.742V1.55882ZM108.742 2.52941H109.712V3.5H108.742V2.52941ZM107.771 16.1176H108.742V17.0882H107.771V16.1176ZM108.742 16.1176H109.712V17.0882H108.742V16.1176ZM109.712 16.1176H110.683V17.0882H109.712V16.1176ZM109.712 17.0882H110.683V18.0588H109.712V17.0882ZM109.712 18.0588H110.683V19.0294H109.712V18.0588ZM109.712 19.0294H110.683V20H109.712V19.0294ZM108.742 19.0294H109.712V20H108.742V19.0294ZM107.771 19.0294H108.742V20H107.771V19.0294ZM107.771 18.0588H108.742V19.0294H107.771V18.0588ZM107.771 17.0882H108.742V18.0588H107.771V17.0882ZM108.742 17.0882H109.712V18.0588H108.742V17.0882ZM108.742 18.0588H109.712V19.0294H108.742V18.0588ZM102.918 9.32353H103.889V10.2941H102.918V9.32353ZM102.918 8.35294H103.889V9.32353H102.918V8.35294ZM102.918 10.2941H103.889V11.2647H102.918V10.2941ZM102.918 11.2647H103.889V12.2353H102.918V11.2647ZM103.889 11.2647H104.86V12.2353H103.889V11.2647ZM104.86 11.2647H105.83V12.2353H104.86V11.2647ZM105.83 11.2647H106.801V12.2353H105.83V11.2647ZM106.801 11.2647H107.771V12.2353H106.801V11.2647ZM106.801 10.2941H107.771V11.2647H106.801V10.2941ZM106.801 9.32353H107.771V10.2941H106.801V9.32353ZM106.801 8.35294H107.771V9.32353H106.801V8.35294ZM105.83 8.35294H106.801V9.32353H105.83V8.35294ZM104.86 8.35294H105.83V9.32353H104.86V8.35294ZM103.889 8.35294H104.86V9.32353H103.889V8.35294ZM103.889 9.32353H104.86V10.2941H103.889V9.32353ZM103.889 10.2941H104.86V11.2647H103.889V10.2941ZM104.86 10.2941H105.83V11.2647H104.86V10.2941ZM105.83 10.2941H106.801V11.2647H105.83V10.2941ZM105.83 9.32353H106.801V10.2941H105.83V9.32353ZM104.86 9.32353H105.83V10.2941H104.86V9.32353ZM107.771 8.35294H108.742V9.32353H107.771V8.35294ZM107.771 9.32353H108.742V10.2941H107.771V9.32353ZM107.771 10.2941H108.742V11.2647H107.771V10.2941ZM107.771 11.2647H108.742V12.2353H107.771V11.2647ZM125.249 10.2941H126.22V11.2647H125.249V10.2941ZM125.249 9.32353H126.22V10.2941H125.249V9.32353ZM125.249 8.35294H126.22V9.32353H125.249V8.35294ZM125.249 7.38235H126.22V8.35294H125.249V7.38235ZM125.249 6.41177H126.22V7.38235H125.249V6.41177ZM125.249 5.44118H126.22V6.41177H125.249V5.44118ZM125.249 4.47059H126.22V5.44118H125.249V4.47059ZM125.249 3.5H126.22V4.47059H125.249V3.5ZM124.279 3.5H125.249V4.47059H124.279V3.5ZM124.279 2.52941H125.249V3.5H124.279V2.52941ZM124.279 1.55882H125.249V2.52941H124.279V1.55882ZM123.308 1.55882H124.279V2.52941H123.308V1.55882ZM123.308 2.52941H124.279V3.5H123.308V2.52941ZM123.308 3.5H124.279V4.47059H123.308V3.5ZM123.308 4.47059H124.279V5.44118H123.308V4.47059ZM123.308 5.44118H124.279V6.41177H123.308V5.44118ZM123.308 6.41177H124.279V7.38235H123.308V6.41177ZM123.308 7.38235H124.279V8.35294H123.308V7.38235ZM123.308 8.35294H124.279V9.32353H123.308V8.35294ZM123.308 9.32353H124.279V10.2941H123.308V9.32353ZM123.308 10.2941H124.279V11.2647H123.308V10.2941ZM123.308 11.2647H124.279V12.2353H123.308V11.2647ZM123.308 12.2353H124.279V13.2059H123.308V12.2353ZM124.279 11.2647H125.249V12.2353H124.279V11.2647ZM124.279 10.2941H125.249V11.2647H124.279V10.2941ZM124.279 9.32353H125.249V10.2941H124.279V9.32353ZM124.279 8.35294H125.249V9.32353H124.279V8.35294ZM124.279 7.38235H125.249V8.35294H124.279V7.38235ZM124.279 6.41177H125.249V7.38235H124.279V6.41177ZM124.279 5.44118H125.249V6.41177H124.279V5.44118ZM124.279 4.47059H125.249V5.44118H124.279V4.47059ZM122.338 4.47059H123.308V5.44118H122.338V4.47059ZM121.367 4.47059H122.338V5.44118H121.367V4.47059ZM122.338 3.5H123.308V4.47059H122.338V3.5ZM121.367 3.5H122.338V4.47059H121.367V3.5ZM120.397 3.5H121.367V4.47059H120.397V3.5ZM119.426 3.5H120.397V4.47059H119.426V3.5ZM118.455 3.5H119.426V4.47059H118.455V3.5ZM117.485 3.5H118.455V4.47059H117.485V3.5ZM116.514 3.5H117.485V4.47059H116.514V3.5ZM116.514 4.47059H117.485V5.44118H116.514V4.47059ZM116.514 5.44118H117.485V6.41177H116.514V5.44118ZM116.514 6.41177H117.485V7.38235H116.514V6.41177ZM116.514 7.38235H117.485V8.35294H116.514V7.38235ZM116.514 8.35294H117.485V9.32353H116.514V8.35294ZM116.514 9.32353H117.485V10.2941H116.514V9.32353ZM116.514 10.2941H117.485V11.2647H116.514V10.2941ZM117.485 10.2941H118.455V11.2647H117.485V10.2941ZM117.485 11.2647H118.455V12.2353H117.485V11.2647ZM118.455 11.2647H119.426V12.2353H118.455V11.2647ZM119.426 11.2647H120.397V12.2353H119.426V11.2647ZM120.397 11.2647H121.367V12.2353H120.397V11.2647ZM121.367 11.2647H122.338V12.2353H121.367V11.2647ZM121.367 10.2941H122.338V11.2647H121.367V10.2941ZM120.397 10.2941H121.367V11.2647H120.397V10.2941ZM119.426 10.2941H120.397V11.2647H119.426V10.2941ZM118.455 10.2941H119.426V11.2647H118.455V10.2941ZM122.338 10.2941H123.308V11.2647H122.338V10.2941ZM122.338 9.32353H123.308V10.2941H122.338V9.32353ZM121.367 9.32353H122.338V10.2941H121.367V9.32353ZM122.338 8.35294H123.308V9.32353H122.338V8.35294ZM122.338 5.44118H123.308V6.41177H122.338V5.44118ZM122.338 6.41177H123.308V7.38235H122.338V6.41177ZM122.338 7.38235H123.308V8.35294H122.338V7.38235ZM122.338 11.2647H123.308V12.2353H122.338V11.2647ZM122.338 12.2353H123.308V13.2059H122.338V12.2353ZM122.338 13.2059H123.308V14.1765H122.338V13.2059ZM121.367 13.2059H122.338V14.1765H121.367V13.2059ZM120.397 13.2059H121.367V14.1765H120.397V13.2059ZM119.426 13.2059H120.397V14.1765H119.426V13.2059ZM118.455 13.2059H119.426V14.1765H118.455V13.2059ZM118.455 12.2353H119.426V13.2059H118.455V12.2353ZM117.485 12.2353H118.455V13.2059H117.485V12.2353ZM117.485 13.2059H118.455V14.1765H117.485V13.2059ZM119.426 12.2353H120.397V13.2059H119.426V12.2353ZM120.397 12.2353H121.367V13.2059H120.397V12.2353ZM121.367 12.2353H122.338V13.2059H121.367V12.2353ZM122.338 0.588236H123.308V1.55882H122.338V0.588236ZM122.338 1.55882H123.308V2.52941H122.338V1.55882ZM122.338 2.52941H123.308V3.5H122.338V2.52941ZM121.367 2.52941H122.338V3.5H121.367V2.52941ZM121.367 1.55882H122.338V2.52941H121.367V1.55882ZM121.367 0.588236H122.338V1.55882H121.367V0.588236ZM120.397 0.588236H121.367V1.55882H120.397V0.588236ZM119.426 0.588236H120.397V1.55882H119.426V0.588236ZM118.455 0.588236H119.426V1.55882H118.455V0.588236ZM117.485 0.588236H118.455V1.55882H117.485V0.588236ZM116.514 0.588236H117.485V1.55882H116.514V0.588236ZM115.544 0.588236H116.514V1.55882H115.544V0.588236ZM114.573 0.588236H115.544V1.55882H114.573V0.588236ZM113.602 0.588236H114.573V1.55882H113.602V0.588236ZM113.602 1.55882H114.573V2.52941H113.602V1.55882ZM113.602 2.52941H114.573V3.5H113.602V2.52941ZM113.602 3.5H114.573V4.47059H113.602V3.5ZM114.573 3.5H115.544V4.47059H114.573V3.5ZM114.573 2.52941H115.544V3.5H114.573V2.52941ZM115.544 2.52941H116.514V3.5H115.544V2.52941ZM116.514 2.52941H117.485V3.5H116.514V2.52941ZM117.485 2.52941H118.455V3.5H117.485V2.52941ZM118.455 2.52941H119.426V3.5H118.455V2.52941ZM119.426 2.52941H120.397V3.5H119.426V2.52941ZM120.397 2.52941H121.367V3.5H120.397V2.52941ZM120.397 1.55882H121.367V2.52941H120.397V1.55882ZM119.426 1.55882H120.397V2.52941H119.426V1.55882ZM118.455 1.55882H119.426V2.52941H118.455V1.55882ZM117.485 1.55882H118.455V2.52941H117.485V1.55882ZM116.514 1.55882H117.485V2.52941H116.514V1.55882ZM115.544 1.55882H116.514V2.52941H115.544V1.55882ZM114.573 4.47059H115.544V5.44118H114.573V4.47059ZM114.573 5.44118H115.544V6.41177H114.573V5.44118ZM114.573 1.55882H115.544V2.52941H114.573V1.55882ZM115.544 3.5H116.514V4.47059H115.544V3.5ZM115.544 4.47059H116.514V5.44118H115.544V4.47059ZM115.544 5.44118H116.514V6.41177H115.544V5.44118ZM115.544 6.41177H116.514V7.38235H115.544V6.41177ZM115.544 7.38235H116.514V8.35294H115.544V7.38235ZM115.544 8.35294H116.514V9.32353H115.544V8.35294ZM115.544 9.32353H116.514V10.2941H115.544V9.32353ZM115.544 10.2941H116.514V11.2647H115.544V10.2941ZM114.573 10.2941H115.544V11.2647H114.573V10.2941ZM114.573 9.32353H115.544V10.2941H114.573V9.32353ZM114.573 8.35294H115.544V9.32353H114.573V8.35294ZM114.573 7.38235H115.544V8.35294H114.573V7.38235ZM113.602 6.41177H114.573V7.38235H113.602V6.41177ZM113.602 5.44118H114.573V6.41177H113.602V5.44118ZM113.602 4.47059H114.573V5.44118H113.602V4.47059ZM113.602 7.38235H114.573V8.35294H113.602V7.38235ZM113.602 8.35294H114.573V9.32353H113.602V8.35294ZM114.573 6.41177H115.544V7.38235H114.573V6.41177ZM113.602 9.32353H114.573V10.2941H113.602V9.32353ZM113.602 10.2941H114.573V11.2647H113.602V10.2941ZM113.602 11.2647H114.573V12.2353H113.602V11.2647ZM113.602 12.2353H114.573V13.2059H113.602V12.2353ZM114.573 12.2353H115.544V13.2059H114.573V12.2353ZM115.544 12.2353H116.514V13.2059H115.544V12.2353ZM116.514 12.2353H117.485V13.2059H116.514V12.2353ZM116.514 13.2059H117.485V14.1765H116.514V13.2059ZM115.544 13.2059H116.514V14.1765H115.544V13.2059ZM114.573 13.2059H115.544V14.1765H114.573V13.2059ZM113.602 13.2059H114.573V14.1765H113.602V13.2059ZM114.573 11.2647H115.544V12.2353H114.573V11.2647ZM115.544 11.2647H116.514V12.2353H115.544V11.2647ZM116.514 11.2647H117.485V12.2353H116.514V11.2647ZM113.602 14.1765H114.573V15.1471H113.602V14.1765ZM113.602 15.1471H114.573V16.1176H113.602V15.1471ZM113.602 16.1176H114.573V17.0882H113.602V16.1176ZM113.602 17.0882H114.573V18.0588H113.602V17.0882ZM113.602 18.0588H114.573V19.0294H113.602V18.0588ZM113.602 19.0294H114.573V20H113.602V19.0294ZM114.573 19.0294H115.544V20H114.573V19.0294ZM115.544 19.0294H116.514V20H115.544V19.0294ZM116.514 19.0294H117.485V20H116.514V19.0294ZM116.514 18.0588H117.485V19.0294H116.514V18.0588ZM116.514 17.0882H117.485V18.0588H116.514V17.0882ZM116.514 16.1176H117.485V17.0882H116.514V16.1176ZM116.514 15.1471H117.485V16.1176H116.514V15.1471ZM116.514 14.1765H117.485V15.1471H116.514V14.1765ZM115.544 14.1765H116.514V15.1471H115.544V14.1765ZM114.573 14.1765H115.544V15.1471H114.573V14.1765ZM114.573 15.1471H115.544V16.1176H114.573V15.1471ZM114.573 16.1176H115.544V17.0882H114.573V16.1176ZM114.573 17.0882H115.544V18.0588H114.573V17.0882ZM114.573 18.0588H115.544V19.0294H114.573V18.0588ZM115.544 18.0588H116.514V19.0294H115.544V18.0588ZM115.544 17.0882H116.514V18.0588H115.544V17.0882ZM115.544 16.1176H116.514V17.0882H115.544V16.1176ZM115.544 15.1471H116.514V16.1176H115.544V15.1471ZM125.249 15.1471H126.22V16.1176H125.249V15.1471ZM125.249 16.1176H126.22V17.0882H125.249V16.1176ZM125.249 17.0882H126.22V18.0588H125.249V17.0882ZM125.249 18.0588H126.22V19.0294H125.249V18.0588ZM125.249 19.0294H126.22V20H125.249V19.0294ZM124.279 19.0294H125.249V20H124.279V19.0294ZM123.308 19.0294H124.279V20H123.308V19.0294ZM122.338 19.0294H123.308V20H122.338V19.0294ZM122.338 18.0588H123.308V19.0294H122.338V18.0588ZM122.338 17.0882H123.308V18.0588H122.338V17.0882ZM122.338 16.1176H123.308V17.0882H122.338V16.1176ZM123.308 16.1176H124.279V17.0882H123.308V16.1176ZM124.279 15.1471H125.249V16.1176H124.279V15.1471ZM124.279 16.1176H125.249V17.0882H124.279V16.1176ZM124.279 17.0882H125.249V18.0588H124.279V17.0882ZM123.308 17.0882H124.279V18.0588H123.308V17.0882ZM123.308 18.0588H124.279V19.0294H123.308V18.0588ZM124.279 18.0588H125.249V19.0294H124.279V18.0588ZM123.308 15.1471H124.279V16.1176H123.308V15.1471ZM122.338 15.1471H123.308V16.1176H122.338V15.1471ZM122.338 14.1765H123.308V15.1471H122.338V14.1765ZM123.308 14.1765H124.279V15.1471H123.308V14.1765ZM125.249 14.1765H126.22V15.1471H125.249V14.1765ZM124.279 14.1765H125.249V15.1471H124.279V14.1765ZM124.279 13.2059H125.249V14.1765H124.279V13.2059ZM123.308 13.2059H124.279V14.1765H123.308V13.2059ZM120.397 14.1765H121.367V15.1471H120.397V14.1765ZM121.367 14.1765H122.338V15.1471H121.367V14.1765ZM121.367 15.1471H122.338V16.1176H121.367V15.1471Z" fill="#637EFF"/>
</svg>
