<svg width="133" height="20" viewBox="0 0 133 20" fill="none" xmlns="http://www.w3.org/2000/svg">
<path d="M0.970588 19.0294H1.94118V20H0.970588V19.0294ZM1.94118 19.0294H2.91176V20H1.94118V19.0294ZM2.91176 19.0294H3.88235V20H2.91176V19.0294ZM3.88235 19.0294H4.85294V20H3.88235V19.0294ZM3.88235 18.0588H4.85294V19.0294H3.88235V18.0588ZM3.88235 17.0882H4.85294V18.0588H3.88235V17.0882ZM3.88235 16.1176H4.85294V17.0882H3.88235V16.1176ZM3.88235 15.1471H4.85294V16.1176H3.88235V15.1471ZM2.91176 15.1471H3.88235V16.1176H2.91176V15.1471ZM1.94118 15.1471H2.91176V16.1176H1.94118V15.1471ZM1.94118 16.1176H2.91176V17.0882H1.94118V16.1176ZM1.94118 17.0882H2.91176V18.0588H1.94118V17.0882ZM0.970588 17.0882H1.94118V18.0588H0.970588V17.0882ZM0.970588 18.0588H1.94118V19.0294H0.970588V18.0588ZM1.94118 18.0588H2.91176V19.0294H1.94118V18.0588ZM2.91176 18.0588H3.88235V19.0294H2.91176V18.0588ZM2.91176 17.0882H3.88235V18.0588H2.91176V17.0882ZM2.91176 16.1176H3.88235V17.0882H2.91176V16.1176ZM0.970588 16.1176H1.94118V17.0882H0.970588V16.1176ZM0.970588 15.1471H1.94118V16.1176H0.970588V15.1471ZM0.970588 14.1765H1.94118V15.1471H0.970588V14.1765ZM0.970588 13.2059H1.94118V14.1765H0.970588V13.2059ZM0.970588 12.2353H1.94118V13.2059H0.970588V12.2353ZM0.970588 11.2647H1.94118V12.2353H0.970588V11.2647ZM0.970588 10.2941H1.94118V11.2647H0.970588V10.2941ZM0.970588 9.32353H1.94118V10.2941H0.970588V9.32353ZM0.970588 8.35294H1.94118V9.32353H0.970588V8.35294ZM0.970588 7.38235H1.94118V8.35294H0.970588V7.38235ZM0.970588 6.41177H1.94118V7.38235H0.970588V6.41177ZM1.94118 6.41177H2.91176V7.38235H1.94118V6.41177ZM2.91176 6.41177H3.88235V7.38235H2.91176V6.41177ZM2.91176 7.38235H3.88235V8.35294H2.91176V7.38235ZM3.88235 7.38235H4.85294V8.35294H3.88235V7.38235ZM3.88235 8.35294H4.85294V9.32353H3.88235V8.35294ZM3.88235 9.32353H4.85294V10.2941H3.88235V9.32353ZM3.88235 10.2941H4.85294V11.2647H3.88235V10.2941ZM3.88235 12.2353H4.85294V13.2059H3.88235V12.2353ZM3.88235 13.2059H4.85294V14.1765H3.88235V13.2059ZM3.88235 14.1765H4.85294V15.1471H3.88235V14.1765ZM2.91176 14.1765H3.88235V15.1471H2.91176V14.1765ZM2.91176 13.2059H3.88235V14.1765H2.91176V13.2059ZM2.91176 12.2353H3.88235V13.2059H2.91176V12.2353ZM2.91176 11.2647H3.88235V12.2353H2.91176V11.2647ZM2.91176 10.2941H3.88235V11.2647H2.91176V10.2941ZM2.91176 9.32353H3.88235V10.2941H2.91176V9.32353ZM2.91176 8.35294H3.88235V9.32353H2.91176V8.35294ZM1.94118 8.35294H2.91176V9.32353H1.94118V8.35294ZM1.94118 7.38235H2.91176V8.35294H1.94118V7.38235ZM1.94118 9.32353H2.91176V10.2941H1.94118V9.32353ZM1.94118 10.2941H2.91176V11.2647H1.94118V10.2941ZM1.94118 12.2353H2.91176V13.2059H1.94118V12.2353ZM1.94118 13.2059H2.91176V14.1765H1.94118V13.2059ZM1.94118 14.1765H2.91176V15.1471H1.94118V14.1765ZM1.94118 11.2647H2.91176V12.2353H1.94118V11.2647ZM3.88235 11.2647H4.85294V12.2353H3.88235V11.2647ZM4.85294 11.2647H5.82353V12.2353H4.85294V11.2647ZM6.79412 11.2647H7.76471V12.2353H6.79412V11.2647ZM7.76471 11.2647H8.73529V12.2353H7.76471V11.2647ZM8.73529 11.2647H9.70588V12.2353H8.73529V11.2647ZM9.70588 11.2647H10.6765V12.2353H9.70588V11.2647ZM10.6765 11.2647H11.6471V12.2353H10.6765V11.2647ZM11.6471 11.2647H12.6176V12.2353H11.6471V11.2647ZM11.6471 12.2353H12.6176V13.2059H11.6471V12.2353ZM11.6471 13.2059H12.6176V14.1765H11.6471V13.2059ZM11.6471 14.1765H12.6176V15.1471H11.6471V14.1765ZM10.6765 14.1765H11.6471V15.1471H10.6765V14.1765ZM9.70588 14.1765H10.6765V15.1471H9.70588V14.1765ZM8.73529 14.1765H9.70588V15.1471H8.73529V14.1765ZM7.76471 14.1765H8.73529V15.1471H7.76471V14.1765ZM6.79412 13.2059H7.76471V14.1765H6.79412V13.2059ZM5.82353 13.2059H6.79412V14.1765H5.82353V13.2059ZM4.85294 13.2059H5.82353V14.1765H4.85294V13.2059ZM4.85294 12.2353H5.82353V13.2059H4.85294V12.2353ZM5.82353 11.2647H6.79412V12.2353H5.82353V11.2647ZM5.82353 12.2353H6.79412V13.2059H5.82353V12.2353ZM4.85294 14.1765H5.82353V15.1471H4.85294V14.1765ZM5.82353 14.1765H6.79412V15.1471H5.82353V14.1765ZM6.79412 14.1765H7.76471V15.1471H6.79412V14.1765ZM8.73529 13.2059H9.70588V14.1765H8.73529V13.2059ZM8.73529 12.2353H9.70588V13.2059H8.73529V12.2353ZM7.76471 12.2353H8.73529V13.2059H7.76471V12.2353ZM6.79412 12.2353H7.76471V13.2059H6.79412V12.2353ZM7.76471 13.2059H8.73529V14.1765H7.76471V13.2059ZM9.70588 12.2353H10.6765V13.2059H9.70588V12.2353ZM10.6765 12.2353H11.6471V13.2059H10.6765V12.2353ZM10.6765 13.2059H11.6471V14.1765H10.6765V13.2059ZM9.70588 13.2059H10.6765V14.1765H9.70588V13.2059ZM10.6765 15.1471H11.6471V16.1176H10.6765V15.1471ZM10.6765 16.1176H11.6471V17.0882H10.6765V16.1176ZM10.6765 17.0882H11.6471V18.0588H10.6765V17.0882ZM10.6765 18.0588H11.6471V19.0294H10.6765V18.0588ZM11.6471 18.0588H12.6176V19.0294H11.6471V18.0588ZM11.6471 19.0294H12.6176V20H11.6471V19.0294ZM12.6176 19.0294H13.5882V20H12.6176V19.0294ZM10.6765 19.0294H11.6471V20H10.6765V19.0294ZM12.6176 13.2059H13.5882V14.1765H12.6176V13.2059ZM12.6176 12.2353H13.5882V13.2059H12.6176V12.2353ZM12.6176 11.2647H13.5882V12.2353H12.6176V11.2647ZM12.6176 10.2941H13.5882V11.2647H12.6176V10.2941ZM12.6176 6.41177H13.5882V7.38235H12.6176V6.41177ZM12.6176 7.38235H13.5882V8.35294H12.6176V7.38235ZM11.6471 7.38235H12.6176V8.35294H11.6471V7.38235ZM11.6471 8.35294H12.6176V9.32353H11.6471V8.35294ZM11.6471 9.32353H12.6176V10.2941H11.6471V9.32353ZM11.6471 10.2941H12.6176V11.2647H11.6471V10.2941ZM12.6176 9.32353H13.5882V10.2941H12.6176V9.32353ZM12.6176 8.35294H13.5882V9.32353H12.6176V8.35294ZM10.6765 7.38235H11.6471V8.35294H10.6765V7.38235ZM10.6765 8.35294H11.6471V9.32353H10.6765V8.35294ZM10.6765 9.32353H11.6471V10.2941H10.6765V9.32353ZM10.6765 10.2941H11.6471V11.2647H10.6765V10.2941ZM11.6471 15.1471H12.6176V16.1176H11.6471V15.1471ZM11.6471 16.1176H12.6176V17.0882H11.6471V16.1176ZM11.6471 17.0882H12.6176V18.0588H11.6471V17.0882ZM12.6176 17.0882H13.5882V18.0588H12.6176V17.0882ZM12.6176 16.1176H13.5882V17.0882H12.6176V16.1176ZM12.6176 15.1471H13.5882V16.1176H12.6176V15.1471ZM12.6176 14.1765H13.5882V15.1471H12.6176V14.1765ZM12.6176 18.0588H13.5882V19.0294H12.6176V18.0588ZM1.94118 5.44118H2.91176V6.41177H1.94118V5.44118ZM2.91176 5.44118H3.88235V6.41177H2.91176V5.44118ZM3.88235 5.44118H4.85294V6.41177H3.88235V5.44118ZM4.85294 5.44118H5.82353V6.41177H4.85294V5.44118ZM5.82353 5.44118H6.79412V6.41177H5.82353V5.44118ZM7.76471 5.44118H8.73529V6.41177H7.76471V5.44118ZM8.73529 5.44118H9.70588V6.41177H8.73529V5.44118ZM9.70588 5.44118H10.6765V6.41177H9.70588V5.44118ZM10.6765 5.44118H11.6471V6.41177H10.6765V5.44118ZM11.6471 5.44118H12.6176V6.41177H11.6471V5.44118ZM11.6471 6.41177H12.6176V7.38235H11.6471V6.41177ZM10.6765 6.41177H11.6471V7.38235H10.6765V6.41177ZM9.70588 6.41177H10.6765V7.38235H9.70588V6.41177ZM8.73529 6.41177H9.70588V7.38235H8.73529V6.41177ZM3.88235 6.41177H4.85294V7.38235H3.88235V6.41177ZM4.85294 6.41177H5.82353V7.38235H4.85294V6.41177ZM2.91176 4.47059H3.88235V5.44118H2.91176V4.47059ZM3.88235 4.47059H4.85294V5.44118H3.88235V4.47059ZM5.82353 4.47059H6.79412V5.44118H5.82353V4.47059ZM6.79412 4.47059H7.76471V5.44118H6.79412V4.47059ZM7.76471 4.47059H8.73529V5.44118H7.76471V4.47059ZM8.73529 4.47059H9.70588V5.44118H8.73529V4.47059ZM9.70588 4.47059H10.6765V5.44118H9.70588V4.47059ZM10.6765 4.47059H11.6471V5.44118H10.6765V4.47059ZM11.6471 4.47059H12.6176V5.44118H11.6471V4.47059ZM10.6765 3.5H11.6471V4.47059H10.6765V3.5ZM9.70588 3.5H10.6765V4.47059H9.70588V3.5ZM8.73529 3.5H9.70588V4.47059H8.73529V3.5ZM7.76471 3.5H8.73529V4.47059H7.76471V3.5ZM6.79412 3.5H7.76471V4.47059H6.79412V3.5ZM4.85294 4.47059H5.82353V5.44118H4.85294V4.47059ZM3.88235 3.5H4.85294V4.47059H3.88235V3.5ZM4.85294 3.5H5.82353V4.47059H4.85294V3.5ZM5.82353 3.5H6.79412V4.47059H5.82353V3.5ZM5.82353 2.52941H6.79412V3.5H5.82353V2.52941ZM4.85294 2.52941H5.82353V3.5H4.85294V2.52941ZM6.79412 2.52941H7.76471V3.5H6.79412V2.52941ZM7.76471 2.52941H8.73529V3.5H7.76471V2.52941ZM8.73529 2.52941H9.70588V3.5H8.73529V2.52941ZM9.70588 2.52941H10.6765V3.5H9.70588V2.52941ZM5.82353 1.55882H6.79412V2.52941H5.82353V1.55882ZM6.79412 1.55882H7.76471V2.52941H6.79412V1.55882ZM7.76471 1.55882H8.73529V2.52941H7.76471V1.55882ZM8.73529 1.55882H9.70588V2.52941H8.73529V1.55882ZM6.79412 0.588236H7.76471V1.55882H6.79412V0.588236ZM7.76471 0.588236H8.73529V1.55882H7.76471V0.588236ZM12.6176 5.44118H13.5882V6.41177H12.6176V5.44118ZM0.970588 5.44118H1.94118V6.41177H0.970588V5.44118ZM1.94118 4.47059H2.91176V5.44118H1.94118V4.47059ZM2.91176 3.5H3.88235V4.47059H2.91176V3.5ZM3.88235 2.52941H4.85294V3.5H3.88235V2.52941ZM4.85294 1.55882H5.82353V2.52941H4.85294V1.55882ZM5.82353 0.588236H6.79412V1.55882H5.82353V0.588236ZM9.70588 7.38235H10.6765V8.35294H9.70588V7.38235ZM9.70588 8.35294H10.6765V9.32353H9.70588V8.35294ZM9.70588 9.32353H10.6765V10.2941H9.70588V9.32353ZM9.70588 10.2941H10.6765V11.2647H9.70588V10.2941ZM9.70588 15.1471H10.6765V16.1176H9.70588V15.1471ZM9.70588 16.1176H10.6765V17.0882H9.70588V16.1176ZM9.70588 17.0882H10.6765V18.0588H9.70588V17.0882ZM9.70588 18.0588H10.6765V19.0294H9.70588V18.0588ZM9.70588 19.0294H10.6765V20H9.70588V19.0294ZM16.5038 0.588236H17.4744V1.55882H16.5038V0.588236ZM16.5038 1.55882H17.4744V2.52941H16.5038V1.55882ZM16.5038 2.52941H17.4744V3.5H16.5038V2.52941ZM16.5038 3.5H17.4744V4.47059H16.5038V3.5ZM17.4744 4.47059H18.445V5.44118H17.4744V4.47059ZM17.4744 5.44118H18.445V6.41177H17.4744V5.44118ZM17.4744 6.41177H18.445V7.38235H17.4744V6.41177ZM17.4744 7.38235H18.445V8.35294H17.4744V7.38235ZM17.4744 8.35294H18.445V9.32353H17.4744V8.35294ZM17.4744 9.32353H18.445V10.2941H17.4744V9.32353ZM17.4744 10.2941H18.445V11.2647H17.4744V10.2941ZM16.5038 10.2941H17.4744V11.2647H16.5038V10.2941ZM16.5038 9.32353H17.4744V10.2941H16.5038V9.32353ZM16.5038 8.35294H17.4744V9.32353H16.5038V8.35294ZM16.5038 7.38235H17.4744V8.35294H16.5038V7.38235ZM16.5038 6.41177H17.4744V7.38235H16.5038V6.41177ZM16.5038 5.44118H17.4744V6.41177H16.5038V5.44118ZM16.5038 4.47059H17.4744V5.44118H16.5038V4.47059ZM16.5038 16.1176H17.4744V17.0882H16.5038V16.1176ZM16.5038 15.1471H17.4744V16.1176H16.5038V15.1471ZM16.5038 14.1765H17.4744V15.1471H16.5038V14.1765ZM16.5038 13.2059H17.4744V14.1765H16.5038V13.2059ZM17.4744 12.2353H18.445V13.2059H17.4744V12.2353ZM17.4744 11.2647H18.445V12.2353H17.4744V11.2647ZM16.5038 11.2647H17.4744V12.2353H16.5038V11.2647ZM16.5038 12.2353H17.4744V13.2059H16.5038V12.2353ZM16.5038 17.0882H17.4744V18.0588H16.5038V17.0882ZM16.5038 18.0588H17.4744V19.0294H16.5038V18.0588ZM16.5038 19.0294H17.4744V20H16.5038V19.0294ZM17.4744 0.588236H18.445V1.55882H17.4744V0.588236ZM18.445 0.588236H19.4156V1.55882H18.445V0.588236ZM19.4156 0.588236H20.3861V1.55882H19.4156V0.588236ZM19.4156 1.55882H20.3861V2.52941H19.4156V1.55882ZM19.4156 2.52941H20.3861V3.5H19.4156V2.52941ZM19.4156 3.5H20.3861V4.47059H19.4156V3.5ZM19.4156 4.47059H20.3861V5.44118H19.4156V4.47059ZM19.4156 6.41177H20.3861V7.38235H19.4156V6.41177ZM19.4156 7.38235H20.3861V8.35294H19.4156V7.38235ZM19.4156 8.35294H20.3861V9.32353H19.4156V8.35294ZM19.4156 9.32353H20.3861V10.2941H19.4156V9.32353ZM19.4156 10.2941H20.3861V11.2647H19.4156V10.2941ZM19.4156 11.2647H20.3861V12.2353H19.4156V11.2647ZM19.4156 12.2353H20.3861V13.2059H19.4156V12.2353ZM19.4156 13.2059H20.3861V14.1765H19.4156V13.2059ZM19.4156 14.1765H20.3861V15.1471H19.4156V14.1765ZM19.4156 5.44118H20.3861V6.41177H19.4156V5.44118ZM19.4156 15.1471H20.3861V16.1176H19.4156V15.1471ZM19.4156 16.1176H20.3861V17.0882H19.4156V16.1176ZM19.4156 17.0882H20.3861V18.0588H19.4156V17.0882ZM19.4156 18.0588H20.3861V19.0294H19.4156V18.0588ZM19.4156 19.0294H20.3861V20H19.4156V19.0294ZM18.445 19.0294H19.4156V20H18.445V19.0294ZM17.4744 19.0294H18.445V20H17.4744V19.0294ZM17.4744 18.0588H18.445V19.0294H17.4744V18.0588ZM18.445 18.0588H19.4156V19.0294H18.445V18.0588ZM18.445 17.0882H19.4156V18.0588H18.445V17.0882ZM17.4744 16.1176H18.445V17.0882H17.4744V16.1176ZM17.4744 15.1471H18.445V16.1176H17.4744V15.1471ZM17.4744 14.1765H18.445V15.1471H17.4744V14.1765ZM18.445 14.1765H19.4156V15.1471H18.445V14.1765ZM18.445 15.1471H19.4156V16.1176H18.445V15.1471ZM18.445 16.1176H19.4156V17.0882H18.445V16.1176ZM17.4744 17.0882H18.445V18.0588H17.4744V17.0882ZM18.445 13.2059H19.4156V14.1765H18.445V13.2059ZM18.445 12.2353H19.4156V13.2059H18.445V12.2353ZM18.445 11.2647H19.4156V12.2353H18.445V11.2647ZM17.4744 13.2059H18.445V14.1765H17.4744V13.2059ZM18.445 10.2941H19.4156V11.2647H18.445V10.2941ZM18.445 9.32353H19.4156V10.2941H18.445V9.32353ZM18.445 8.35294H19.4156V9.32353H18.445V8.35294ZM18.445 7.38235H19.4156V8.35294H18.445V7.38235ZM18.445 6.41177H19.4156V7.38235H18.445V6.41177ZM18.445 5.44118H19.4156V6.41177H18.445V5.44118ZM18.445 4.47059H19.4156V5.44118H18.445V4.47059ZM18.445 3.5H19.4156V4.47059H18.445V3.5ZM18.445 2.52941H19.4156V3.5H18.445V2.52941ZM18.445 1.55882H19.4156V2.52941H18.445V1.55882ZM17.4744 1.55882H18.445V2.52941H17.4744V1.55882ZM17.4744 2.52941H18.445V3.5H17.4744V2.52941ZM17.4744 3.5H18.445V4.47059H17.4744V3.5ZM33.9801 8.35294H34.9507V9.32353H33.9801V8.35294ZM33.0095 8.35294H33.9801V9.32353H33.0095V8.35294ZM32.0389 8.35294H33.0095V9.32353H32.0389V8.35294ZM32.0389 7.38235H33.0095V8.35294H32.0389V7.38235ZM31.0683 7.38235H32.0389V8.35294H31.0683V7.38235ZM33.0095 7.38235H33.9801V8.35294H33.0095V7.38235ZM33.9801 7.38235H34.9507V8.35294H33.9801V7.38235ZM33.0095 6.41177H33.9801V7.38235H33.0095V6.41177ZM32.0389 6.41177H33.0095V7.38235H32.0389V6.41177ZM31.0683 6.41177H32.0389V7.38235H31.0683V6.41177ZM31.0683 5.44118H32.0389V6.41177H31.0683V5.44118ZM32.0389 5.44118H33.0095V6.41177H32.0389V5.44118ZM30.0977 5.44118H31.0683V6.41177H30.0977V5.44118ZM29.1271 5.44118H30.0977V6.41177H29.1271V5.44118ZM28.1565 5.44118H29.1271V6.41177H28.1565V5.44118ZM27.1859 6.41177H28.1565V7.38235H27.1859V6.41177ZM26.2154 6.41177H27.1859V7.38235H26.2154V6.41177ZM26.2154 5.44118H27.1859V6.41177H26.2154V5.44118ZM27.1859 5.44118H28.1565V6.41177H27.1859V5.44118ZM28.1565 6.41177H29.1271V7.38235H28.1565V6.41177ZM28.1565 7.38235H29.1271V8.35294H28.1565V7.38235ZM29.1271 7.38235H30.0977V8.35294H29.1271V7.38235ZM30.0977 7.38235H31.0683V8.35294H30.0977V7.38235ZM30.0977 6.41177H31.0683V7.38235H30.0977V6.41177ZM29.1271 6.41177H30.0977V7.38235H29.1271V6.41177ZM27.1859 7.38235H28.1565V8.35294H27.1859V7.38235ZM26.2154 7.38235H27.1859V8.35294H26.2154V7.38235ZM25.2448 7.38235H26.2154V8.35294H25.2448V7.38235ZM24.2742 7.38235H25.2448V8.35294H24.2742V7.38235ZM24.2742 6.41177H25.2448V7.38235H24.2742V6.41177ZM25.2448 6.41177H26.2154V7.38235H25.2448V6.41177ZM26.2154 8.35294H27.1859V9.32353H26.2154V8.35294ZM27.1859 8.35294H28.1565V9.32353H27.1859V8.35294ZM25.2448 8.35294H26.2154V9.32353H25.2448V8.35294ZM24.2742 8.35294H25.2448V9.32353H24.2742V8.35294ZM23.3036 8.35294H24.2742V9.32353H23.3036V8.35294ZM24.2742 9.32353H25.2448V10.2941H24.2742V9.32353ZM23.3036 9.32353H24.2742V10.2941H23.3036V9.32353ZM23.3036 10.2941H24.2742V11.2647H23.3036V10.2941ZM24.2742 10.2941H25.2448V11.2647H24.2742V10.2941ZM25.2448 9.32353H26.2154V10.2941H25.2448V9.32353ZM26.2154 9.32353H27.1859V10.2941H26.2154V9.32353ZM26.2154 10.2941H27.1859V11.2647H26.2154V10.2941ZM27.1859 10.2941H28.1565V11.2647H27.1859V10.2941ZM25.2448 10.2941H26.2154V11.2647H25.2448V10.2941ZM25.2448 11.2647H26.2154V12.2353H25.2448V11.2647ZM24.2742 11.2647H25.2448V12.2353H24.2742V11.2647ZM25.2448 12.2353H26.2154V13.2059H25.2448V12.2353ZM24.2742 12.2353H25.2448V13.2059H24.2742V12.2353ZM26.2154 11.2647H27.1859V12.2353H26.2154V11.2647ZM27.1859 11.2647H28.1565V12.2353H27.1859V11.2647ZM27.1859 12.2353H28.1565V13.2059H27.1859V12.2353ZM27.1859 13.2059H28.1565V14.1765H27.1859V13.2059ZM26.2154 13.2059H27.1859V14.1765H26.2154V13.2059ZM26.2154 12.2353H27.1859V13.2059H26.2154V12.2353ZM28.1565 12.2353H29.1271V13.2059H28.1565V12.2353ZM29.1271 12.2353H30.0977V13.2059H29.1271V12.2353ZM29.1271 11.2647H30.0977V12.2353H29.1271V11.2647ZM30.0977 11.2647H31.0683V12.2353H30.0977V11.2647ZM31.0683 11.2647H32.0389V12.2353H31.0683V11.2647ZM32.0389 11.2647H33.0095V12.2353H32.0389V11.2647ZM28.1565 11.2647H29.1271V12.2353H28.1565V11.2647ZM28.1565 13.2059H29.1271V14.1765H28.1565V13.2059ZM29.1271 13.2059H30.0977V14.1765H29.1271V13.2059ZM30.0977 13.2059H31.0683V14.1765H30.0977V13.2059ZM31.0683 13.2059H32.0389V14.1765H31.0683V13.2059ZM32.0389 13.2059H33.0095V14.1765H32.0389V13.2059ZM32.0389 12.2353H33.0095V13.2059H32.0389V12.2353ZM31.0683 12.2353H32.0389V13.2059H31.0683V12.2353ZM30.0977 12.2353H31.0683V13.2059H30.0977V12.2353ZM33.9801 12.2353H34.9507V13.2059H33.9801V12.2353ZM33.0095 12.2353H33.9801V13.2059H33.0095V12.2353ZM33.0095 13.2059H33.9801V14.1765H33.0095V13.2059ZM33.9801 13.2059H34.9507V14.1765H33.9801V13.2059ZM32.0389 14.1765H33.0095V15.1471H32.0389V14.1765ZM31.0683 14.1765H32.0389V15.1471H31.0683V14.1765ZM33.0095 14.1765H33.9801V15.1471H33.0095V14.1765ZM33.9801 14.1765H34.9507V15.1471H33.9801V14.1765ZM34.9507 14.1765H35.9212V15.1471H34.9507V14.1765ZM34.9507 15.1471H35.9212V16.1176H34.9507V15.1471ZM34.9507 16.1176H35.9212V17.0882H34.9507V16.1176ZM33.9801 16.1176H34.9507V17.0882H33.9801V16.1176ZM33.9801 15.1471H34.9507V16.1176H33.9801V15.1471ZM33.0095 15.1471H33.9801V16.1176H33.0095V15.1471ZM33.0095 16.1176H33.9801V17.0882H33.0095V16.1176ZM32.0389 15.1471H33.0095V16.1176H32.0389V15.1471ZM32.0389 16.1176H33.0095V17.0882H32.0389V16.1176ZM31.0683 16.1176H32.0389V17.0882H31.0683V16.1176ZM31.0683 17.0882H32.0389V18.0588H31.0683V17.0882ZM32.0389 17.0882H33.0095V18.0588H32.0389V17.0882ZM32.0389 18.0588H33.0095V19.0294H32.0389V18.0588ZM33.0095 18.0588H33.9801V19.0294H33.0095V18.0588ZM33.0095 17.0882H33.9801V18.0588H33.0095V17.0882ZM33.9801 17.0882H34.9507V18.0588H33.9801V17.0882ZM33.9801 18.0588H34.9507V19.0294H33.9801V18.0588ZM32.0389 19.0294H33.0095V20H32.0389V19.0294ZM31.0683 19.0294H32.0389V20H31.0683V19.0294ZM31.0683 18.0588H32.0389V19.0294H31.0683V18.0588ZM30.0977 18.0588H31.0683V19.0294H30.0977V18.0588ZM29.1271 18.0588H30.0977V19.0294H29.1271V18.0588ZM28.1565 18.0588H29.1271V19.0294H28.1565V18.0588ZM28.1565 17.0882H29.1271V18.0588H28.1565V17.0882ZM29.1271 17.0882H30.0977V18.0588H29.1271V17.0882ZM30.0977 17.0882H31.0683V18.0588H30.0977V17.0882ZM30.0977 19.0294H31.0683V20H30.0977V19.0294ZM29.1271 19.0294H30.0977V20H29.1271V19.0294ZM28.1565 19.0294H29.1271V20H28.1565V19.0294ZM27.1859 19.0294H28.1565V20H27.1859V19.0294ZM26.2154 19.0294H27.1859V20H26.2154V19.0294ZM26.2154 18.0588H27.1859V19.0294H26.2154V18.0588ZM27.1859 18.0588H28.1565V19.0294H27.1859V18.0588ZM27.1859 17.0882H28.1565V18.0588H27.1859V17.0882ZM26.2154 17.0882H27.1859V18.0588H26.2154V17.0882ZM25.2448 18.0588H26.2154V19.0294H25.2448V18.0588ZM24.2742 18.0588H25.2448V19.0294H24.2742V18.0588ZM24.2742 17.0882H25.2448V18.0588H24.2742V17.0882ZM25.2448 17.0882H26.2154V18.0588H25.2448V17.0882ZM26.2154 16.1176H27.1859V17.0882H26.2154V16.1176ZM27.1859 16.1176H28.1565V17.0882H27.1859V16.1176ZM26.2154 15.1471H27.1859V16.1176H26.2154V15.1471ZM25.2448 15.1471H26.2154V16.1176H25.2448V15.1471ZM24.2742 15.1471H25.2448V16.1176H24.2742V15.1471ZM23.3036 15.1471H24.2742V16.1176H23.3036V15.1471ZM23.3036 16.1176H24.2742V17.0882H23.3036V16.1176ZM24.2742 16.1176H25.2448V17.0882H24.2742V16.1176ZM25.2448 16.1176H26.2154V17.0882H25.2448V16.1176ZM34.9507 8.35294H35.9212V9.32353H34.9507V8.35294ZM33.9801 6.41177H34.9507V7.38235H33.9801V6.41177ZM34.9507 9.32353H35.9212V10.2941H34.9507V9.32353ZM33.9801 9.32353H34.9507V10.2941H33.9801V9.32353ZM33.0095 9.32353H33.9801V10.2941H33.0095V9.32353ZM32.0389 9.32353H33.0095V10.2941H32.0389V9.32353ZM31.0683 8.35294H32.0389V9.32353H31.0683V8.35294ZM51.4544 20H50.4839V19.0294H51.4544V20ZM50.4839 20H49.5133V19.0294H50.4839V20ZM49.5133 20H48.5427V19.0294H49.5133V20ZM51.4544 18.0588H50.4839V17.0882H51.4544V18.0588ZM51.4544 19.0294H50.4839V18.0588H51.4544V19.0294ZM49.5133 6.41177H48.5427V5.44118H49.5133V6.41177ZM50.4839 6.41177H49.5133V5.44118H50.4839V6.41177ZM51.4544 7.38235H50.4839V6.41177H51.4544V7.38235ZM51.4544 8.35294H50.4839V7.38235H51.4544V8.35294ZM51.4544 6.41177H50.4839V5.44118H51.4544V6.41177ZM46.6015 20H45.6309V19.0294H46.6015V20ZM48.5427 20H47.5721V19.0294H48.5427V20ZM45.6309 20H44.6603V19.0294H45.6309V20ZM44.6603 20H43.6897V19.0294H44.6603V20ZM43.6897 20H42.7192V19.0294H43.6897V20ZM42.7192 20H41.7486V19.0294H42.7192V20ZM41.7486 19.0294H40.778V18.0588H41.7486V19.0294ZM42.7192 19.0294H41.7486V18.0588H42.7192V19.0294ZM42.7192 18.0588H41.7486V17.0882H42.7192V18.0588ZM40.778 19.0294H39.8074V18.0588H40.778V19.0294ZM40.778 18.0588H39.8074V17.0882H40.778V18.0588ZM41.7486 18.0588H40.778V17.0882H41.7486V18.0588ZM42.7192 17.0882H41.7486V16.1176H42.7192V17.0882ZM43.6897 17.0882H42.7192V16.1176H43.6897V17.0882ZM41.7486 17.0882H40.778V16.1176H41.7486V17.0882ZM40.778 17.0882H39.8074V16.1176H40.778V17.0882ZM39.8074 17.0882H38.8368V16.1176H39.8074V17.0882ZM39.8074 16.1176H38.8368V15.1471H39.8074V16.1176ZM39.8074 15.1471H38.8368V14.1765H39.8074V15.1471ZM39.8074 14.1765H38.8368V13.2059H39.8074V14.1765ZM39.8074 13.2059H38.8368V12.2353H39.8074V13.2059ZM39.8074 12.2353H38.8368V11.2647H39.8074V12.2353ZM39.8074 11.2647H38.8368V10.2941H39.8074V11.2647ZM39.8074 10.2941H38.8368V9.32353H39.8074V10.2941ZM39.8074 9.32353H38.8368V8.35294H39.8074V9.32353ZM40.778 9.32353H39.8074V8.35294H40.778V9.32353ZM40.778 8.35294H39.8074V7.38235H40.778V8.35294ZM40.778 7.38235H39.8074V6.41177H40.778V7.38235ZM41.7486 7.38235H40.778V6.41177H41.7486V7.38235ZM42.7192 7.38235H41.7486V6.41177H42.7192V7.38235ZM42.7192 9.32353H41.7486V8.35294H42.7192V9.32353ZM42.7192 8.35294H41.7486V7.38235H42.7192V8.35294ZM41.7486 8.35294H40.778V7.38235H41.7486V8.35294ZM41.7486 9.32353H40.778V8.35294H41.7486V9.32353ZM41.7486 10.2941H40.778V9.32353H41.7486V10.2941ZM42.7192 10.2941H41.7486V9.32353H42.7192V10.2941ZM42.7192 11.2647H41.7486V10.2941H42.7192V11.2647ZM42.7192 12.2353H41.7486V11.2647H42.7192V12.2353ZM42.7192 13.2059H41.7486V12.2353H42.7192V13.2059ZM42.7192 14.1765H41.7486V13.2059H42.7192V14.1765ZM42.7192 15.1471H41.7486V14.1765H42.7192V15.1471ZM42.7192 16.1176H41.7486V15.1471H42.7192V16.1176ZM41.7486 16.1176H40.778V15.1471H41.7486V16.1176ZM41.7486 15.1471H40.778V14.1765H41.7486V15.1471ZM41.7486 14.1765H40.778V13.2059H41.7486V14.1765ZM41.7486 13.2059H40.778V12.2353H41.7486V13.2059ZM41.7486 12.2353H40.778V11.2647H41.7486V12.2353ZM41.7486 11.2647H40.778V10.2941H41.7486V11.2647ZM40.778 10.2941H39.8074V9.32353H40.778V10.2941ZM40.778 11.2647H39.8074V10.2941H40.778V11.2647ZM40.778 12.2353H39.8074V11.2647H40.778V12.2353ZM40.778 13.2059H39.8074V12.2353H40.778V13.2059ZM40.778 14.1765H39.8074V13.2059H40.778V14.1765ZM40.778 15.1471H39.8074V14.1765H40.778V15.1471ZM40.778 16.1176H39.8074V15.1471H40.778V16.1176ZM42.7192 6.41177H41.7486V5.44118H42.7192V6.41177ZM48.5427 6.41177H47.5721V5.44118H48.5427V6.41177ZM48.5427 7.38235H47.5721V6.41177H48.5427V7.38235ZM49.5133 7.38235H48.5427V6.41177H49.5133V7.38235ZM50.4839 7.38235H49.5133V6.41177H50.4839V7.38235ZM50.4839 15.1471H49.5133V14.1765H50.4839V15.1471ZM50.4839 16.1176H49.5133V15.1471H50.4839V16.1176ZM51.4544 17.0882H50.4839V16.1176H51.4544V17.0882ZM50.4839 18.0588H49.5133V17.0882H50.4839V18.0588ZM49.5133 19.0294H48.5427V18.0588H49.5133V19.0294ZM48.5427 19.0294H47.5721V18.0588H48.5427V19.0294ZM47.5721 19.0294H46.6015V18.0588H47.5721V19.0294ZM47.5721 18.0588H46.6015V17.0882H47.5721V18.0588ZM47.5721 17.0882H46.6015V16.1176H47.5721V17.0882ZM48.5427 17.0882H47.5721V16.1176H48.5427V17.0882ZM49.5133 17.0882H48.5427V16.1176H49.5133V17.0882ZM48.5427 16.1176H47.5721V15.1471H48.5427V16.1176ZM48.5427 15.1471H47.5721V14.1765H48.5427V15.1471ZM48.5427 14.1765H47.5721V13.2059H48.5427V14.1765ZM48.5427 8.35294H47.5721V7.38235H48.5427V8.35294ZM49.5133 8.35294H48.5427V7.38235H49.5133V8.35294ZM49.5133 15.1471H48.5427V14.1765H49.5133V15.1471ZM49.5133 16.1176H48.5427V15.1471H49.5133V16.1176ZM49.5133 18.0588H48.5427V17.0882H49.5133V18.0588ZM48.5427 18.0588H47.5721V17.0882H48.5427V18.0588ZM46.6015 19.0294H45.6309V18.0588H46.6015V19.0294ZM45.6309 19.0294H44.6603V18.0588H45.6309V19.0294ZM44.6603 19.0294H43.6897V18.0588H44.6603V19.0294ZM43.6897 19.0294H42.7192V18.0588H43.6897V19.0294ZM43.6897 18.0588H42.7192V17.0882H43.6897V18.0588ZM44.6603 18.0588H43.6897V17.0882H44.6603V18.0588ZM45.6309 18.0588H44.6603V17.0882H45.6309V18.0588ZM46.6015 18.0588H45.6309V17.0882H46.6015V18.0588ZM50.4839 19.0294H49.5133V18.0588H50.4839V19.0294ZM50.4839 8.35294H49.5133V7.38235H50.4839V8.35294ZM50.4839 17.0882H49.5133V16.1176H50.4839V17.0882ZM51.4544 16.1176H50.4839V15.1471H51.4544V16.1176ZM51.4544 15.1471H50.4839V14.1765H51.4544V15.1471ZM51.4544 9.32353H50.4839V8.35294H51.4544V9.32353ZM50.4839 9.32353H49.5133V8.35294H50.4839V9.32353ZM49.5133 9.32353H48.5427V8.35294H49.5133V9.32353ZM48.5427 9.32353H47.5721V8.35294H48.5427V9.32353ZM49.5133 14.1765H48.5427V13.2059H49.5133V14.1765ZM50.4839 14.1765H49.5133V13.2059H50.4839V14.1765ZM51.4544 14.1765H50.4839V13.2059H51.4544V14.1765ZM51.4544 13.2059H50.4839V12.2353H51.4544V13.2059ZM51.4544 12.2353H50.4839V11.2647H51.4544V12.2353ZM51.4544 11.2647H50.4839V10.2941H51.4544V11.2647ZM50.4839 11.2647H49.5133V10.2941H50.4839V11.2647ZM50.4839 10.2941H49.5133V9.32353H50.4839V10.2941ZM49.5133 10.2941H48.5427V9.32353H49.5133V10.2941ZM51.4544 10.2941H50.4839V9.32353H51.4544V10.2941ZM48.5427 10.2941H47.5721V9.32353H48.5427V10.2941ZM48.5427 11.2647H47.5721V10.2941H48.5427V11.2647ZM48.5427 12.2353H47.5721V11.2647H48.5427V12.2353ZM48.5427 13.2059H47.5721V12.2353H48.5427V13.2059ZM49.5133 13.2059H48.5427V12.2353H49.5133V13.2059ZM50.4839 13.2059H49.5133V12.2353H50.4839V13.2059ZM50.4839 12.2353H49.5133V11.2647H50.4839V12.2353ZM49.5133 11.2647H48.5427V10.2941H49.5133V11.2647ZM49.5133 12.2353H48.5427V11.2647H49.5133V12.2353ZM41.7486 6.41177H40.778V5.44118H41.7486V6.41177ZM40.778 6.41177H39.8074V5.44118H40.778V6.41177ZM39.8074 6.41177H38.8368V5.44118H39.8074V6.41177ZM39.8074 7.38235H38.8368V6.41177H39.8074V7.38235ZM39.8074 8.35294H38.8368V7.38235H39.8074V8.35294ZM54.37 5.44118H55.3406V6.41177H54.37V5.44118ZM55.3406 5.44118H56.3112V6.41177H55.3406V5.44118ZM56.3112 5.44118H57.2818V6.41177H56.3112V5.44118ZM54.37 7.38235H55.3406V8.35294H54.37V7.38235ZM54.37 6.41177H55.3406V7.38235H54.37V6.41177ZM56.3112 19.0294H57.2818V20H56.3112V19.0294ZM55.3406 19.0294H56.3112V20H55.3406V19.0294ZM54.37 18.0588H55.3406V19.0294H54.37V18.0588ZM54.37 17.0882H55.3406V18.0588H54.37V17.0882ZM54.37 19.0294H55.3406V20H54.37V19.0294ZM59.2229 5.44118H60.1935V6.41177H59.2229V5.44118ZM57.2818 5.44118H58.2524V6.41177H57.2818V5.44118ZM61.1641 5.44118H62.1347V6.41177H61.1641V5.44118ZM62.1347 6.41177H63.1053V7.38235H62.1347V6.41177ZM61.1641 6.41177H62.1347V7.38235H61.1641V6.41177ZM61.1641 7.38235H62.1347V8.35294H61.1641V7.38235ZM63.1053 7.38235H64.0759V8.35294H63.1053V7.38235ZM62.1347 7.38235H63.1053V8.35294H62.1347V7.38235ZM61.1641 8.35294H62.1347V9.32353H61.1641V8.35294ZM60.1935 8.35294H61.1641V9.32353H60.1935V8.35294ZM62.1347 8.35294H63.1053V9.32353H62.1347V8.35294ZM63.1053 8.35294H64.0759V9.32353H63.1053V8.35294ZM64.0759 9.32353H65.0465V10.2941H64.0759V9.32353ZM64.0759 10.2941H65.0465V11.2647H64.0759V10.2941ZM64.0759 11.2647H65.0465V12.2353H64.0759V11.2647ZM64.0759 12.2353H65.0465V13.2059H64.0759V12.2353ZM64.0759 13.2059H65.0465V14.1765H64.0759V13.2059ZM64.0759 14.1765H65.0465V15.1471H64.0759V14.1765ZM64.0759 15.1471H65.0465V16.1176H64.0759V15.1471ZM64.0759 16.1176H65.0465V17.0882H64.0759V16.1176ZM63.1053 16.1176H64.0759V17.0882H63.1053V16.1176ZM63.1053 17.0882H64.0759V18.0588H63.1053V17.0882ZM63.1053 18.0588H64.0759V19.0294H63.1053V18.0588ZM62.1347 18.0588H63.1053V19.0294H62.1347V18.0588ZM61.1641 18.0588H62.1347V19.0294H61.1641V18.0588ZM61.1641 16.1176H62.1347V17.0882H61.1641V16.1176ZM61.1641 17.0882H62.1347V18.0588H61.1641V17.0882ZM62.1347 17.0882H63.1053V18.0588H62.1347V17.0882ZM62.1347 16.1176H63.1053V17.0882H62.1347V16.1176ZM62.1347 15.1471H63.1053V16.1176H62.1347V15.1471ZM61.1641 15.1471H62.1347V16.1176H61.1641V15.1471ZM61.1641 14.1765H62.1347V15.1471H61.1641V14.1765ZM61.1641 13.2059H62.1347V14.1765H61.1641V13.2059ZM61.1641 12.2353H62.1347V13.2059H61.1641V12.2353ZM61.1641 11.2647H62.1347V12.2353H61.1641V11.2647ZM61.1641 10.2941H62.1347V11.2647H61.1641V10.2941ZM61.1641 9.32353H62.1347V10.2941H61.1641V9.32353ZM62.1347 9.32353H63.1053V10.2941H62.1347V9.32353ZM62.1347 10.2941H63.1053V11.2647H62.1347V10.2941ZM62.1347 11.2647H63.1053V12.2353H62.1347V11.2647ZM62.1347 12.2353H63.1053V13.2059H62.1347V12.2353ZM62.1347 13.2059H63.1053V14.1765H62.1347V13.2059ZM62.1347 14.1765H63.1053V15.1471H62.1347V14.1765ZM63.1053 15.1471H64.0759V16.1176H63.1053V15.1471ZM63.1053 14.1765H64.0759V15.1471H63.1053V14.1765ZM63.1053 13.2059H64.0759V14.1765H63.1053V13.2059ZM63.1053 12.2353H64.0759V13.2059H63.1053V12.2353ZM63.1053 11.2647H64.0759V12.2353H63.1053V11.2647ZM63.1053 10.2941H64.0759V11.2647H63.1053V10.2941ZM63.1053 9.32353H64.0759V10.2941H63.1053V9.32353ZM61.1641 19.0294H62.1347V20H61.1641V19.0294ZM57.2818 19.0294H58.2524V20H57.2818V19.0294ZM57.2818 18.0588H58.2524V19.0294H57.2818V18.0588ZM56.3112 18.0588H57.2818V19.0294H56.3112V18.0588ZM55.3406 18.0588H56.3112V19.0294H55.3406V18.0588ZM55.3406 10.2941H56.3112V11.2647H55.3406V10.2941ZM55.3406 9.32353H56.3112V10.2941H55.3406V9.32353ZM54.37 8.35294H55.3406V9.32353H54.37V8.35294ZM55.3406 7.38235H56.3112V8.35294H55.3406V7.38235ZM56.3112 6.41177H57.2818V7.38235H56.3112V6.41177ZM57.2818 6.41177H58.2524V7.38235H57.2818V6.41177ZM58.2524 6.41177H59.2229V7.38235H58.2524V6.41177ZM58.2524 7.38235H59.2229V8.35294H58.2524V7.38235ZM58.2524 8.35294H59.2229V9.32353H58.2524V8.35294ZM57.2818 8.35294H58.2524V9.32353H57.2818V8.35294ZM56.3112 8.35294H57.2818V9.32353H56.3112V8.35294ZM57.2818 9.32353H58.2524V10.2941H57.2818V9.32353ZM57.2818 10.2941H58.2524V11.2647H57.2818V10.2941ZM57.2818 11.2647H58.2524V12.2353H57.2818V11.2647ZM57.2818 17.0882H58.2524V18.0588H57.2818V17.0882ZM56.3112 17.0882H57.2818V18.0588H56.3112V17.0882ZM56.3112 10.2941H57.2818V11.2647H56.3112V10.2941ZM56.3112 9.32353H57.2818V10.2941H56.3112V9.32353ZM56.3112 7.38235H57.2818V8.35294H56.3112V7.38235ZM57.2818 7.38235H58.2524V8.35294H57.2818V7.38235ZM59.2229 6.41177H60.1935V7.38235H59.2229V6.41177ZM60.1935 6.41177H61.1641V7.38235H60.1935V6.41177ZM60.1935 7.38235H61.1641V8.35294H60.1935V7.38235ZM59.2229 7.38235H60.1935V8.35294H59.2229V7.38235ZM55.3406 6.41177H56.3112V7.38235H55.3406V6.41177ZM55.3406 17.0882H56.3112V18.0588H55.3406V17.0882ZM55.3406 8.35294H56.3112V9.32353H55.3406V8.35294ZM54.37 9.32353H55.3406V10.2941H54.37V9.32353ZM54.37 10.2941H55.3406V11.2647H54.37V10.2941ZM54.37 16.1176H55.3406V17.0882H54.37V16.1176ZM55.3406 16.1176H56.3112V17.0882H55.3406V16.1176ZM56.3112 16.1176H57.2818V17.0882H56.3112V16.1176ZM57.2818 16.1176H58.2524V17.0882H57.2818V16.1176ZM56.3112 11.2647H57.2818V12.2353H56.3112V11.2647ZM55.3406 11.2647H56.3112V12.2353H55.3406V11.2647ZM54.37 11.2647H55.3406V12.2353H54.37V11.2647ZM54.37 12.2353H55.3406V13.2059H54.37V12.2353ZM54.37 13.2059H55.3406V14.1765H54.37V13.2059ZM54.37 14.1765H55.3406V15.1471H54.37V14.1765ZM55.3406 14.1765H56.3112V15.1471H55.3406V14.1765ZM55.3406 15.1471H56.3112V16.1176H55.3406V15.1471ZM56.3112 15.1471H57.2818V16.1176H56.3112V15.1471ZM54.37 15.1471H55.3406V16.1176H54.37V15.1471ZM57.2818 15.1471H58.2524V16.1176H57.2818V15.1471ZM57.2818 14.1765H58.2524V15.1471H57.2818V14.1765ZM57.2818 13.2059H58.2524V14.1765H57.2818V13.2059ZM57.2818 12.2353H58.2524V13.2059H57.2818V12.2353ZM56.3112 12.2353H57.2818V13.2059H56.3112V12.2353ZM55.3406 12.2353H56.3112V13.2059H55.3406V12.2353ZM55.3406 13.2059H56.3112V14.1765H55.3406V13.2059ZM56.3112 14.1765H57.2818V15.1471H56.3112V14.1765ZM56.3112 13.2059H57.2818V14.1765H56.3112V13.2059ZM62.1347 19.0294H63.1053V20H62.1347V19.0294ZM63.1053 19.0294H64.0759V20H63.1053V19.0294ZM64.0759 19.0294H65.0465V20H64.0759V19.0294ZM64.0759 18.0588H65.0465V19.0294H64.0759V18.0588ZM64.0759 17.0882H65.0465V18.0588H64.0759V17.0882ZM65.0465 5.44118H66.0171V6.41177H65.0465V5.44118ZM66.0171 5.44118H66.9876V6.41177H66.0171V5.44118ZM66.9876 5.44118H67.9582V6.41177H66.9876V5.44118ZM67.9582 5.44118H68.9288V6.41177H67.9582V5.44118ZM68.9288 6.41177H69.8994V7.38235H68.9288V6.41177ZM67.9582 6.41177H68.9288V7.38235H67.9582V6.41177ZM67.9582 7.38235H68.9288V8.35294H67.9582V7.38235ZM69.8994 6.41177H70.87V7.38235H69.8994V6.41177ZM69.8994 7.38235H70.87V8.35294H69.8994V7.38235ZM68.9288 7.38235H69.8994V8.35294H68.9288V7.38235ZM67.9582 8.35294H68.9288V9.32353H67.9582V8.35294ZM66.9876 8.35294H67.9582V9.32353H66.9876V8.35294ZM68.9288 8.35294H69.8994V9.32353H68.9288V8.35294ZM69.8994 8.35294H70.87V9.32353H69.8994V8.35294ZM70.87 8.35294H71.8406V9.32353H70.87V8.35294ZM70.87 9.32353H71.8406V10.2941H70.87V9.32353ZM70.87 10.2941H71.8406V11.2647H70.87V10.2941ZM70.87 11.2647H71.8406V12.2353H70.87V11.2647ZM70.87 12.2353H71.8406V13.2059H70.87V12.2353ZM70.87 13.2059H71.8406V14.1765H70.87V13.2059ZM70.87 14.1765H71.8406V15.1471H70.87V14.1765ZM70.87 15.1471H71.8406V16.1176H70.87V15.1471ZM70.87 16.1176H71.8406V17.0882H70.87V16.1176ZM69.8994 16.1176H70.87V17.0882H69.8994V16.1176ZM69.8994 17.0882H70.87V18.0588H69.8994V17.0882ZM69.8994 18.0588H70.87V19.0294H69.8994V18.0588ZM68.9288 18.0588H69.8994V19.0294H68.9288V18.0588ZM67.9582 18.0588H68.9288V19.0294H67.9582V18.0588ZM67.9582 16.1176H68.9288V17.0882H67.9582V16.1176ZM67.9582 17.0882H68.9288V18.0588H67.9582V17.0882ZM68.9288 17.0882H69.8994V18.0588H68.9288V17.0882ZM68.9288 16.1176H69.8994V17.0882H68.9288V16.1176ZM68.9288 15.1471H69.8994V16.1176H68.9288V15.1471ZM67.9582 15.1471H68.9288V16.1176H67.9582V15.1471ZM67.9582 14.1765H68.9288V15.1471H67.9582V14.1765ZM67.9582 13.2059H68.9288V14.1765H67.9582V13.2059ZM67.9582 12.2353H68.9288V13.2059H67.9582V12.2353ZM67.9582 11.2647H68.9288V12.2353H67.9582V11.2647ZM67.9582 10.2941H68.9288V11.2647H67.9582V10.2941ZM67.9582 9.32353H68.9288V10.2941H67.9582V9.32353ZM68.9288 9.32353H69.8994V10.2941H68.9288V9.32353ZM68.9288 10.2941H69.8994V11.2647H68.9288V10.2941ZM68.9288 11.2647H69.8994V12.2353H68.9288V11.2647ZM68.9288 12.2353H69.8994V13.2059H68.9288V12.2353ZM68.9288 13.2059H69.8994V14.1765H68.9288V13.2059ZM68.9288 14.1765H69.8994V15.1471H68.9288V14.1765ZM69.8994 15.1471H70.87V16.1176H69.8994V15.1471ZM69.8994 14.1765H70.87V15.1471H69.8994V14.1765ZM69.8994 13.2059H70.87V14.1765H69.8994V13.2059ZM69.8994 12.2353H70.87V13.2059H69.8994V12.2353ZM69.8994 11.2647H70.87V12.2353H69.8994V11.2647ZM69.8994 10.2941H70.87V11.2647H69.8994V10.2941ZM69.8994 9.32353H70.87V10.2941H69.8994V9.32353ZM67.9582 19.0294H68.9288V20H67.9582V19.0294ZM64.0759 6.41177H65.0465V7.38235H64.0759V6.41177ZM64.0759 7.38235H65.0465V8.35294H64.0759V7.38235ZM64.0759 8.35294H65.0465V9.32353H64.0759V8.35294ZM65.0465 6.41177H66.0171V7.38235H65.0465V6.41177ZM66.0171 6.41177H66.9876V7.38235H66.0171V6.41177ZM66.9876 6.41177H67.9582V7.38235H66.9876V6.41177ZM66.9876 7.38235H67.9582V8.35294H66.9876V7.38235ZM66.0171 7.38235H66.9876V8.35294H66.0171V7.38235ZM65.0465 7.38235H66.0171V8.35294H65.0465V7.38235ZM68.9288 19.0294H69.8994V20H68.9288V19.0294ZM69.8994 19.0294H70.87V20H69.8994V19.0294ZM70.87 19.0294H71.8406V20H70.87V19.0294ZM70.87 18.0588H71.8406V19.0294H70.87V18.0588ZM70.87 17.0882H71.8406V18.0588H70.87V17.0882ZM60.1935 5.44118H61.1641V6.41177H60.1935V5.44118ZM65.0465 8.35294H66.0171V9.32353H65.0465V8.35294ZM87.3548 0.588236V1.55882H86.3842V0.588236H87.3548ZM86.3842 0.588236V1.55882H85.4137V0.588236H86.3842ZM85.4137 0.588236V1.55882H84.4431V0.588236H85.4137ZM84.4431 0.588236V1.55882H83.4725V0.588236H84.4431ZM84.4431 1.55882V2.52941H83.4725V1.55882H84.4431ZM84.4431 2.52941V3.5H83.4725V2.52941H84.4431ZM85.4137 2.52941V3.5H84.4431V2.52941H85.4137ZM86.3842 2.52941V3.5H85.4137V2.52941H86.3842ZM86.3842 1.55882V2.52941H85.4137V1.55882H86.3842ZM87.3548 1.55882V2.52941H86.3842V1.55882H87.3548ZM85.4137 1.55882V2.52941H84.4431V1.55882H85.4137ZM87.3548 2.52941V3.5H86.3842V2.52941H87.3548ZM87.3548 3.5V4.47059H86.3842V3.5H87.3548ZM87.3548 4.47059V5.44118H86.3842V4.47059H87.3548ZM86.3842 4.47059V5.44118H85.4137V4.47059H86.3842ZM85.4137 4.47059V5.44118H84.4431V4.47059H85.4137ZM84.4431 4.47059V5.44118H83.4725V4.47059H84.4431ZM84.4431 3.5V4.47059H83.4725V3.5H84.4431ZM85.4137 3.5V4.47059H84.4431V3.5H85.4137ZM86.3842 3.5V4.47059H85.4137V3.5H86.3842ZM87.3548 5.44118V6.41177H86.3842V5.44118H87.3548ZM86.3842 5.44118V6.41177H85.4137V5.44118H86.3842ZM85.4137 5.44118V6.41177H84.4431V5.44118H85.4137ZM87.3548 7.38235V8.35294H86.3842V7.38235H87.3548ZM87.3548 6.41177V7.38235H86.3842V6.41177H87.3548ZM85.4137 19.0294V20H84.4431V19.0294H85.4137ZM86.3842 19.0294V20H85.4137V19.0294H86.3842ZM87.3548 18.0588V19.0294H86.3842V18.0588H87.3548ZM87.3548 17.0882V18.0588H86.3842V17.0882H87.3548ZM87.3548 19.0294V20H86.3842V19.0294H87.3548ZM82.5019 5.44118V6.41177H81.5313V5.44118H82.5019ZM84.4431 5.44118V6.41177H83.4725V5.44118H84.4431ZM81.5313 5.44118V6.41177H80.5607V5.44118H81.5313ZM80.5607 5.44118V6.41177H79.5901V5.44118H80.5607ZM79.5901 5.44118V6.41177H78.6195V5.44118H79.5901ZM78.6195 5.44118V6.41177H77.649V5.44118H78.6195ZM77.649 6.41177V7.38235H76.6784V6.41177H77.649ZM78.6195 6.41177V7.38235H77.649V6.41177H78.6195ZM78.6195 7.38235V8.35294H77.649V7.38235H78.6195ZM76.6784 6.41177V7.38235H75.7078V6.41177H76.6784ZM76.6784 7.38235V8.35294H75.7078V7.38235H76.6784ZM77.649 7.38235V8.35294H76.6784V7.38235H77.649ZM78.6195 8.35294V9.32353H77.649V8.35294H78.6195ZM79.5901 8.35294V9.32353H78.6195V8.35294H79.5901ZM77.649 8.35294V9.32353H76.6784V8.35294H77.649ZM76.6784 8.35294V9.32353H75.7078V8.35294H76.6784ZM75.7078 8.35294V9.32353H74.7372V8.35294H75.7078ZM75.7078 9.32353V10.2941H74.7372V9.32353H75.7078ZM75.7078 10.2941V11.2647H74.7372V10.2941H75.7078ZM75.7078 11.2647V12.2353H74.7372V11.2647H75.7078ZM75.7078 12.2353V13.2059H74.7372V12.2353H75.7078ZM75.7078 13.2059V14.1765H74.7372V13.2059H75.7078ZM75.7078 14.1765V15.1471H74.7372V14.1765H75.7078ZM75.7078 15.1471V16.1176H74.7372V15.1471H75.7078ZM75.7078 16.1176V17.0882H74.7372V16.1176H75.7078ZM76.6784 16.1176V17.0882H75.7078V16.1176H76.6784ZM76.6784 17.0882V18.0588H75.7078V17.0882H76.6784ZM76.6784 18.0588V19.0294H75.7078V18.0588H76.6784ZM77.649 18.0588V19.0294H76.6784V18.0588H77.649ZM78.6195 18.0588V19.0294H77.649V18.0588H78.6195ZM79.5901 17.0882V18.0588H78.6195V17.0882H79.5901ZM79.5901 16.1176V17.0882H78.6195V16.1176H79.5901ZM78.6195 16.1176V17.0882H77.649V16.1176H78.6195ZM78.6195 17.0882V18.0588H77.649V17.0882H78.6195ZM77.649 17.0882V18.0588H76.6784V17.0882H77.649ZM77.649 16.1176V17.0882H76.6784V16.1176H77.649ZM77.649 15.1471V16.1176H76.6784V15.1471H77.649ZM78.6195 15.1471V16.1176H77.649V15.1471H78.6195ZM78.6195 14.1765V15.1471H77.649V14.1765H78.6195ZM78.6195 13.2059V14.1765H77.649V13.2059H78.6195ZM78.6195 12.2353V13.2059H77.649V12.2353H78.6195ZM78.6195 11.2647V12.2353H77.649V11.2647H78.6195ZM78.6195 10.2941V11.2647H77.649V10.2941H78.6195ZM78.6195 9.32353V10.2941H77.649V9.32353H78.6195ZM77.649 9.32353V10.2941H76.6784V9.32353H77.649ZM77.649 10.2941V11.2647H76.6784V10.2941H77.649ZM77.649 11.2647V12.2353H76.6784V11.2647H77.649ZM77.649 12.2353V13.2059H76.6784V12.2353H77.649ZM77.649 13.2059V14.1765H76.6784V13.2059H77.649ZM77.649 14.1765V15.1471H76.6784V14.1765H77.649ZM76.6784 15.1471V16.1176H75.7078V15.1471H76.6784ZM76.6784 14.1765V15.1471H75.7078V14.1765H76.6784ZM76.6784 13.2059V14.1765H75.7078V13.2059H76.6784ZM76.6784 12.2353V13.2059H75.7078V12.2353H76.6784ZM76.6784 11.2647V12.2353H75.7078V11.2647H76.6784ZM76.6784 10.2941V11.2647H75.7078V10.2941H76.6784ZM76.6784 9.32353V10.2941H75.7078V9.32353H76.6784ZM79.5901 18.0588V19.0294H78.6195V18.0588H79.5901ZM79.5901 19.0294V20H78.6195V19.0294H79.5901ZM78.6195 19.0294V20H77.649V19.0294H78.6195ZM80.5607 19.0294V20H79.5901V19.0294H80.5607ZM81.5313 19.0294V20H80.5607V19.0294H81.5313ZM82.5019 19.0294V20H81.5313V19.0294H82.5019ZM84.4431 19.0294V20H83.4725V19.0294H84.4431ZM84.4431 18.0588V19.0294H83.4725V18.0588H84.4431ZM85.4137 18.0588V19.0294H84.4431V18.0588H85.4137ZM86.3842 18.0588V19.0294H85.4137V18.0588H86.3842ZM86.3842 10.2941V11.2647H85.4137V10.2941H86.3842ZM86.3842 9.32353V10.2941H85.4137V9.32353H86.3842ZM87.3548 8.35294V9.32353H86.3842V8.35294H87.3548ZM86.3842 7.38235V8.35294H85.4137V7.38235H86.3842ZM85.4137 6.41177V7.38235H84.4431V6.41177H85.4137ZM84.4431 6.41177V7.38235H83.4725V6.41177H84.4431ZM83.4725 6.41177V7.38235H82.5019V6.41177H83.4725ZM83.4725 7.38235V8.35294H82.5019V7.38235H83.4725ZM84.4431 8.35294V9.32353H83.4725V8.35294H84.4431ZM85.4137 8.35294V9.32353H84.4431V8.35294H85.4137ZM84.4431 9.32353V10.2941H83.4725V9.32353H84.4431ZM84.4431 10.2941V11.2647H83.4725V10.2941H84.4431ZM84.4431 11.2647V12.2353H83.4725V11.2647H84.4431ZM82.5019 17.0882V18.0588H81.5313V17.0882H82.5019ZM81.5313 17.0882V18.0588H80.5607V17.0882H81.5313ZM80.5607 17.0882V18.0588H79.5901V17.0882H80.5607ZM80.5607 18.0588V19.0294H79.5901V18.0588H80.5607ZM81.5313 18.0588V19.0294H80.5607V18.0588H81.5313ZM82.5019 18.0588V19.0294H81.5313V18.0588H82.5019ZM83.4725 18.0588V19.0294H82.5019V18.0588H83.4725ZM84.4431 17.0882V18.0588H83.4725V17.0882H84.4431ZM85.4137 17.0882V18.0588H84.4431V17.0882H85.4137ZM85.4137 10.2941V11.2647H84.4431V10.2941H85.4137ZM85.4137 9.32353V10.2941H84.4431V9.32353H85.4137ZM85.4137 7.38235V8.35294H84.4431V7.38235H85.4137ZM84.4431 7.38235V8.35294H83.4725V7.38235H84.4431ZM82.5019 6.41177V7.38235H81.5313V6.41177H82.5019ZM81.5313 6.41177V7.38235H80.5607V6.41177H81.5313ZM80.5607 6.41177V7.38235H79.5901V6.41177H80.5607ZM79.5901 6.41177V7.38235H78.6195V6.41177H79.5901ZM79.5901 7.38235V8.35294H78.6195V7.38235H79.5901ZM80.5607 7.38235V8.35294H79.5901V7.38235H80.5607ZM81.5313 7.38235V8.35294H80.5607V7.38235H81.5313ZM82.5019 7.38235V8.35294H81.5313V7.38235H82.5019ZM86.3842 6.41177V7.38235H85.4137V6.41177H86.3842ZM86.3842 17.0882V18.0588H85.4137V17.0882H86.3842ZM86.3842 8.35294V9.32353H85.4137V8.35294H86.3842ZM87.3548 9.32353V10.2941H86.3842V9.32353H87.3548ZM87.3548 10.2941V11.2647H86.3842V10.2941H87.3548ZM87.3548 16.1176V17.0882H86.3842V16.1176H87.3548ZM86.3842 16.1176V17.0882H85.4137V16.1176H86.3842ZM85.4137 16.1176V17.0882H84.4431V16.1176H85.4137ZM84.4431 16.1176V17.0882H83.4725V16.1176H84.4431ZM85.4137 11.2647V12.2353H84.4431V11.2647H85.4137ZM86.3842 11.2647V12.2353H85.4137V11.2647H86.3842ZM87.3548 11.2647V12.2353H86.3842V11.2647H87.3548ZM87.3548 12.2353V13.2059H86.3842V12.2353H87.3548ZM87.3548 13.2059V14.1765H86.3842V13.2059H87.3548ZM87.3548 14.1765V15.1471H86.3842V14.1765H87.3548ZM86.3842 14.1765V15.1471H85.4137V14.1765H86.3842ZM86.3842 15.1471V16.1176H85.4137V15.1471H86.3842ZM85.4137 15.1471V16.1176H84.4431V15.1471H85.4137ZM87.3548 15.1471V16.1176H86.3842V15.1471H87.3548ZM84.4431 15.1471V16.1176H83.4725V15.1471H84.4431ZM84.4431 14.1765V15.1471H83.4725V14.1765H84.4431ZM84.4431 13.2059V14.1765H83.4725V13.2059H84.4431ZM84.4431 12.2353V13.2059H83.4725V12.2353H84.4431ZM85.4137 12.2353V13.2059H84.4431V12.2353H85.4137ZM86.3842 12.2353V13.2059H85.4137V12.2353H86.3842ZM86.3842 13.2059V14.1765H85.4137V13.2059H86.3842ZM85.4137 14.1765V15.1471H84.4431V14.1765H85.4137ZM85.4137 13.2059V14.1765H84.4431V13.2059H85.4137ZM82.5019 5.44118H83.4725V6.41177H82.5019V5.44118ZM82.5019 17.0882H83.4725V18.0588H82.5019V17.0882ZM82.5019 16.1176H83.4725V17.0882H82.5019V16.1176ZM102.888 0.588236V1.55882H101.917V0.588236H102.888ZM101.917 0.588236V1.55882H100.947V0.588236H101.917ZM100.947 0.588236V1.55882H99.9763V0.588236H100.947ZM99.9763 0.588236V1.55882H99.0057V0.588236H99.9763ZM99.9763 1.55882V2.52941H99.0057V1.55882H99.9763ZM99.9763 2.52941V3.5H99.0057V2.52941H99.9763ZM100.947 2.52941V3.5H99.9763V2.52941H100.947ZM101.917 2.52941V3.5H100.947V2.52941H101.917ZM101.917 1.55882V2.52941H100.947V1.55882H101.917ZM102.888 1.55882V2.52941H101.917V1.55882H102.888ZM100.947 1.55882V2.52941H99.9763V1.55882H100.947ZM102.888 2.52941V3.5H101.917V2.52941H102.888ZM102.888 3.5V4.47059H101.917V3.5H102.888ZM102.888 4.47059V5.44118H101.917V4.47059H102.888ZM101.917 4.47059V5.44118H100.947V4.47059H101.917ZM100.947 4.47059V5.44118H99.9763V4.47059H100.947ZM99.9763 4.47059V5.44118H99.0057V4.47059H99.9763ZM99.9763 3.5V4.47059H99.0057V3.5H99.9763ZM100.947 3.5V4.47059H99.9763V3.5H100.947ZM101.917 3.5V4.47059H100.947V3.5H101.917ZM102.888 5.44118V6.41177H101.917V5.44118H102.888ZM101.917 5.44118V6.41177H100.947V5.44118H101.917ZM100.947 5.44118V6.41177H99.9763V5.44118H100.947ZM102.888 7.38235V8.35294H101.917V7.38235H102.888ZM102.888 6.41177V7.38235H101.917V6.41177H102.888ZM100.947 19.0294V20H99.9763V19.0294H100.947ZM101.917 19.0294V20H100.947V19.0294H101.917ZM102.888 18.0588V19.0294H101.917V18.0588H102.888ZM102.888 17.0882V18.0588H101.917V17.0882H102.888ZM102.888 19.0294V20H101.917V19.0294H102.888ZM98.0351 5.44118V6.41177H97.0645V5.44118H98.0351ZM99.9763 5.44118V6.41177H99.0057V5.44118H99.9763ZM97.0645 5.44118V6.41177H96.0939V5.44118H97.0645ZM96.0939 5.44118V6.41177H95.1233V5.44118H96.0939ZM95.1233 5.44118V6.41177H94.1527V5.44118H95.1233ZM94.1527 5.44118V6.41177H93.1822V5.44118H94.1527ZM93.1822 6.41177V7.38235H92.2116V6.41177H93.1822ZM94.1527 6.41177V7.38235H93.1822V6.41177H94.1527ZM94.1527 7.38235V8.35294H93.1822V7.38235H94.1527ZM92.2116 6.41177V7.38235H91.241V6.41177H92.2116ZM92.2116 7.38235V8.35294H91.241V7.38235H92.2116ZM93.1822 7.38235V8.35294H92.2116V7.38235H93.1822ZM94.1527 8.35294V9.32353H93.1822V8.35294H94.1527ZM95.1233 8.35294V9.32353H94.1527V8.35294H95.1233ZM93.1822 8.35294V9.32353H92.2116V8.35294H93.1822ZM92.2116 8.35294V9.32353H91.241V8.35294H92.2116ZM91.241 8.35294V9.32353H90.2704V8.35294H91.241ZM91.241 9.32353V10.2941H90.2704V9.32353H91.241ZM91.241 10.2941V11.2647H90.2704V10.2941H91.241ZM91.241 11.2647V12.2353H90.2704V11.2647H91.241ZM91.241 12.2353V13.2059H90.2704V12.2353H91.241ZM91.241 13.2059V14.1765H90.2704V13.2059H91.241ZM91.241 14.1765V15.1471H90.2704V14.1765H91.241ZM91.241 15.1471V16.1176H90.2704V15.1471H91.241ZM91.241 16.1176V17.0882H90.2704V16.1176H91.241ZM92.2116 16.1176V17.0882H91.241V16.1176H92.2116ZM92.2116 17.0882V18.0588H91.241V17.0882H92.2116ZM92.2116 18.0588V19.0294H91.241V18.0588H92.2116ZM93.1822 18.0588V19.0294H92.2116V18.0588H93.1822ZM94.1527 18.0588V19.0294H93.1822V18.0588H94.1527ZM95.1233 17.0882V18.0588H94.1527V17.0882H95.1233ZM95.1233 16.1176V17.0882H94.1527V16.1176H95.1233ZM94.1527 16.1176V17.0882H93.1822V16.1176H94.1527ZM94.1527 17.0882V18.0588H93.1822V17.0882H94.1527ZM93.1822 17.0882V18.0588H92.2116V17.0882H93.1822ZM93.1822 16.1176V17.0882H92.2116V16.1176H93.1822ZM93.1822 15.1471V16.1176H92.2116V15.1471H93.1822ZM94.1527 15.1471V16.1176H93.1822V15.1471H94.1527ZM94.1527 14.1765V15.1471H93.1822V14.1765H94.1527ZM94.1527 13.2059V14.1765H93.1822V13.2059H94.1527ZM94.1527 12.2353V13.2059H93.1822V12.2353H94.1527ZM94.1527 11.2647V12.2353H93.1822V11.2647H94.1527ZM94.1527 10.2941V11.2647H93.1822V10.2941H94.1527ZM94.1527 9.32353V10.2941H93.1822V9.32353H94.1527ZM93.1822 9.32353V10.2941H92.2116V9.32353H93.1822ZM93.1822 10.2941V11.2647H92.2116V10.2941H93.1822ZM93.1822 11.2647V12.2353H92.2116V11.2647H93.1822ZM93.1822 12.2353V13.2059H92.2116V12.2353H93.1822ZM93.1822 13.2059V14.1765H92.2116V13.2059H93.1822ZM93.1822 14.1765V15.1471H92.2116V14.1765H93.1822ZM92.2116 15.1471V16.1176H91.241V15.1471H92.2116ZM92.2116 14.1765V15.1471H91.241V14.1765H92.2116ZM92.2116 13.2059V14.1765H91.241V13.2059H92.2116ZM92.2116 12.2353V13.2059H91.241V12.2353H92.2116ZM92.2116 11.2647V12.2353H91.241V11.2647H92.2116ZM92.2116 10.2941V11.2647H91.241V10.2941H92.2116ZM92.2116 9.32353V10.2941H91.241V9.32353H92.2116ZM95.1233 18.0588V19.0294H94.1527V18.0588H95.1233ZM95.1233 19.0294V20H94.1527V19.0294H95.1233ZM94.1527 19.0294V20H93.1822V19.0294H94.1527ZM96.0939 19.0294V20H95.1233V19.0294H96.0939ZM97.0645 19.0294V20H96.0939V19.0294H97.0645ZM98.0351 19.0294V20H97.0645V19.0294H98.0351ZM99.9763 19.0294V20H99.0057V19.0294H99.9763ZM99.9763 18.0588V19.0294H99.0057V18.0588H99.9763ZM100.947 18.0588V19.0294H99.9763V18.0588H100.947ZM101.917 18.0588V19.0294H100.947V18.0588H101.917ZM101.917 10.2941V11.2647H100.947V10.2941H101.917ZM101.917 9.32353V10.2941H100.947V9.32353H101.917ZM102.888 8.35294V9.32353H101.917V8.35294H102.888ZM101.917 7.38235V8.35294H100.947V7.38235H101.917ZM100.947 6.41177V7.38235H99.9763V6.41177H100.947ZM99.9763 6.41177V7.38235H99.0057V6.41177H99.9763ZM99.0057 6.41177V7.38235H98.0351V6.41177H99.0057ZM99.0057 7.38235V8.35294H98.0351V7.38235H99.0057ZM99.9763 8.35294V9.32353H99.0057V8.35294H99.9763ZM100.947 8.35294V9.32353H99.9763V8.35294H100.947ZM99.9763 9.32353V10.2941H99.0057V9.32353H99.9763ZM99.9763 10.2941V11.2647H99.0057V10.2941H99.9763ZM99.9763 11.2647V12.2353H99.0057V11.2647H99.9763ZM98.0351 17.0882V18.0588H97.0645V17.0882H98.0351ZM97.0645 17.0882V18.0588H96.0939V17.0882H97.0645ZM96.0939 17.0882V18.0588H95.1233V17.0882H96.0939ZM96.0939 18.0588V19.0294H95.1233V18.0588H96.0939ZM97.0645 18.0588V19.0294H96.0939V18.0588H97.0645ZM98.0351 18.0588V19.0294H97.0645V18.0588H98.0351ZM99.0057 18.0588V19.0294H98.0351V18.0588H99.0057ZM99.9763 17.0882V18.0588H99.0057V17.0882H99.9763ZM100.947 17.0882V18.0588H99.9763V17.0882H100.947ZM100.947 10.2941V11.2647H99.9763V10.2941H100.947ZM100.947 9.32353V10.2941H99.9763V9.32353H100.947ZM100.947 7.38235V8.35294H99.9763V7.38235H100.947ZM99.9763 7.38235V8.35294H99.0057V7.38235H99.9763ZM98.0351 6.41177V7.38235H97.0645V6.41177H98.0351ZM97.0645 6.41177V7.38235H96.0939V6.41177H97.0645ZM96.0939 6.41177V7.38235H95.1233V6.41177H96.0939ZM95.1233 6.41177V7.38235H94.1527V6.41177H95.1233ZM95.1233 7.38235V8.35294H94.1527V7.38235H95.1233ZM96.0939 7.38235V8.35294H95.1233V7.38235H96.0939ZM97.0645 7.38235V8.35294H96.0939V7.38235H97.0645ZM98.0351 7.38235V8.35294H97.0645V7.38235H98.0351ZM101.917 6.41177V7.38235H100.947V6.41177H101.917ZM101.917 17.0882V18.0588H100.947V17.0882H101.917ZM101.917 8.35294V9.32353H100.947V8.35294H101.917ZM102.888 9.32353V10.2941H101.917V9.32353H102.888ZM102.888 10.2941V11.2647H101.917V10.2941H102.888ZM102.888 16.1176V17.0882H101.917V16.1176H102.888ZM101.917 16.1176V17.0882H100.947V16.1176H101.917ZM100.947 16.1176V17.0882H99.9763V16.1176H100.947ZM99.9763 16.1176V17.0882H99.0057V16.1176H99.9763ZM100.947 11.2647V12.2353H99.9763V11.2647H100.947ZM101.917 11.2647V12.2353H100.947V11.2647H101.917ZM102.888 11.2647V12.2353H101.917V11.2647H102.888ZM102.888 12.2353V13.2059H101.917V12.2353H102.888ZM102.888 13.2059V14.1765H101.917V13.2059H102.888ZM102.888 14.1765V15.1471H101.917V14.1765H102.888ZM101.917 14.1765V15.1471H100.947V14.1765H101.917ZM101.917 15.1471V16.1176H100.947V15.1471H101.917ZM100.947 15.1471V16.1176H99.9763V15.1471H100.947ZM102.888 15.1471V16.1176H101.917V15.1471H102.888ZM99.9763 15.1471V16.1176H99.0057V15.1471H99.9763ZM99.9763 14.1765V15.1471H99.0057V14.1765H99.9763ZM99.9763 13.2059V14.1765H99.0057V13.2059H99.9763ZM99.9763 12.2353V13.2059H99.0057V12.2353H99.9763ZM100.947 12.2353V13.2059H99.9763V12.2353H100.947ZM101.917 12.2353V13.2059H100.947V12.2353H101.917ZM101.917 13.2059V14.1765H100.947V13.2059H101.917ZM100.947 14.1765V15.1471H99.9763V14.1765H100.947ZM100.947 13.2059V14.1765H99.9763V13.2059H100.947ZM98.0351 5.44118H99.0057V6.41177H98.0351V5.44118ZM98.0351 17.0882H99.0057V18.0588H98.0351V17.0882ZM98.0351 16.1176H99.0057V17.0882H98.0351V16.1176ZM113.568 20H112.598V19.0294H113.568V20ZM115.509 20H114.539V19.0294H115.509V20ZM112.598 20H111.627V19.0294H112.598V20ZM111.627 20H110.657V19.0294H111.627V20ZM110.657 20H109.686V19.0294H110.657V20ZM109.686 20H108.715V19.0294H109.686V20ZM108.715 19.0294H107.745V18.0588H108.715V19.0294ZM109.686 19.0294H108.715V18.0588H109.686V19.0294ZM109.686 18.0588H108.715V17.0882H109.686V18.0588ZM107.745 19.0294H106.774V18.0588H107.745V19.0294ZM107.745 18.0588H106.774V17.0882H107.745V18.0588ZM108.715 18.0588H107.745V17.0882H108.715V18.0588ZM109.686 17.0882H108.715V16.1176H109.686V17.0882ZM110.657 17.0882H109.686V16.1176H110.657V17.0882ZM108.715 17.0882H107.745V16.1176H108.715V17.0882ZM107.745 17.0882H106.774V16.1176H107.745V17.0882ZM106.774 17.0882H105.804V16.1176H106.774V17.0882ZM106.774 16.1176H105.804V15.1471H106.774V16.1176ZM106.774 10.2941H105.804V9.32353H106.774V10.2941ZM106.774 9.32353H105.804V8.35294H106.774V9.32353ZM107.745 9.32353H106.774V8.35294H107.745V9.32353ZM107.745 8.35294H106.774V7.38235H107.745V8.35294ZM107.745 7.38235H106.774V6.41177H107.745V7.38235ZM108.715 7.38235H107.745V6.41177H108.715V7.38235ZM109.686 7.38235H108.715V6.41177H109.686V7.38235ZM110.657 8.35294H109.686V7.38235H110.657V8.35294ZM110.657 9.32353H109.686V8.35294H110.657V9.32353ZM109.686 9.32353H108.715V8.35294H109.686V9.32353ZM109.686 8.35294H108.715V7.38235H109.686V8.35294ZM108.715 8.35294H107.745V7.38235H108.715V8.35294ZM108.715 9.32353H107.745V8.35294H108.715V9.32353ZM108.715 10.2941H107.745V9.32353H108.715V10.2941ZM109.686 10.2941H108.715V9.32353H109.686V10.2941ZM109.686 16.1176H108.715V15.1471H109.686V16.1176ZM108.715 16.1176H107.745V15.1471H108.715V16.1176ZM107.745 10.2941H106.774V9.32353H107.745V10.2941ZM107.745 16.1176H106.774V15.1471H107.745V16.1176ZM110.657 7.38235H109.686V6.41177H110.657V7.38235ZM110.657 6.41177H109.686V5.44118H110.657V6.41177ZM109.686 6.41177H108.715V5.44118H109.686V6.41177ZM111.627 6.41177H110.657V5.44118H111.627V6.41177ZM112.598 6.41177H111.627V5.44118H112.598V6.41177ZM113.568 6.41177H112.598V5.44118H113.568V6.41177ZM114.539 6.41177H113.568V5.44118H114.539V6.41177ZM115.509 6.41177H114.539V5.44118H115.509V6.41177ZM115.509 7.38235H114.539V6.41177H115.509V7.38235ZM116.48 7.38235H115.509V6.41177H116.48V7.38235ZM117.451 7.38235H116.48V6.41177H117.451V7.38235ZM117.451 8.35294H116.48V7.38235H117.451V8.35294ZM118.421 9.32353H117.451V8.35294H118.421V9.32353ZM117.451 9.32353H116.48V8.35294H117.451V9.32353ZM118.421 10.2941H117.451V9.32353H118.421V10.2941ZM118.421 11.2647H117.451V10.2941H118.421V11.2647ZM118.421 12.2353H117.451V11.2647H118.421V12.2353ZM118.421 13.2059H117.451V12.2353H118.421V13.2059ZM118.421 14.1765H117.451V13.2059H118.421V14.1765ZM118.421 15.1471H117.451V14.1765H118.421V15.1471ZM117.451 15.1471H116.48V14.1765H117.451V15.1471ZM117.451 16.1176H116.48V15.1471H117.451V16.1176ZM118.421 16.1176H117.451V15.1471H118.421V16.1176ZM118.421 17.0882H117.451V16.1176H118.421V17.0882ZM117.451 17.0882H116.48V16.1176H117.451V17.0882ZM117.451 18.0588H116.48V17.0882H117.451V18.0588ZM117.451 19.0294H116.48V18.0588H117.451V19.0294ZM116.48 19.0294H115.509V18.0588H116.48V19.0294ZM115.509 19.0294H114.539V18.0588H115.509V19.0294ZM114.539 19.0294H113.568V18.0588H114.539V19.0294ZM114.539 18.0588H113.568V17.0882H114.539V18.0588ZM115.509 17.0882H114.539V16.1176H115.509V17.0882ZM116.48 17.0882H115.509V16.1176H116.48V17.0882ZM115.509 16.1176H114.539V15.1471H115.509V16.1176ZM115.509 15.1471H114.539V14.1765H115.509V15.1471ZM115.509 14.1765H114.539V13.2059H115.509V14.1765ZM115.509 13.2059H114.539V12.2353H115.509V13.2059ZM115.509 12.2353H114.539V11.2647H115.509V12.2353ZM115.509 11.2647H114.539V10.2941H115.509V11.2647ZM115.509 10.2941H114.539V9.32353H115.509V10.2941ZM115.509 9.32353H114.539V8.35294H115.509V9.32353ZM114.539 9.32353H113.568V8.35294H114.539V9.32353ZM114.539 8.35294H113.568V7.38235H114.539V8.35294ZM113.568 8.35294H112.598V7.38235H113.568V8.35294ZM112.598 8.35294H111.627V7.38235H112.598V8.35294ZM111.627 8.35294H110.657V7.38235H111.627V8.35294ZM111.627 7.38235H110.657V6.41177H111.627V7.38235ZM112.598 7.38235H111.627V6.41177H112.598V7.38235ZM113.568 7.38235H112.598V6.41177H113.568V7.38235ZM114.539 7.38235H113.568V6.41177H114.539V7.38235ZM115.509 8.35294H114.539V7.38235H115.509V8.35294ZM116.48 8.35294H115.509V7.38235H116.48V8.35294ZM116.48 9.32353H115.509V8.35294H116.48V9.32353ZM116.48 10.2941H115.509V9.32353H116.48V10.2941ZM116.48 11.2647H115.509V10.2941H116.48V11.2647ZM117.451 11.2647H116.48V10.2941H117.451V11.2647ZM117.451 10.2941H116.48V9.32353H117.451V10.2941ZM117.451 12.2353H116.48V11.2647H117.451V12.2353ZM117.451 13.2059H116.48V12.2353H117.451V13.2059ZM117.451 14.1765H116.48V13.2059H117.451V14.1765ZM116.48 14.1765H115.509V13.2059H116.48V14.1765ZM116.48 13.2059H115.509V12.2353H116.48V13.2059ZM116.48 12.2353H115.509V11.2647H116.48V12.2353ZM116.48 15.1471H115.509V14.1765H116.48V15.1471ZM116.48 16.1176H115.509V15.1471H116.48V16.1176ZM116.48 18.0588H115.509V17.0882H116.48V18.0588ZM115.509 18.0588H114.539V17.0882H115.509V18.0588ZM113.568 19.0294H112.598V18.0588H113.568V19.0294ZM112.598 19.0294H111.627V18.0588H112.598V19.0294ZM111.627 19.0294H110.657V18.0588H111.627V19.0294ZM110.657 19.0294H109.686V18.0588H110.657V19.0294ZM110.657 18.0588H109.686V17.0882H110.657V18.0588ZM111.627 18.0588H110.657V17.0882H111.627V18.0588ZM112.598 18.0588H111.627V17.0882H112.598V18.0588ZM113.568 18.0588H112.598V17.0882H113.568V18.0588ZM107.745 15.1471H106.774V14.1765H107.745V15.1471ZM108.715 15.1471H107.745V14.1765H108.715V15.1471ZM109.686 15.1471H108.715V14.1765H109.686V15.1471ZM107.745 14.1765H106.774V13.2059H107.745V14.1765ZM108.715 14.1765H107.745V13.2059H108.715V14.1765ZM109.686 14.1765H108.715V13.2059H109.686V14.1765ZM110.657 14.1765H109.686V13.2059H110.657V14.1765ZM111.627 14.1765H110.657V13.2059H111.627V14.1765ZM112.598 14.1765H111.627V13.2059H112.598V14.1765ZM113.568 14.1765H112.598V13.2059H113.568V14.1765ZM114.539 14.1765H113.568V13.2059H114.539V14.1765ZM114.539 13.2059H113.568V12.2353H114.539V13.2059ZM113.568 13.2059H112.598V12.2353H113.568V13.2059ZM112.598 13.2059H111.627V12.2353H112.598V13.2059ZM111.627 13.2059H110.657V12.2353H111.627V13.2059ZM110.657 13.2059H109.686V12.2353H110.657V13.2059ZM109.686 13.2059H108.715V12.2353H109.686V13.2059ZM117.451 17.0882H118.421V18.0588H117.451V17.0882ZM117.451 18.0588H118.421V19.0294H117.451V18.0588ZM117.451 19.0294H118.421V20H117.451V19.0294ZM116.48 19.0294H117.451V20H116.48V19.0294ZM115.509 19.0294H116.48V20H115.509V19.0294ZM109.686 14.1765H110.657V15.1471H109.686V14.1765ZM121.337 0.588236H122.307V1.55882H121.337V0.588236ZM122.307 0.588236H123.278V1.55882H122.307V0.588236ZM123.278 0.588236H124.249V1.55882H123.278V0.588236ZM124.249 0.588236H125.219V1.55882H124.249V0.588236ZM124.249 2.52941H125.219V3.5H124.249V2.52941ZM124.249 3.5H125.219V4.47059H124.249V3.5ZM124.249 1.55882H125.219V2.52941H124.249V1.55882ZM124.249 4.47059H125.219V5.44118H124.249V4.47059ZM123.278 4.47059H124.249V5.44118H123.278V4.47059ZM122.307 4.47059H123.278V5.44118H122.307V4.47059ZM121.337 4.47059H122.307V5.44118H121.337V4.47059ZM121.337 3.5H122.307V4.47059H121.337V3.5ZM121.337 2.52941H122.307V3.5H121.337V2.52941ZM121.337 1.55882H122.307V2.52941H121.337V1.55882ZM122.307 1.55882H123.278V2.52941H122.307V1.55882ZM122.307 2.52941H123.278V3.5H122.307V2.52941ZM123.278 2.52941H124.249V3.5H123.278V2.52941ZM123.278 3.5H124.249V4.47059H123.278V3.5ZM122.307 3.5H123.278V4.47059H122.307V3.5ZM123.278 1.55882H124.249V2.52941H123.278V1.55882ZM128.131 5.44118H129.102V6.41177H128.131V5.44118ZM128.131 6.41177H129.102V7.38235H128.131V6.41177ZM128.131 7.38235H129.102V8.35294H128.131V7.38235ZM128.131 8.35294H129.102V9.32353H128.131V8.35294ZM129.102 8.35294H130.072V9.32353H129.102V8.35294ZM130.072 8.35294H131.043V9.32353H130.072V8.35294ZM131.043 8.35294H132.013V9.32353H131.043V8.35294ZM131.043 7.38235H132.013V8.35294H131.043V7.38235ZM131.043 6.41177H132.013V7.38235H131.043V6.41177ZM131.043 5.44118H132.013V6.41177H131.043V5.44118ZM130.072 5.44118H131.043V6.41177H130.072V5.44118ZM129.102 5.44118H130.072V6.41177H129.102V5.44118ZM129.102 6.41177H130.072V7.38235H129.102V6.41177ZM129.102 7.38235H130.072V8.35294H129.102V7.38235ZM130.072 7.38235H131.043V8.35294H130.072V7.38235ZM130.072 6.41177H131.043V7.38235H130.072V6.41177ZM121.337 5.44118H122.307V6.41177H121.337V5.44118ZM122.307 5.44118H123.278V6.41177H122.307V5.44118ZM123.278 5.44118H124.249V6.41177H123.278V5.44118ZM124.249 5.44118H125.219V6.41177H124.249V5.44118ZM124.249 6.41177H125.219V7.38235H124.249V6.41177ZM124.249 7.38235H125.219V8.35294H124.249V7.38235ZM124.249 8.35294H125.219V9.32353H124.249V8.35294ZM124.249 9.32353H125.219V10.2941H124.249V9.32353ZM124.249 10.2941H125.219V11.2647H124.249V10.2941ZM123.278 10.2941H124.249V11.2647H123.278V10.2941ZM122.307 10.2941H123.278V11.2647H122.307V10.2941ZM122.307 9.32353H123.278V10.2941H122.307V9.32353ZM122.307 8.35294H123.278V9.32353H122.307V8.35294ZM122.307 7.38235H123.278V8.35294H122.307V7.38235ZM122.307 6.41177H123.278V7.38235H122.307V6.41177ZM121.337 6.41177H122.307V7.38235H121.337V6.41177ZM121.337 7.38235H122.307V8.35294H121.337V7.38235ZM121.337 8.35294H122.307V9.32353H121.337V8.35294ZM121.337 9.32353H122.307V10.2941H121.337V9.32353ZM121.337 10.2941H122.307V11.2647H121.337V10.2941ZM123.278 9.32353H124.249V10.2941H123.278V9.32353ZM123.278 8.35294H124.249V9.32353H123.278V8.35294ZM123.278 7.38235H124.249V8.35294H123.278V7.38235ZM123.278 6.41177H124.249V7.38235H123.278V6.41177ZM125.219 10.2941H126.19V11.2647H125.219V10.2941ZM126.19 10.2941H127.16V11.2647H126.19V10.2941ZM126.19 9.32353H127.16V10.2941H126.19V9.32353ZM127.16 9.32353H128.131V10.2941H127.16V9.32353ZM127.16 8.35294H128.131V9.32353H127.16V8.35294ZM131.043 9.32353H132.013V10.2941H131.043V9.32353ZM130.072 9.32353H131.043V10.2941H130.072V9.32353ZM129.102 9.32353H130.072V10.2941H129.102V9.32353ZM128.131 9.32353H129.102V10.2941H128.131V9.32353ZM129.102 10.2941H130.072V11.2647H129.102V10.2941ZM130.072 10.2941H131.043V11.2647H130.072V10.2941ZM129.102 11.2647H130.072V12.2353H129.102V11.2647ZM128.131 11.2647H129.102V12.2353H128.131V11.2647ZM128.131 12.2353H129.102V13.2059H128.131V12.2353ZM127.16 12.2353H128.131V13.2059H127.16V12.2353ZM126.19 12.2353H127.16V13.2059H126.19V12.2353ZM125.219 12.2353H126.19V13.2059H125.219V12.2353ZM124.249 12.2353H125.219V13.2059H124.249V12.2353ZM125.219 11.2647H126.19V12.2353H125.219V11.2647ZM126.19 11.2647H127.16V12.2353H126.19V11.2647ZM127.16 11.2647H128.131V12.2353H127.16V11.2647ZM127.16 10.2941H128.131V11.2647H127.16V10.2941ZM128.131 10.2941H129.102V11.2647H128.131V10.2941ZM131.043 15.1471H132.013V16.1176H131.043V15.1471ZM130.072 15.1471H131.043V16.1176H130.072V15.1471ZM129.102 15.1471H130.072V16.1176H129.102V15.1471ZM128.131 15.1471H129.102V16.1176H128.131V15.1471ZM127.16 15.1471H128.131V16.1176H127.16V15.1471ZM127.16 14.1765H128.131V15.1471H127.16V14.1765ZM126.19 14.1765H127.16V15.1471H126.19V14.1765ZM126.19 13.2059H127.16V14.1765H126.19V13.2059ZM125.219 13.2059H126.19V14.1765H125.219V13.2059ZM127.16 13.2059H128.131V14.1765H127.16V13.2059ZM128.131 13.2059H129.102V14.1765H128.131V13.2059ZM129.102 13.2059H130.072V14.1765H129.102V13.2059ZM129.102 14.1765H130.072V15.1471H129.102V14.1765ZM130.072 14.1765H131.043V15.1471H130.072V14.1765ZM128.131 14.1765H129.102V15.1471H128.131V14.1765ZM131.043 19.0294H132.013V20H131.043V19.0294ZM130.072 19.0294H131.043V20H130.072V19.0294ZM129.102 19.0294H130.072V20H129.102V19.0294ZM128.131 19.0294H129.102V20H128.131V19.0294ZM128.131 18.0588H129.102V19.0294H128.131V18.0588ZM128.131 17.0882H129.102V18.0588H128.131V17.0882ZM128.131 16.1176H129.102V17.0882H128.131V16.1176ZM129.102 16.1176H130.072V17.0882H129.102V16.1176ZM131.043 16.1176H132.013V17.0882H131.043V16.1176ZM131.043 17.0882H132.013V18.0588H131.043V17.0882ZM131.043 18.0588H132.013V19.0294H131.043V18.0588ZM130.072 18.0588H131.043V19.0294H130.072V18.0588ZM130.072 17.0882H131.043V18.0588H130.072V17.0882ZM130.072 16.1176H131.043V17.0882H130.072V16.1176ZM129.102 17.0882H130.072V18.0588H129.102V17.0882ZM129.102 18.0588H130.072V19.0294H129.102V18.0588ZM121.337 19.0294H122.307V20H121.337V19.0294ZM122.307 19.0294H123.278V20H122.307V19.0294ZM123.278 19.0294H124.249V20H123.278V19.0294ZM124.249 19.0294H125.219V20H124.249V19.0294ZM124.249 18.0588H125.219V19.0294H124.249V18.0588ZM124.249 17.0882H125.219V18.0588H124.249V17.0882ZM124.249 16.1176H125.219V17.0882H124.249V16.1176ZM124.249 15.1471H125.219V16.1176H124.249V15.1471ZM124.249 14.1765H125.219V15.1471H124.249V14.1765ZM124.249 13.2059H125.219V14.1765H124.249V13.2059ZM124.249 11.2647H125.219V12.2353H124.249V11.2647ZM123.278 11.2647H124.249V12.2353H123.278V11.2647ZM122.307 11.2647H123.278V12.2353H122.307V11.2647ZM121.337 11.2647H122.307V12.2353H121.337V11.2647ZM121.337 12.2353H122.307V13.2059H121.337V12.2353ZM121.337 13.2059H122.307V14.1765H121.337V13.2059ZM121.337 14.1765H122.307V15.1471H121.337V14.1765ZM122.307 14.1765H123.278V15.1471H122.307V14.1765ZM122.307 15.1471H123.278V16.1176H122.307V15.1471ZM122.307 16.1176H123.278V17.0882H122.307V16.1176ZM122.307 17.0882H123.278V18.0588H122.307V17.0882ZM122.307 18.0588H123.278V19.0294H122.307V18.0588ZM121.337 18.0588H122.307V19.0294H121.337V18.0588ZM121.337 17.0882H122.307V18.0588H121.337V17.0882ZM121.337 16.1176H122.307V17.0882H121.337V16.1176ZM121.337 15.1471H122.307V16.1176H121.337V15.1471ZM122.307 13.2059H123.278V14.1765H122.307V13.2059ZM122.307 12.2353H123.278V13.2059H122.307V12.2353ZM123.278 12.2353H124.249V13.2059H123.278V12.2353ZM123.278 13.2059H124.249V14.1765H123.278V13.2059ZM123.278 14.1765H124.249V15.1471H123.278V14.1765ZM123.278 15.1471H124.249V16.1176H123.278V15.1471ZM123.278 16.1176H124.249V17.0882H123.278V16.1176ZM123.278 17.0882H124.249V18.0588H123.278V17.0882ZM123.278 18.0588H124.249V19.0294H123.278V18.0588Z" fill="#637EFF"/>
</svg>
